<?xml version="1.0" encoding="utf-8" ?>
<svg baseProfile="tiny" height="200" version="1.2" width="200" xmlns="http://www.w3.org/2000/svg" xmlns:ev="http://www.w3.org/2001/xml-events" xmlns:xlink="http://www.w3.org/1999/xlink"><defs /><path d="M 160.00,100.00 L 160.74,102.27 L 161.45,104.52 L 162.13,106.75 L 162.77,108.94 L 163.37,111.07 L 163.92,113.15 L 164.42,115.15 L 164.87,117.07 L 165.26,118.90 L 165.60,120.64 L 165.87,122.28 L 166.08,123.83 L 166.22,125.27 L 166.29,126.62 L 166.29,127.87 L 166.23,129.04 L 166.08,130.13 L 165.87,131.14 L 165.58,132.10 L 165.21,133.00 L 164.77,133.88 L 164.26,134.72 L 163.68,135.56 L 163.02,136.41 L 162.29,137.28 L 161.49,138.18 L 160.63,139.14 L 159.70,140.16 L 158.71,141.26 L 157.67,142.44 L 156.56,143.73 L 155.41,145.12 L 154.20,146.63 L 152.95,148.25 L 151.65,150.00 L 150.32,151.87 L 148.95,153.86 L 147.55,155.97 L 146.12,158.19 L 144.67,160.51 L 143.21,162.92 L 141.72,165.41 L 140.23,167.97 L 138.73,170.57 L 137.22,173.21 L 135.72,175.85 L 134.21,178.49 L 132.72,181.10 L 131.23,183.66 L 129.76,186.15 L 128.30,188.54 L 126.85,190.82 L 125.43,192.96 L 124.03,194.96 L 122.64,196.78 L 121.29,198.42 L 119.96,199.85 L 118.65,201.08 L 117.37,202.08 L 116.11,202.85 L 114.88,203.39 L 113.68,203.69 L 112.50,203.75 L 111.35,203.58 L 110.21,203.18 L 109.10,202.56 L 108.01,201.73 L 106.94,200.70 L 105.88,199.49 L 104.84,198.12 L 103.80,196.61 L 102.78,194.97 L 101.77,193.23 L 100.76,191.41 L 99.75,189.53 L 98.74,187.61 L 97.73,185.69 L 96.71,183.78 L 95.68,181.90 L 94.64,180.08 L 93.59,178.33 L 92.53,176.68 L 91.45,175.14 L 90.35,173.72 L 89.22,172.44 L 88.08,171.30 L 86.91,170.32 L 85.72,169.50 L 84.51,168.84 L 83.26,168.34 L 82.00,168.00 L 80.70,167.81 L 79.38,167.76 L 78.04,167.85 L 76.67,168.06 L 75.28,168.37 L 73.86,168.77 L 72.43,169.25 L 70.98,169.78 L 69.51,170.34 L 68.03,170.91 L 66.54,171.48 L 65.04,172.03 L 63.53,172.52 L 62.03,172.95 L 60.52,173.30 L 59.02,173.54 L 57.53,173.66 L 56.06,173.65 L 54.60,173.50 L 53.16,173.19 L 51.75,172.71 L 50.36,172.07 L 49.01,171.25 L 47.70,170.25 L 46.42,169.08 L 45.19,167.74 L 44.01,166.23 L 42.88,164.56 L 41.80,162.73 L 40.78,160.77 L 39.82,158.68 L 38.93,156.48 L 38.10,154.18 L 37.34,151.79 L 36.64,149.33 L 36.02,146.83 L 35.47,144.28 L 35.00,141.72 L 34.60,139.16 L 34.27,136.60 L 34.02,134.07 L 33.84,131.58 L 33.73,129.13 L 33.70,126.75 L 33.74,124.43 L 33.84,122.18 L 34.02,120.01 L 34.26,117.92 L 34.56,115.91 L 34.93,113.99 L 35.35,112.13 L 35.82,110.35 L 36.35,108.64 L 36.92,106.98 L 37.54,105.38 L 38.20,103.81 L 38.90,102.28 L 39.63,100.76 L 40.38,99.24 L 41.16,97.72 L 41.96,96.19 L 42.78,94.62 L 43.61,93.02 L 44.45,91.36 L 45.30,89.65 L 46.14,87.87 L 46.98,86.01 L 47.82,84.09 L 48.65,82.08 L 49.47,79.99 L 50.27,77.82 L 51.06,75.57 L 51.83,73.25 L 52.58,70.87 L 53.30,68.42 L 54.01,65.93 L 54.69,63.40 L 55.34,60.84 L 55.97,58.28 L 56.57,55.72 L 57.14,53.17 L 57.69,50.67 L 58.22,48.21 L 58.72,45.82 L 59.20,43.52 L 59.66,41.32 L 60.10,39.23 L 60.53,37.27 L 60.94,35.44 L 61.33,33.77 L 61.72,32.26 L 62.10,30.92 L 62.48,29.75 L 62.86,28.75 L 63.24,27.93 L 63.62,27.29 L 64.02,26.81 L 64.42,26.50 L 64.84,26.35 L 65.28,26.34 L 65.74,26.46 L 66.22,26.70 L 66.73,27.05 L 67.27,27.48 L 67.84,27.97 L 68.44,28.52 L 69.08,29.09 L 69.76,29.66 L 70.48,30.22 L 71.25,30.75 L 72.05,31.23 L 72.90,31.63 L 73.80,31.94 L 74.73,32.15 L 75.72,32.24 L 76.75,32.19 L 77.82,32.00 L 78.94,31.66 L 80.10,31.16 L 81.30,30.50 L 82.54,29.68 L 83.81,28.70 L 85.13,27.56 L 86.48,26.28 L 87.85,24.86 L 89.26,23.32 L 90.69,21.67 L 92.14,19.92 L 93.62,18.10 L 95.10,16.22 L 96.60,14.31 L 98.11,12.39 L 99.62,10.47 L 101.13,8.59 L 102.64,6.77 L 104.15,5.03 L 105.64,3.39 L 107.12,1.88 L 108.58,0.51 L 110.03,-0.70 L 111.45,-1.73 L 112.84,-2.56 L 114.20,-3.18 L 115.53,-3.58 L 116.83,-3.75 L 118.09,-3.69 L 119.31,-3.39 L 120.49,-2.85 L 121.63,-2.08 L 122.72,-1.08 L 123.77,0.15 L 124.78,1.58 L 125.74,3.22 L 126.66,5.04 L 127.53,7.04 L 128.36,9.18 L 129.14,11.46 L 129.88,13.85 L 130.58,16.34 L 131.24,18.90 L 131.86,21.51 L 132.45,24.15 L 133.01,26.79 L 133.53,29.43 L 134.03,32.03 L 134.50,34.59 L 134.94,37.08 L 135.37,39.49 L 135.78,41.81 L 136.18,44.03 L 136.57,46.14 L 136.95,48.13 L 137.33,50.00 L 137.71,51.75 L 138.09,53.37 L 138.47,54.88 L 138.86,56.27 L 139.27,57.56 L 139.68,58.74 L 140.12,59.84 L 140.57,60.86 L 141.04,61.82 L 141.53,62.72 L 142.04,63.59 L 142.58,64.44 L 143.14,65.28 L 143.73,66.12 L 144.34,67.00 L 144.98,67.90 L 145.65,68.86 L 146.34,69.87 L 147.06,70.96 L 147.79,72.13 L 148.55,73.38 L 149.33,74.73 L 150.13,76.17 L 150.94,77.72 L 151.76,79.36 L 152.60,81.10 L 153.44,82.93 L 154.28,84.85 L 155.13,86.85 L 155.97,88.93 L 156.80,91.06 L 157.63,93.25 L 158.44,95.48 L 159.23,97.73 L 160.00,100.00" fill="none" stroke="#0ff" stroke-width="1" /><path d="M 158.80,100.00 L 159.53,102.22 L 160.23,104.43 L 160.89,106.61 L 161.52,108.76 L 162.10,110.85 L 162.64,112.88 L 163.13,114.84 L 163.57,116.73 L 163.96,118.52 L 164.29,120.23 L 164.55,121.84 L 164.76,123.35 L 164.90,124.76 L 164.97,126.09 L 164.97,127.31 L 164.90,128.46 L 164.76,129.52 L 164.55,130.52 L 164.27,131.46 L 163.91,132.34 L 163.48,133.20 L 162.98,134.03 L 162.40,134.85 L 161.76,135.68 L 161.04,136.53 L 160.26,137.42 L 159.42,138.36 L 158.51,139.36 L 157.54,140.43 L 156.51,141.59 L 155.43,142.85 L 154.30,144.22 L 153.11,145.70 L 151.89,147.29 L 150.62,149.00 L 149.31,150.83 L 147.97,152.79 L 146.60,154.85 L 145.20,157.03 L 143.78,159.30 L 142.34,161.66 L 140.89,164.11 L 139.42,166.61 L 137.95,169.16 L 136.48,171.74 L 135.00,174.34 L 133.53,176.92 L 132.06,179.48 L 130.61,181.99 L 129.16,184.42 L 127.73,186.77 L 126.32,189.00 L 124.92,191.10 L 123.54,193.06 L 122.19,194.84 L 120.86,196.45 L 119.56,197.86 L 118.28,199.06 L 117.02,200.04 L 115.79,200.79 L 114.59,201.32 L 113.41,201.61 L 112.25,201.67 L 111.12,201.50 L 110.01,201.11 L 108.92,200.50 L 107.85,199.69 L 106.80,198.69 L 105.76,197.50 L 104.74,196.16 L 103.73,194.68 L 102.73,193.07 L 101.73,191.36 L 100.74,189.58 L 99.75,187.74 L 98.76,185.86 L 97.77,183.97 L 96.77,182.10 L 95.77,180.26 L 94.75,178.48 L 93.72,176.76 L 92.68,175.14 L 91.62,173.63 L 90.54,172.24 L 89.44,170.99 L 88.32,169.88 L 87.17,168.92 L 86.01,168.11 L 84.82,167.47 L 83.60,166.98 L 82.36,166.64 L 81.09,166.45 L 79.79,166.41 L 78.48,166.49 L 77.13,166.69 L 75.77,167.00 L 74.39,167.40 L 72.98,167.86 L 71.56,168.38 L 70.12,168.93 L 68.67,169.50 L 67.21,170.06 L 65.74,170.59 L 64.26,171.07 L 62.79,171.49 L 61.31,171.83 L 59.84,172.07 L 58.38,172.19 L 56.94,172.18 L 55.51,172.03 L 54.10,171.72 L 52.71,171.26 L 51.36,170.62 L 50.03,169.82 L 48.74,168.85 L 47.49,167.70 L 46.29,166.38 L 45.13,164.90 L 44.02,163.26 L 42.97,161.48 L 41.97,159.56 L 41.03,157.51 L 40.15,155.35 L 39.34,153.09 L 38.59,150.75 L 37.91,148.35 L 37.30,145.89 L 36.76,143.40 L 36.30,140.89 L 35.90,138.37 L 35.58,135.87 L 35.34,133.39 L 35.16,130.94 L 35.06,128.55 L 35.02,126.21 L 35.06,123.94 L 35.17,121.74 L 35.34,119.61 L 35.57,117.56 L 35.87,115.60 L 36.23,113.71 L 36.64,111.89 L 37.11,110.15 L 37.62,108.47 L 38.19,106.85 L 38.79,105.27 L 39.44,103.74 L 40.12,102.23 L 40.83,100.74 L 41.57,99.26 L 42.34,97.77 L 43.12,96.26 L 43.93,94.73 L 44.74,93.15 L 45.56,91.53 L 46.39,89.85 L 47.22,88.11 L 48.04,86.29 L 48.87,84.40 L 49.68,82.44 L 50.48,80.39 L 51.27,78.26 L 52.04,76.06 L 52.79,73.79 L 53.53,71.45 L 54.24,69.06 L 54.93,66.61 L 55.59,64.13 L 56.23,61.63 L 56.85,59.11 L 57.44,56.60 L 58.00,54.11 L 58.54,51.65 L 59.05,49.25 L 59.55,46.91 L 60.02,44.65 L 60.47,42.49 L 60.90,40.44 L 61.32,38.52 L 61.72,36.74 L 62.11,35.10 L 62.49,33.62 L 62.86,32.30 L 63.23,31.15 L 63.60,30.18 L 63.97,29.38 L 64.35,28.74 L 64.73,28.28 L 65.13,27.97 L 65.54,27.82 L 65.97,27.81 L 66.42,27.93 L 66.89,28.17 L 67.39,28.51 L 67.92,28.93 L 68.48,29.41 L 69.07,29.94 L 69.70,30.50 L 70.37,31.07 L 71.08,31.62 L 71.82,32.14 L 72.61,32.60 L 73.44,33.00 L 74.32,33.31 L 75.24,33.51 L 76.20,33.59 L 77.21,33.55 L 78.26,33.36 L 79.36,33.02 L 80.49,32.53 L 81.67,31.89 L 82.89,31.08 L 84.14,30.12 L 85.43,29.01 L 86.75,27.76 L 88.10,26.37 L 89.47,24.86 L 90.88,23.24 L 92.30,21.52 L 93.74,19.74 L 95.20,17.90 L 96.67,16.03 L 98.15,14.14 L 99.63,12.26 L 101.11,10.42 L 102.59,8.64 L 104.07,6.93 L 105.53,5.32 L 106.98,3.84 L 108.41,2.50 L 109.83,1.31 L 111.22,0.31 L 112.58,-0.50 L 113.92,-1.11 L 115.22,-1.50 L 116.49,-1.67 L 117.73,-1.61 L 118.92,-1.32 L 120.08,-0.79 L 121.20,-0.04 L 122.27,0.94 L 123.30,2.14 L 124.28,3.55 L 125.23,5.16 L 126.12,6.94 L 126.98,8.90 L 127.79,11.00 L 128.56,13.23 L 129.28,15.58 L 129.97,18.01 L 130.62,20.52 L 131.23,23.08 L 131.80,25.66 L 132.35,28.26 L 132.86,30.84 L 133.35,33.39 L 133.81,35.89 L 134.25,38.34 L 134.66,40.70 L 135.07,42.97 L 135.46,45.15 L 135.84,47.21 L 136.21,49.17 L 136.58,51.00 L 136.95,52.71 L 137.32,54.30 L 137.70,55.78 L 138.09,57.15 L 138.48,58.41 L 138.89,59.57 L 139.31,60.64 L 139.75,61.64 L 140.22,62.58 L 140.70,63.47 L 141.20,64.32 L 141.73,65.15 L 142.28,65.97 L 142.86,66.80 L 143.46,67.66 L 144.09,68.54 L 144.74,69.48 L 145.41,70.48 L 146.11,71.54 L 146.84,72.69 L 147.58,73.91 L 148.34,75.24 L 149.12,76.65 L 149.92,78.16 L 150.73,79.77 L 151.54,81.48 L 152.37,83.27 L 153.20,85.16 L 154.02,87.12 L 154.85,89.15 L 155.67,91.24 L 156.48,93.39 L 157.27,95.57 L 158.05,97.78 L 158.80,100.00" fill="none" stroke="#0ff" stroke-width="1" /><path d="M 157.60,100.00 L 158.31,102.18 L 159.00,104.34 L 159.65,106.48 L 160.26,108.58 L 160.83,110.63 L 161.36,112.62 L 161.85,114.54 L 162.28,116.39 L 162.65,118.14 L 162.97,119.81 L 163.24,121.39 L 163.44,122.87 L 163.57,124.26 L 163.64,125.55 L 163.64,126.76 L 163.58,127.88 L 163.44,128.92 L 163.23,129.90 L 162.95,130.81 L 162.60,131.68 L 162.18,132.52 L 161.69,133.33 L 161.13,134.14 L 160.50,134.95 L 159.80,135.79 L 159.03,136.66 L 158.21,137.57 L 157.32,138.55 L 156.37,139.61 L 155.36,140.75 L 154.30,141.98 L 153.19,143.32 L 152.03,144.76 L 150.83,146.32 L 149.58,148.00 L 148.30,149.80 L 146.99,151.71 L 145.65,153.73 L 144.28,155.86 L 142.89,158.09 L 141.48,160.41 L 140.05,162.80 L 138.62,165.25 L 137.18,167.75 L 135.73,170.28 L 134.29,172.82 L 132.84,175.35 L 131.41,177.86 L 129.98,180.31 L 128.56,182.70 L 127.16,185.00 L 125.78,187.19 L 124.41,189.25 L 123.06,191.16 L 121.74,192.91 L 120.44,194.48 L 119.16,195.86 L 117.90,197.03 L 116.67,198.00 L 115.47,198.74 L 114.29,199.25 L 113.13,199.54 L 112.00,199.60 L 110.89,199.43 L 109.80,199.05 L 108.74,198.45 L 107.69,197.66 L 106.66,196.67 L 105.64,195.51 L 104.64,194.20 L 103.65,192.75 L 102.67,191.17 L 101.70,189.50 L 100.73,187.75 L 99.76,185.94 L 98.79,184.11 L 97.82,182.26 L 96.84,180.43 L 95.85,178.62 L 94.86,176.87 L 93.85,175.20 L 92.83,173.61 L 91.79,172.13 L 90.73,170.77 L 89.65,169.54 L 88.56,168.45 L 87.44,167.51 L 86.29,166.72 L 85.13,166.09 L 83.93,165.61 L 82.72,165.28 L 81.47,165.10 L 80.21,165.05 L 78.92,165.14 L 77.60,165.33 L 76.26,165.63 L 74.91,166.02 L 73.53,166.48 L 72.14,166.98 L 70.73,167.52 L 69.31,168.08 L 67.87,168.63 L 66.44,169.15 L 64.99,169.62 L 63.55,170.03 L 62.10,170.37 L 60.66,170.60 L 59.23,170.72 L 57.82,170.71 L 56.42,170.56 L 55.04,170.26 L 53.68,169.80 L 52.35,169.18 L 51.05,168.40 L 49.79,167.44 L 48.57,166.32 L 47.38,165.03 L 46.25,163.58 L 45.16,161.97 L 44.13,160.23 L 43.15,158.34 L 42.23,156.34 L 41.37,154.22 L 40.58,152.01 L 39.84,149.72 L 39.18,147.36 L 38.58,144.95 L 38.05,142.51 L 37.60,140.05 L 37.21,137.59 L 36.90,135.14 L 36.66,132.71 L 36.48,130.31 L 36.38,127.97 L 36.35,125.68 L 36.39,123.45 L 36.49,121.29 L 36.66,119.21 L 36.89,117.21 L 37.18,115.28 L 37.53,113.43 L 37.93,111.65 L 38.39,109.94 L 38.90,108.29 L 39.45,106.71 L 40.04,105.16 L 40.67,103.66 L 41.34,102.19 L 42.04,100.73 L 42.77,99.27 L 43.52,97.81 L 44.29,96.34 L 45.07,94.84 L 45.87,93.29 L 46.67,91.71 L 47.48,90.06 L 48.30,88.35 L 49.10,86.57 L 49.91,84.72 L 50.71,82.79 L 51.49,80.79 L 52.26,78.71 L 53.02,76.55 L 53.76,74.32 L 54.48,72.03 L 55.17,69.69 L 55.85,67.29 L 56.50,64.86 L 57.12,62.41 L 57.73,59.95 L 58.30,57.49 L 58.86,55.05 L 59.39,52.64 L 59.89,50.28 L 60.37,47.99 L 60.83,45.78 L 61.27,43.66 L 61.70,41.66 L 62.11,39.77 L 62.50,38.03 L 62.88,36.42 L 63.25,34.97 L 63.62,33.68 L 63.98,32.56 L 64.34,31.60 L 64.71,30.82 L 65.08,30.20 L 65.45,29.74 L 65.84,29.44 L 66.25,29.29 L 66.67,29.28 L 67.11,29.40 L 67.57,29.63 L 68.06,29.97 L 68.58,30.38 L 69.12,30.85 L 69.70,31.37 L 70.32,31.92 L 70.97,32.48 L 71.67,33.02 L 72.40,33.52 L 73.17,33.98 L 73.99,34.37 L 74.84,34.67 L 75.74,34.86 L 76.69,34.95 L 77.68,34.90 L 78.71,34.72 L 79.78,34.39 L 80.89,33.91 L 82.04,33.28 L 83.23,32.49 L 84.46,31.55 L 85.72,30.46 L 87.02,29.23 L 88.34,27.87 L 89.69,26.39 L 91.06,24.80 L 92.46,23.13 L 93.87,21.38 L 95.30,19.57 L 96.74,17.74 L 98.19,15.89 L 99.64,14.06 L 101.09,12.25 L 102.54,10.50 L 103.98,8.83 L 105.42,7.25 L 106.84,5.80 L 108.24,4.49 L 109.63,3.33 L 110.99,2.34 L 112.33,1.55 L 113.63,0.95 L 114.91,0.57 L 116.16,0.40 L 117.37,0.46 L 118.54,0.75 L 119.67,1.26 L 120.76,2.00 L 121.81,2.97 L 122.82,4.14 L 123.79,5.52 L 124.71,7.09 L 125.59,8.84 L 126.43,10.75 L 127.22,12.81 L 127.97,15.00 L 128.69,17.30 L 129.36,19.69 L 129.99,22.14 L 130.59,24.65 L 131.15,27.18 L 131.69,29.72 L 132.19,32.25 L 132.67,34.75 L 133.12,37.20 L 133.55,39.59 L 133.96,41.91 L 134.35,44.14 L 134.74,46.27 L 135.11,48.29 L 135.47,50.20 L 135.84,52.00 L 136.20,53.68 L 136.56,55.24 L 136.93,56.68 L 137.31,58.02 L 137.70,59.25 L 138.10,60.39 L 138.51,61.45 L 138.94,62.43 L 139.39,63.34 L 139.87,64.21 L 140.36,65.05 L 140.88,65.86 L 141.42,66.67 L 141.98,67.48 L 142.57,68.32 L 143.19,69.19 L 143.82,70.10 L 144.49,71.08 L 145.17,72.12 L 145.88,73.24 L 146.61,74.45 L 147.36,75.74 L 148.12,77.13 L 148.90,78.61 L 149.69,80.19 L 150.49,81.86 L 151.30,83.61 L 152.11,85.46 L 152.92,87.38 L 153.73,89.37 L 154.53,91.42 L 155.32,93.52 L 156.10,95.66 L 156.86,97.82 L 157.60,100.00" fill="none" stroke="#0ff" stroke-width="1" /><path d="M 156.40,100.00 L 157.10,102.13 L 157.77,104.25 L 158.40,106.34 L 159.01,108.40 L 159.57,110.41 L 160.08,112.36 L 160.56,114.24 L 160.98,116.04 L 161.35,117.77 L 161.66,119.40 L 161.92,120.94 L 162.11,122.40 L 162.25,123.75 L 162.31,125.02 L 162.32,126.20 L 162.25,127.30 L 162.12,128.32 L 161.91,129.27 L 161.64,130.17 L 161.30,131.02 L 160.89,131.84 L 160.41,132.64 L 159.85,133.43 L 159.24,134.23 L 158.55,135.04 L 157.80,135.89 L 156.99,136.79 L 156.12,137.75 L 155.19,138.78 L 154.21,139.90 L 153.17,141.10 L 152.08,142.41 L 150.95,143.83 L 149.77,145.36 L 148.55,147.00 L 147.30,148.76 L 146.01,150.63 L 144.70,152.61 L 143.35,154.70 L 141.99,156.88 L 140.61,159.15 L 139.22,161.49 L 137.81,163.89 L 136.40,166.34 L 134.99,168.82 L 133.57,171.30 L 132.16,173.78 L 130.75,176.23 L 129.36,178.64 L 127.97,180.98 L 126.60,183.23 L 125.24,185.37 L 123.90,187.39 L 122.58,189.26 L 121.29,190.97 L 120.01,192.51 L 118.76,193.86 L 117.53,195.01 L 116.33,195.95 L 115.15,196.68 L 113.99,197.18 L 112.86,197.46 L 111.75,197.52 L 110.66,197.36 L 109.60,196.98 L 108.56,196.40 L 107.53,195.62 L 106.52,194.66 L 105.53,193.52 L 104.55,192.24 L 103.58,190.81 L 102.62,189.27 L 101.66,187.63 L 100.71,185.92 L 99.76,184.15 L 98.81,182.36 L 97.86,180.55 L 96.90,178.75 L 95.94,176.98 L 94.96,175.27 L 93.98,173.63 L 92.98,172.08 L 91.96,170.63 L 90.92,169.29 L 89.87,168.09 L 88.80,167.02 L 87.70,166.10 L 86.58,165.33 L 85.44,164.71 L 84.27,164.24 L 83.08,163.92 L 81.86,163.74 L 80.62,163.70 L 79.35,163.78 L 78.07,163.97 L 76.76,164.27 L 75.43,164.65 L 74.08,165.09 L 72.72,165.59 L 71.34,166.12 L 69.95,166.66 L 68.54,167.20 L 67.13,167.71 L 65.72,168.17 L 64.30,168.58 L 62.89,168.90 L 61.48,169.13 L 60.08,169.24 L 58.70,169.23 L 57.32,169.09 L 55.97,168.79 L 54.64,168.35 L 53.34,167.74 L 52.07,166.97 L 50.84,166.04 L 49.64,164.93 L 48.48,163.67 L 47.37,162.25 L 46.31,160.68 L 45.29,158.97 L 44.34,157.13 L 43.43,155.16 L 42.59,153.09 L 41.81,150.93 L 41.10,148.68 L 40.45,146.37 L 39.86,144.02 L 39.35,141.63 L 38.90,139.22 L 38.52,136.81 L 38.21,134.40 L 37.97,132.03 L 37.81,129.68 L 37.71,127.38 L 37.68,125.14 L 37.71,122.96 L 37.81,120.85 L 37.98,118.81 L 38.20,116.85 L 38.49,114.96 L 38.83,113.15 L 39.23,111.41 L 39.67,109.73 L 40.17,108.12 L 40.71,106.57 L 41.29,105.06 L 41.91,103.58 L 42.56,102.14 L 43.25,100.71 L 43.96,99.29 L 44.69,97.86 L 45.45,96.42 L 46.21,94.94 L 47.00,93.43 L 47.78,91.88 L 48.58,90.27 L 49.37,88.59 L 50.17,86.85 L 50.95,85.04 L 51.73,83.15 L 52.50,81.19 L 53.26,79.15 L 54.00,77.04 L 54.72,74.86 L 55.42,72.62 L 56.11,70.32 L 56.77,67.97 L 57.40,65.60 L 58.02,63.19 L 58.61,60.78 L 59.17,58.37 L 59.71,55.98 L 60.23,53.63 L 60.73,51.32 L 61.20,49.07 L 61.65,46.91 L 62.08,44.84 L 62.50,42.87 L 62.89,41.03 L 63.28,39.32 L 63.65,37.75 L 64.02,36.33 L 64.38,35.07 L 64.73,33.96 L 65.09,33.03 L 65.44,32.26 L 65.80,31.65 L 66.17,31.21 L 66.55,30.91 L 66.95,30.77 L 67.36,30.76 L 67.79,30.87 L 68.25,31.10 L 68.72,31.42 L 69.23,31.83 L 69.77,32.29 L 70.34,32.80 L 70.94,33.34 L 71.58,33.88 L 72.26,34.41 L 72.97,34.91 L 73.73,35.35 L 74.53,35.73 L 75.37,36.03 L 76.25,36.22 L 77.17,36.30 L 78.14,36.26 L 79.15,36.08 L 80.20,35.76 L 81.29,35.29 L 82.42,34.67 L 83.58,33.90 L 84.79,32.98 L 86.02,31.91 L 87.29,30.71 L 88.58,29.37 L 89.90,27.92 L 91.25,26.37 L 92.62,24.73 L 94.00,23.02 L 95.40,21.25 L 96.81,19.45 L 98.22,17.64 L 99.64,15.85 L 101.07,14.08 L 102.49,12.37 L 103.90,10.73 L 105.30,9.19 L 106.69,7.76 L 108.07,6.48 L 109.43,5.34 L 110.76,4.38 L 112.07,3.60 L 113.35,3.02 L 114.60,2.64 L 115.82,2.48 L 117.00,2.54 L 118.15,2.82 L 119.26,3.32 L 120.33,4.05 L 121.36,4.99 L 122.35,6.14 L 123.29,7.49 L 124.20,9.03 L 125.06,10.74 L 125.88,12.61 L 126.65,14.63 L 127.39,16.77 L 128.09,19.02 L 128.75,21.36 L 129.37,23.77 L 129.95,26.22 L 130.51,28.70 L 131.03,31.18 L 131.52,33.66 L 131.98,36.11 L 132.43,38.51 L 132.85,40.85 L 133.25,43.12 L 133.64,45.30 L 134.01,47.39 L 134.38,49.37 L 134.74,51.24 L 135.09,53.00 L 135.44,54.64 L 135.80,56.17 L 136.16,57.59 L 136.53,58.90 L 136.91,60.10 L 137.30,61.22 L 137.71,62.25 L 138.13,63.21 L 138.57,64.11 L 139.04,64.96 L 139.52,65.77 L 140.02,66.57 L 140.55,67.36 L 141.11,68.16 L 141.68,68.98 L 142.29,69.83 L 142.91,70.73 L 143.56,71.68 L 144.23,72.70 L 144.93,73.80 L 145.64,74.98 L 146.37,76.25 L 147.12,77.60 L 147.88,79.06 L 148.66,80.60 L 149.44,82.23 L 150.23,83.96 L 151.03,85.76 L 151.82,87.64 L 152.61,89.59 L 153.40,91.60 L 154.17,93.66 L 154.93,95.75 L 155.68,97.87 L 156.40,100.00" fill="none" stroke="#0ff" stroke-width="1" /><path d="M 155.20,100.00 L 155.88,102.09 L 156.54,104.16 L 157.16,106.21 L 157.75,108.22 L 158.30,110.19 L 158.81,112.09 L 159.27,113.94 L 159.68,115.70 L 160.04,117.39 L 160.35,118.99 L 160.60,120.50 L 160.79,121.92 L 160.92,123.25 L 160.99,124.49 L 160.99,125.64 L 160.93,126.72 L 160.80,127.72 L 160.60,128.65 L 160.33,129.53 L 160.00,130.36 L 159.59,131.17 L 159.12,131.95 L 158.58,132.72 L 157.98,133.50 L 157.31,134.30 L 156.57,135.13 L 155.78,136.01 L 154.93,136.95 L 154.02,137.96 L 153.05,139.05 L 152.04,140.23 L 150.97,141.51 L 149.86,142.90 L 148.71,144.39 L 147.52,146.00 L 146.29,147.72 L 145.03,149.55 L 143.74,151.49 L 142.43,153.53 L 141.10,155.67 L 139.75,157.89 L 138.38,160.18 L 137.01,162.53 L 135.63,164.93 L 134.24,167.35 L 132.86,169.79 L 131.48,172.21 L 130.10,174.61 L 128.73,176.97 L 127.37,179.25 L 126.03,181.46 L 124.70,183.55 L 123.39,185.53 L 122.10,187.36 L 120.83,189.04 L 119.58,190.54 L 118.36,191.87 L 117.16,192.99 L 115.98,193.91 L 114.82,194.62 L 113.69,195.12 L 112.59,195.39 L 111.50,195.45 L 110.44,195.29 L 109.40,194.92 L 108.37,194.35 L 107.37,193.59 L 106.38,192.64 L 105.41,191.53 L 104.45,190.27 L 103.50,188.88 L 102.56,187.37 L 101.63,185.77 L 100.70,184.09 L 99.77,182.36 L 98.84,180.60 L 97.91,178.83 L 96.97,177.07 L 96.03,175.35 L 95.07,173.67 L 94.11,172.06 L 93.13,170.54 L 92.13,169.12 L 91.12,167.82 L 90.09,166.64 L 89.03,165.60 L 87.96,164.70 L 86.86,163.94 L 85.74,163.34 L 84.60,162.88 L 83.44,162.56 L 82.25,162.39 L 81.03,162.34 L 79.79,162.42 L 78.53,162.61 L 77.25,162.90 L 75.95,163.27 L 74.63,163.71 L 73.30,164.19 L 71.95,164.71 L 70.59,165.24 L 69.21,165.77 L 67.83,166.27 L 66.45,166.72 L 65.06,167.12 L 63.68,167.43 L 62.30,167.66 L 60.93,167.77 L 59.57,167.76 L 58.23,167.62 L 56.91,167.33 L 55.61,166.89 L 54.33,166.30 L 53.09,165.55 L 51.88,164.63 L 50.71,163.55 L 49.58,162.32 L 48.49,160.93 L 47.45,159.39 L 46.46,157.72 L 45.52,155.91 L 44.64,153.99 L 43.81,151.96 L 43.05,149.84 L 42.35,147.65 L 41.71,145.39 L 41.14,143.08 L 40.64,140.74 L 40.20,138.38 L 39.83,136.02 L 39.53,133.67 L 39.29,131.34 L 39.13,129.05 L 39.03,126.80 L 39.00,124.61 L 39.04,122.47 L 39.13,120.41 L 39.30,118.41 L 39.52,116.49 L 39.80,114.64 L 40.13,112.87 L 40.52,111.16 L 40.96,109.53 L 41.44,107.95 L 41.97,106.43 L 42.54,104.95 L 43.15,103.51 L 43.79,102.09 L 44.46,100.70 L 45.15,99.30 L 45.87,97.91 L 46.61,96.49 L 47.36,95.05 L 48.12,93.57 L 48.89,92.05 L 49.67,90.47 L 50.45,88.84 L 51.23,87.13 L 52.00,85.36 L 52.76,83.51 L 53.51,81.59 L 54.25,79.59 L 54.98,77.53 L 55.68,75.39 L 56.37,73.20 L 57.04,70.95 L 57.69,68.66 L 58.31,66.33 L 58.91,63.98 L 59.49,61.62 L 60.04,59.26 L 60.57,56.92 L 61.08,54.61 L 61.56,52.35 L 62.02,50.16 L 62.47,48.04 L 62.89,46.01 L 63.29,44.09 L 63.68,42.28 L 64.06,40.61 L 64.43,39.07 L 64.78,37.68 L 65.14,36.45 L 65.48,35.37 L 65.83,34.45 L 66.18,33.70 L 66.53,33.11 L 66.89,32.67 L 67.27,32.38 L 67.65,32.24 L 68.05,32.23 L 68.48,32.34 L 68.92,32.57 L 69.39,32.88 L 69.88,33.28 L 70.41,33.73 L 70.97,34.23 L 71.56,34.76 L 72.18,35.29 L 72.85,35.81 L 73.55,36.29 L 74.29,36.73 L 75.07,37.10 L 75.89,37.39 L 76.76,37.58 L 77.66,37.66 L 78.61,37.61 L 79.59,37.44 L 80.62,37.12 L 81.69,36.66 L 82.79,36.06 L 83.93,35.30 L 85.11,34.40 L 86.32,33.36 L 87.56,32.18 L 88.83,30.88 L 90.12,29.46 L 91.44,27.94 L 92.77,26.33 L 94.13,24.65 L 95.50,22.93 L 96.87,21.17 L 98.26,19.40 L 99.65,17.64 L 101.04,15.91 L 102.43,14.23 L 103.82,12.63 L 105.19,11.12 L 106.55,9.73 L 107.90,8.47 L 109.23,7.36 L 110.53,6.41 L 111.81,5.65 L 113.07,5.08 L 114.29,4.71 L 115.48,4.55 L 116.64,4.61 L 117.76,4.88 L 118.85,5.38 L 119.90,6.09 L 120.90,7.01 L 121.87,8.13 L 122.80,9.46 L 123.68,10.96 L 124.52,12.64 L 125.33,14.47 L 126.09,16.45 L 126.81,18.54 L 127.49,20.75 L 128.13,23.03 L 128.74,25.39 L 129.32,27.79 L 129.86,30.21 L 130.37,32.65 L 130.85,35.07 L 131.30,37.47 L 131.74,39.82 L 132.15,42.11 L 132.54,44.33 L 132.92,46.47 L 133.29,48.51 L 133.65,50.45 L 134.00,52.28 L 134.34,54.00 L 134.69,55.61 L 135.04,57.10 L 135.39,58.49 L 135.75,59.77 L 136.13,60.95 L 136.51,62.04 L 136.91,63.05 L 137.32,63.99 L 137.75,64.87 L 138.21,65.70 L 138.68,66.50 L 139.17,67.28 L 139.69,68.05 L 140.23,68.83 L 140.80,69.64 L 141.39,70.47 L 142.00,71.35 L 142.63,72.28 L 143.29,73.28 L 143.97,74.36 L 144.67,75.51 L 145.38,76.75 L 146.12,78.08 L 146.86,79.50 L 147.62,81.01 L 148.39,82.61 L 149.16,84.30 L 149.94,86.06 L 150.72,87.91 L 151.49,89.81 L 152.26,91.78 L 153.02,93.79 L 153.76,95.84 L 154.49,97.91 L 155.20,100.00" fill="none" stroke="#0ff" stroke-width="1" /><path d="M 154.00,100.00 L 154.67,102.04 L 155.31,104.07 L 155.92,106.07 L 156.49,108.04 L 157.03,109.96 L 157.53,111.83 L 157.98,113.63 L 158.38,115.36 L 158.74,117.01 L 159.04,118.58 L 159.28,120.05 L 159.47,121.44 L 159.60,122.74 L 159.66,123.96 L 159.67,125.08 L 159.60,126.14 L 159.47,127.11 L 159.28,128.03 L 159.02,128.89 L 158.69,129.70 L 158.30,130.49 L 157.83,131.25 L 157.31,132.01 L 156.72,132.77 L 156.06,133.55 L 155.34,134.37 L 154.57,135.23 L 153.73,136.14 L 152.84,137.13 L 151.90,138.20 L 150.91,139.36 L 149.86,140.61 L 148.78,141.96 L 147.65,143.43 L 146.49,145.00 L 145.28,146.68 L 144.05,148.48 L 142.79,150.37 L 141.51,152.37 L 140.21,154.46 L 138.88,156.63 L 137.55,158.87 L 136.21,161.17 L 134.85,163.52 L 133.50,165.89 L 132.14,168.27 L 130.79,170.64 L 129.44,172.99 L 128.11,175.29 L 126.78,177.53 L 125.47,179.68 L 124.17,181.74 L 122.89,183.67 L 121.62,185.46 L 120.38,187.10 L 119.16,188.58 L 117.96,189.87 L 116.78,190.97 L 115.63,191.87 L 114.50,192.56 L 113.39,193.05 L 112.31,193.32 L 111.25,193.37 L 110.21,193.22 L 109.19,192.86 L 108.19,192.30 L 107.21,191.55 L 106.24,190.63 L 105.29,189.54 L 104.35,188.31 L 103.42,186.95 L 102.50,185.47 L 101.59,183.91 L 100.68,182.27 L 99.77,180.57 L 98.86,178.85 L 97.95,177.12 L 97.04,175.40 L 96.11,173.71 L 95.18,172.07 L 94.23,170.50 L 93.28,169.01 L 92.30,167.62 L 91.31,166.35 L 90.30,165.19 L 89.27,164.17 L 88.22,163.29 L 87.15,162.55 L 86.05,161.96 L 84.94,161.51 L 83.80,161.20 L 82.63,161.03 L 81.44,160.99 L 80.23,161.06 L 79.00,161.25 L 77.75,161.53 L 76.48,161.89 L 75.19,162.32 L 73.88,162.80 L 72.56,163.30 L 71.23,163.82 L 69.88,164.34 L 68.53,164.83 L 67.18,165.27 L 65.82,165.66 L 64.47,165.97 L 63.12,166.18 L 61.78,166.30 L 60.45,166.29 L 59.14,166.15 L 57.85,165.87 L 56.57,165.44 L 55.33,164.86 L 54.11,164.12 L 52.93,163.23 L 51.78,162.17 L 50.67,160.96 L 49.61,159.60 L 48.59,158.10 L 47.62,156.46 L 46.70,154.70 L 45.84,152.82 L 45.04,150.83 L 44.29,148.76 L 43.60,146.61 L 42.98,144.40 L 42.42,142.14 L 41.93,139.86 L 41.50,137.55 L 41.14,135.24 L 40.84,132.94 L 40.61,130.66 L 40.45,128.42 L 40.36,126.22 L 40.33,124.07 L 40.36,121.98 L 40.46,119.96 L 40.62,118.01 L 40.83,116.13 L 41.11,114.32 L 41.43,112.59 L 41.81,110.92 L 42.24,109.32 L 42.71,107.78 L 43.23,106.29 L 43.79,104.84 L 44.38,103.43 L 45.01,102.05 L 45.66,100.68 L 46.34,99.32 L 47.05,97.95 L 47.77,96.57 L 48.50,95.16 L 49.25,93.71 L 50.01,92.22 L 50.77,90.68 L 51.53,89.08 L 52.29,87.41 L 53.04,85.68 L 53.79,83.87 L 54.52,81.99 L 55.25,80.04 L 55.96,78.02 L 56.65,75.93 L 57.32,73.78 L 57.97,71.58 L 58.61,69.34 L 59.22,67.06 L 59.80,64.76 L 60.37,62.45 L 60.91,60.14 L 61.43,57.86 L 61.92,55.60 L 62.40,53.39 L 62.85,51.24 L 63.28,49.17 L 63.70,47.18 L 64.09,45.30 L 64.47,43.54 L 64.84,41.90 L 65.20,40.40 L 65.55,39.04 L 65.89,37.83 L 66.23,36.77 L 66.57,35.88 L 66.91,35.14 L 67.26,34.56 L 67.61,34.13 L 67.98,33.85 L 68.36,33.71 L 68.75,33.70 L 69.16,33.82 L 69.60,34.03 L 70.05,34.34 L 70.54,34.73 L 71.05,35.17 L 71.60,35.66 L 72.18,36.18 L 72.79,36.70 L 73.44,37.20 L 74.12,37.68 L 74.85,38.11 L 75.61,38.47 L 76.42,38.75 L 77.26,38.94 L 78.15,39.01 L 79.07,38.97 L 80.04,38.80 L 81.04,38.49 L 82.09,38.04 L 83.17,37.45 L 84.28,36.71 L 85.43,35.83 L 86.62,34.81 L 87.83,33.65 L 89.07,32.38 L 90.33,30.99 L 91.62,29.50 L 92.93,27.93 L 94.25,26.29 L 95.59,24.60 L 96.94,22.88 L 98.30,21.15 L 99.66,19.43 L 101.02,17.73 L 102.38,16.09 L 103.73,14.53 L 105.08,13.05 L 106.41,11.69 L 107.73,10.46 L 109.02,9.37 L 110.30,8.45 L 111.56,7.70 L 112.78,7.14 L 113.98,6.78 L 115.15,6.63 L 116.28,6.68 L 117.38,6.95 L 118.44,7.44 L 119.47,8.13 L 120.45,9.03 L 121.40,10.13 L 122.30,11.42 L 123.17,12.90 L 123.99,14.54 L 124.78,16.33 L 125.52,18.26 L 126.23,20.32 L 126.89,22.47 L 127.52,24.71 L 128.12,27.01 L 128.68,29.36 L 129.21,31.73 L 129.71,34.11 L 130.18,36.48 L 130.62,38.83 L 131.05,41.13 L 131.45,43.37 L 131.84,45.54 L 132.21,47.63 L 132.56,49.63 L 132.91,51.52 L 133.26,53.32 L 133.60,55.00 L 133.94,56.57 L 134.28,58.04 L 134.62,59.39 L 134.98,60.64 L 135.34,61.80 L 135.72,62.87 L 136.10,63.86 L 136.51,64.77 L 136.93,65.63 L 137.37,66.45 L 137.84,67.23 L 138.32,67.99 L 138.83,68.75 L 139.36,69.51 L 139.91,70.30 L 140.49,71.11 L 141.09,71.97 L 141.71,72.89 L 142.35,73.86 L 143.01,74.92 L 143.70,76.04 L 144.40,77.26 L 145.11,78.56 L 145.84,79.95 L 146.59,81.42 L 147.34,82.99 L 148.09,84.64 L 148.85,86.37 L 149.61,88.17 L 150.37,90.04 L 151.12,91.96 L 151.87,93.93 L 152.60,95.93 L 153.31,97.96 L 154.00,100.00" fill="none" stroke="#0ff" stroke-width="1" /><path d="M 152.80,100.00 L 153.45,102.00 L 154.08,103.98 L 154.68,105.94 L 155.24,107.86 L 155.76,109.74 L 156.25,111.57 L 156.69,113.33 L 157.09,115.02 L 157.43,116.63 L 157.73,118.16 L 157.97,119.61 L 158.15,120.97 L 158.27,122.24 L 158.34,123.42 L 158.34,124.53 L 158.28,125.55 L 158.15,126.51 L 157.96,127.41 L 157.71,128.25 L 157.39,129.04 L 157.00,129.81 L 156.55,130.56 L 156.03,131.30 L 155.46,132.04 L 154.82,132.81 L 154.11,133.60 L 153.36,134.44 L 152.54,135.34 L 151.67,136.31 L 150.75,137.35 L 149.77,138.48 L 148.76,139.71 L 147.69,141.03 L 146.59,142.46 L 145.45,144.00 L 144.28,145.65 L 143.07,147.40 L 141.84,149.25 L 140.59,151.21 L 139.31,153.25 L 138.02,155.37 L 136.72,157.56 L 135.40,159.81 L 134.08,162.10 L 132.75,164.42 L 131.43,166.75 L 130.11,169.07 L 128.79,171.37 L 127.48,173.62 L 126.18,175.81 L 124.90,177.91 L 123.63,179.92 L 122.38,181.81 L 121.14,183.56 L 119.93,185.17 L 118.73,186.61 L 117.56,187.87 L 116.41,188.95 L 115.28,189.83 L 114.18,190.51 L 113.10,190.98 L 112.04,191.24 L 111.00,191.30 L 109.98,191.15 L 108.99,190.79 L 108.01,190.25 L 107.05,189.52 L 106.10,188.62 L 105.17,187.56 L 104.26,186.35 L 103.35,185.02 L 102.45,183.57 L 101.56,182.04 L 100.67,180.44 L 99.78,178.78 L 98.89,177.10 L 98.00,175.41 L 97.10,173.72 L 96.20,172.07 L 95.29,170.47 L 94.36,168.93 L 93.43,167.48 L 92.47,166.12 L 91.50,164.87 L 90.52,163.74 L 89.51,162.75 L 88.48,161.88 L 87.44,161.16 L 86.36,160.58 L 85.27,160.14 L 84.16,159.84 L 83.02,159.67 L 81.86,159.63 L 80.67,159.71 L 79.47,159.89 L 78.24,160.16 L 77.00,160.52 L 75.74,160.94 L 74.46,161.40 L 73.17,161.90 L 71.86,162.41 L 70.55,162.91 L 69.23,163.38 L 67.91,163.82 L 66.58,164.20 L 65.26,164.50 L 63.94,164.71 L 62.63,164.82 L 61.33,164.81 L 60.05,164.68 L 58.78,164.40 L 57.54,163.99 L 56.32,163.42 L 55.13,162.70 L 53.97,161.82 L 52.85,160.79 L 51.77,159.61 L 50.73,158.28 L 49.73,156.81 L 48.79,155.21 L 47.89,153.48 L 47.05,151.64 L 46.26,149.70 L 45.53,147.68 L 44.86,145.58 L 44.25,143.41 L 43.70,141.21 L 43.22,138.97 L 42.80,136.72 L 42.44,134.46 L 42.16,132.21 L 41.93,129.98 L 41.78,127.79 L 41.68,125.64 L 41.65,123.54 L 41.69,121.50 L 41.78,119.52 L 41.94,117.61 L 42.15,115.77 L 42.41,114.00 L 42.73,112.31 L 43.11,110.68 L 43.52,109.11 L 43.99,107.60 L 44.49,106.15 L 45.04,104.73 L 45.62,103.36 L 46.23,102.00 L 46.87,100.67 L 47.54,99.33 L 48.22,98.00 L 48.93,96.64 L 49.65,95.27 L 50.38,93.85 L 51.12,92.40 L 51.86,90.89 L 52.60,89.32 L 53.35,87.69 L 54.08,86.00 L 54.81,84.23 L 55.53,82.39 L 56.24,80.48 L 56.93,78.50 L 57.61,76.46 L 58.27,74.36 L 58.91,72.21 L 59.53,70.02 L 60.12,67.79 L 60.70,65.54 L 61.25,63.28 L 61.78,61.03 L 62.29,58.79 L 62.77,56.59 L 63.23,54.42 L 63.67,52.32 L 64.10,50.30 L 64.50,48.36 L 64.89,46.52 L 65.26,44.79 L 65.62,43.19 L 65.97,41.72 L 66.32,40.39 L 66.65,39.21 L 66.98,38.18 L 67.32,37.30 L 67.65,36.58 L 67.99,36.01 L 68.33,35.60 L 68.69,35.32 L 69.06,35.19 L 69.44,35.18 L 69.85,35.29 L 70.27,35.50 L 70.72,35.80 L 71.19,36.18 L 71.70,36.62 L 72.23,37.09 L 72.79,37.59 L 73.39,38.10 L 74.03,38.60 L 74.70,39.06 L 75.41,39.48 L 76.15,39.84 L 76.94,40.11 L 77.77,40.29 L 78.63,40.37 L 79.54,40.33 L 80.48,40.16 L 81.46,39.86 L 82.48,39.42 L 83.54,38.84 L 84.63,38.12 L 85.76,37.25 L 86.91,36.26 L 88.10,35.13 L 89.31,33.88 L 90.55,32.52 L 91.81,31.07 L 93.09,29.53 L 94.38,27.93 L 95.69,26.28 L 97.01,24.59 L 98.34,22.90 L 99.67,21.22 L 101.00,19.56 L 102.33,17.96 L 103.65,16.43 L 104.96,14.98 L 106.27,13.65 L 107.55,12.44 L 108.82,11.38 L 110.07,10.48 L 111.30,9.75 L 112.50,9.21 L 113.67,8.85 L 114.81,8.70 L 115.92,8.76 L 116.99,9.02 L 118.03,9.49 L 119.03,10.17 L 120.00,11.05 L 120.92,12.13 L 121.81,13.39 L 122.65,14.83 L 123.46,16.44 L 124.23,18.19 L 124.95,20.08 L 125.64,22.09 L 126.29,24.19 L 126.91,26.38 L 127.49,28.63 L 128.04,30.93 L 128.56,33.25 L 129.05,35.58 L 129.51,37.90 L 129.94,40.19 L 130.36,42.44 L 130.75,44.63 L 131.13,46.75 L 131.49,48.79 L 131.84,50.75 L 132.18,52.60 L 132.52,54.35 L 132.85,56.00 L 133.18,57.54 L 133.52,58.97 L 133.85,60.29 L 134.20,61.52 L 134.55,62.65 L 134.92,63.69 L 135.30,64.66 L 135.70,65.56 L 136.11,66.40 L 136.54,67.19 L 137.00,67.96 L 137.47,68.70 L 137.97,69.44 L 138.48,70.19 L 139.02,70.96 L 139.59,71.75 L 140.17,72.59 L 140.78,73.49 L 141.41,74.45 L 142.06,75.47 L 142.73,76.58 L 143.41,77.76 L 144.11,79.03 L 144.83,80.39 L 145.55,81.84 L 146.28,83.37 L 147.02,84.98 L 147.77,86.67 L 148.51,88.43 L 149.25,90.26 L 149.99,92.14 L 150.71,94.06 L 151.43,96.02 L 152.12,98.00 L 152.80,100.00" fill="none" stroke="#0ff" stroke-width="1" /><path d="M 151.60,100.00 L 152.24,101.95 L 152.85,103.89 L 153.43,105.80 L 153.98,107.68 L 154.50,109.52 L 154.97,111.31 L 155.40,113.03 L 155.79,114.68 L 156.13,116.25 L 156.41,117.75 L 156.65,119.16 L 156.83,120.49 L 156.95,121.73 L 157.01,122.89 L 157.01,123.97 L 156.95,124.97 L 156.83,125.91 L 156.65,126.78 L 156.40,127.60 L 156.08,128.38 L 155.71,129.13 L 155.26,129.86 L 154.76,130.58 L 154.20,131.31 L 153.57,132.06 L 152.89,132.84 L 152.14,133.66 L 151.35,134.54 L 150.49,135.48 L 149.59,136.50 L 148.64,137.61 L 147.65,138.80 L 146.61,140.10 L 145.53,141.50 L 144.42,143.00 L 143.27,144.61 L 142.10,146.32 L 140.89,148.13 L 139.67,150.04 L 138.42,152.04 L 137.16,154.11 L 135.88,156.26 L 134.60,158.45 L 133.30,160.69 L 132.01,162.96 L 130.72,165.23 L 129.42,167.50 L 128.14,169.75 L 126.86,171.95 L 125.59,174.08 L 124.33,176.14 L 123.09,178.10 L 121.87,179.95 L 120.66,181.66 L 119.47,183.23 L 118.31,184.64 L 117.16,185.87 L 116.04,186.93 L 114.94,187.79 L 113.86,188.45 L 112.80,188.91 L 111.76,189.17 L 110.75,189.22 L 109.76,189.07 L 108.78,188.73 L 107.83,188.20 L 106.89,187.48 L 105.97,186.60 L 105.06,185.57 L 104.16,184.39 L 103.27,183.08 L 102.39,181.67 L 101.52,180.18 L 100.65,178.61 L 99.78,176.99 L 98.91,175.35 L 98.04,173.69 L 97.17,172.05 L 96.29,170.43 L 95.39,168.87 L 94.49,167.36 L 93.57,165.94 L 92.64,164.62 L 91.70,163.40 L 90.73,162.30 L 89.75,161.32 L 88.75,160.48 L 87.72,159.77 L 86.67,159.20 L 85.61,158.77 L 84.52,158.48 L 83.40,158.32 L 82.27,158.28 L 81.11,158.35 L 79.93,158.53 L 78.74,158.80 L 77.52,159.14 L 76.29,159.55 L 75.04,160.01 L 73.78,160.49 L 72.50,160.99 L 71.22,161.48 L 69.93,161.94 L 68.64,162.37 L 67.34,162.74 L 66.05,163.04 L 64.76,163.24 L 63.48,163.35 L 62.21,163.34 L 60.96,163.21 L 59.72,162.94 L 58.50,162.53 L 57.31,161.98 L 56.15,161.27 L 55.02,160.42 L 53.92,159.41 L 52.87,158.25 L 51.85,156.95 L 50.88,155.52 L 49.95,153.95 L 49.07,152.27 L 48.25,150.47 L 47.48,148.57 L 46.77,146.59 L 46.11,144.54 L 45.51,142.43 L 44.98,140.27 L 44.51,138.08 L 44.10,135.88 L 43.75,133.67 L 43.47,131.48 L 43.25,129.30 L 43.10,127.16 L 43.01,125.05 L 42.98,123.00 L 43.01,121.01 L 43.10,119.07 L 43.25,117.21 L 43.46,115.41 L 43.72,113.69 L 44.04,112.03 L 44.40,110.43 L 44.81,108.90 L 45.26,107.43 L 45.75,106.01 L 46.29,104.63 L 46.85,103.28 L 47.45,101.96 L 48.08,100.65 L 48.73,99.35 L 49.40,98.04 L 50.09,96.72 L 50.79,95.37 L 51.51,93.99 L 52.23,92.57 L 52.95,91.10 L 53.68,89.57 L 54.41,87.97 L 55.13,86.31 L 55.84,84.59 L 56.54,82.79 L 57.24,80.93 L 57.91,78.99 L 58.57,77.00 L 59.22,74.95 L 59.84,72.84 L 60.45,70.70 L 61.03,68.52 L 61.59,66.33 L 62.13,64.12 L 62.65,61.92 L 63.14,59.73 L 63.62,57.57 L 64.07,55.46 L 64.50,53.41 L 64.91,51.43 L 65.31,49.53 L 65.69,47.73 L 66.05,46.05 L 66.41,44.48 L 66.75,43.05 L 67.08,41.75 L 67.41,40.59 L 67.73,39.58 L 68.06,38.73 L 68.38,38.02 L 68.71,37.47 L 69.05,37.06 L 69.40,36.79 L 69.76,36.66 L 70.14,36.65 L 70.53,36.76 L 70.95,36.96 L 71.39,37.26 L 71.85,37.63 L 72.34,38.06 L 72.86,38.52 L 73.41,39.01 L 74.00,39.51 L 74.62,39.99 L 75.27,40.45 L 75.97,40.86 L 76.70,41.20 L 77.46,41.47 L 78.27,41.65 L 79.12,41.72 L 80.00,41.68 L 80.92,41.52 L 81.88,41.23 L 82.88,40.80 L 83.91,40.23 L 84.98,39.52 L 86.08,38.68 L 87.21,37.70 L 88.37,36.60 L 89.55,35.38 L 90.76,34.06 L 91.99,32.64 L 93.24,31.13 L 94.51,29.57 L 95.79,27.95 L 97.08,26.31 L 98.37,24.65 L 99.67,23.01 L 100.98,21.39 L 102.27,19.82 L 103.57,18.33 L 104.85,16.92 L 106.12,15.61 L 107.38,14.43 L 108.62,13.40 L 109.84,12.52 L 111.04,11.80 L 112.21,11.27 L 113.36,10.93 L 114.47,10.78 L 115.56,10.83 L 116.61,11.09 L 117.62,11.55 L 118.60,12.21 L 119.54,13.07 L 120.45,14.13 L 121.31,15.36 L 122.14,16.77 L 122.93,18.34 L 123.67,20.05 L 124.39,21.90 L 125.06,23.86 L 125.70,25.92 L 126.30,28.05 L 126.87,30.25 L 127.40,32.50 L 127.91,34.77 L 128.39,37.04 L 128.84,39.31 L 129.26,41.55 L 129.67,43.74 L 130.05,45.89 L 130.42,47.96 L 130.77,49.96 L 131.12,51.87 L 131.45,53.68 L 131.78,55.39 L 132.10,57.00 L 132.43,58.50 L 132.75,59.90 L 133.08,61.20 L 133.42,62.39 L 133.77,63.50 L 134.13,64.52 L 134.50,65.46 L 134.89,66.34 L 135.29,67.16 L 135.71,67.94 L 136.16,68.69 L 136.62,69.42 L 137.10,70.14 L 137.61,70.87 L 138.14,71.62 L 138.69,72.40 L 139.26,73.22 L 139.85,74.09 L 140.47,75.03 L 141.10,76.03 L 141.75,77.11 L 142.42,78.27 L 143.11,79.51 L 143.81,80.84 L 144.52,82.25 L 145.23,83.75 L 145.96,85.32 L 146.68,86.97 L 147.41,88.69 L 148.13,90.48 L 148.85,92.32 L 149.56,94.20 L 150.26,96.11 L 150.94,98.05 L 151.60,100.00" fill="none" stroke="#0ff" stroke-width="1" /><path d="M 150.40,100.00 L 151.02,101.90 L 151.62,103.80 L 152.19,105.67 L 152.73,107.51 L 153.23,109.30 L 153.69,111.04 L 154.11,112.72 L 154.49,114.34 L 154.82,115.88 L 155.10,117.34 L 155.33,118.72 L 155.51,120.01 L 155.62,121.23 L 155.69,122.36 L 155.69,123.41 L 155.63,124.39 L 155.51,125.31 L 155.33,126.16 L 155.08,126.96 L 154.78,127.72 L 154.41,128.46 L 153.98,129.17 L 153.49,129.87 L 152.94,130.59 L 152.32,131.31 L 151.66,132.07 L 150.93,132.88 L 150.15,133.73 L 149.32,134.66 L 148.44,135.65 L 147.51,136.73 L 146.54,137.90 L 145.53,139.17 L 144.47,140.53 L 143.39,142.00 L 142.27,143.57 L 141.12,145.24 L 139.94,147.02 L 138.74,148.88 L 137.53,150.83 L 136.29,152.85 L 135.05,154.95 L 133.79,157.09 L 132.53,159.28 L 131.27,161.49 L 130.00,163.72 L 128.74,165.93 L 127.48,168.12 L 126.23,170.27 L 124.99,172.36 L 123.77,174.37 L 122.56,176.29 L 121.36,178.09 L 120.18,179.76 L 119.02,181.30 L 117.88,182.67 L 116.76,183.88 L 115.66,184.90 L 114.59,185.75 L 113.53,186.39 L 112.50,186.84 L 111.49,187.10 L 110.50,187.15 L 109.53,187.00 L 108.58,186.67 L 107.65,186.15 L 106.73,185.45 L 105.83,184.59 L 104.94,183.58 L 104.06,182.42 L 103.20,181.15 L 102.34,179.77 L 101.48,178.31 L 100.64,176.78 L 99.79,175.20 L 98.94,173.59 L 98.09,171.98 L 97.23,170.37 L 96.37,168.80 L 95.50,167.26 L 94.62,165.80 L 93.72,164.41 L 92.81,163.11 L 91.89,161.92 L 90.95,160.85 L 89.99,159.89 L 89.01,159.07 L 88.01,158.38 L 86.98,157.83 L 85.94,157.41 L 84.88,157.12 L 83.79,156.96 L 82.68,156.92 L 81.55,156.99 L 80.40,157.17 L 79.23,157.43 L 78.04,157.77 L 76.84,158.17 L 75.62,158.61 L 74.39,159.08 L 73.14,159.57 L 71.89,160.05 L 70.63,160.50 L 69.37,160.92 L 68.10,161.28 L 66.84,161.57 L 65.58,161.77 L 64.33,161.88 L 63.09,161.87 L 61.86,161.74 L 60.66,161.48 L 59.47,161.08 L 58.31,160.53 L 57.17,159.85 L 56.07,159.01 L 55.00,158.03 L 53.96,156.90 L 52.97,155.63 L 52.02,154.23 L 51.11,152.70 L 50.26,151.05 L 49.45,149.29 L 48.70,147.44 L 48.00,145.51 L 47.36,143.50 L 46.78,141.44 L 46.26,139.33 L 45.80,137.20 L 45.40,135.05 L 45.06,132.89 L 44.79,130.74 L 44.57,128.62 L 44.42,126.52 L 44.33,124.47 L 44.31,122.47 L 44.34,120.52 L 44.43,118.63 L 44.57,116.81 L 44.78,115.05 L 45.03,113.37 L 45.34,111.75 L 45.69,110.19 L 46.09,108.70 L 46.53,107.26 L 47.02,105.87 L 47.54,104.52 L 48.09,103.20 L 48.67,101.91 L 49.29,100.64 L 49.92,99.36 L 50.58,98.09 L 51.25,96.80 L 51.94,95.48 L 52.63,94.13 L 53.34,92.74 L 54.05,91.30 L 54.76,89.81 L 55.47,88.25 L 56.17,86.63 L 56.87,84.95 L 57.55,83.19 L 58.23,81.37 L 58.89,79.48 L 59.54,77.53 L 60.17,75.53 L 60.78,73.48 L 61.37,71.38 L 61.94,69.26 L 62.48,67.11 L 63.01,64.95 L 63.52,62.80 L 64.00,60.67 L 64.46,58.56 L 64.90,56.50 L 65.33,54.49 L 65.73,52.56 L 66.12,50.71 L 66.49,48.95 L 66.84,47.30 L 67.19,45.77 L 67.52,44.37 L 67.85,43.10 L 68.17,41.97 L 68.48,40.99 L 68.80,40.15 L 69.12,39.47 L 69.44,38.92 L 69.77,38.52 L 70.11,38.26 L 70.47,38.13 L 70.83,38.12 L 71.22,38.23 L 71.62,38.43 L 72.05,38.72 L 72.50,39.08 L 72.98,39.50 L 73.49,39.95 L 74.03,40.43 L 74.60,40.92 L 75.21,41.39 L 75.85,41.83 L 76.52,42.23 L 77.24,42.57 L 77.99,42.83 L 78.78,43.01 L 79.60,43.08 L 80.47,43.04 L 81.37,42.88 L 82.31,42.59 L 83.28,42.17 L 84.29,41.62 L 85.33,40.93 L 86.40,40.11 L 87.51,39.15 L 88.64,38.08 L 89.80,36.89 L 90.98,35.59 L 92.18,34.20 L 93.40,32.74 L 94.64,31.20 L 95.89,29.63 L 97.15,28.02 L 98.41,26.41 L 99.68,24.80 L 100.95,23.22 L 102.22,21.69 L 103.48,20.23 L 104.74,18.85 L 105.98,17.58 L 107.21,16.42 L 108.42,15.41 L 109.61,14.55 L 110.78,13.85 L 111.93,13.33 L 113.05,13.00 L 114.14,12.85 L 115.19,12.90 L 116.22,13.16 L 117.21,13.61 L 118.17,14.25 L 119.09,15.10 L 119.97,16.12 L 120.82,17.33 L 121.62,18.70 L 122.39,20.24 L 123.12,21.91 L 123.82,23.71 L 124.48,25.63 L 125.10,27.64 L 125.69,29.73 L 126.24,31.88 L 126.77,34.07 L 127.26,36.28 L 127.73,38.51 L 128.17,40.72 L 128.58,42.91 L 128.98,45.05 L 129.35,47.15 L 129.71,49.17 L 130.06,51.12 L 130.39,52.98 L 130.72,54.76 L 131.04,56.43 L 131.36,58.00 L 131.67,59.47 L 131.99,60.83 L 132.32,62.10 L 132.65,63.27 L 132.98,64.35 L 133.33,65.34 L 133.70,66.27 L 134.08,67.12 L 134.47,67.93 L 134.88,68.69 L 135.31,69.41 L 135.77,70.13 L 136.24,70.83 L 136.73,71.54 L 137.25,72.28 L 137.79,73.04 L 138.35,73.84 L 138.93,74.69 L 139.53,75.61 L 140.15,76.59 L 140.78,77.64 L 141.44,78.77 L 142.11,79.99 L 142.79,81.28 L 143.48,82.66 L 144.18,84.12 L 144.89,85.66 L 145.60,87.28 L 146.31,88.96 L 147.01,90.70 L 147.72,92.49 L 148.41,94.33 L 149.09,96.20 L 149.75,98.10 L 150.40,100.00" fill="none" stroke="#0ff" stroke-width="1" /><path d="M 149.20,100.00 L 149.81,101.86 L 150.39,103.71 L 150.95,105.53 L 151.47,107.33 L 151.96,109.08 L 152.41,110.78 L 152.83,112.42 L 153.19,114.00 L 153.52,115.50 L 153.79,116.92 L 154.01,118.27 L 154.18,119.54 L 154.30,120.72 L 154.36,121.83 L 154.36,122.86 L 154.30,123.81 L 154.19,124.70 L 154.01,125.54 L 153.77,126.32 L 153.47,127.06 L 153.11,127.78 L 152.69,128.47 L 152.21,129.16 L 151.67,129.86 L 151.08,130.57 L 150.43,131.31 L 149.72,132.09 L 148.96,132.93 L 148.15,133.83 L 147.29,134.80 L 146.38,135.86 L 145.43,137.00 L 144.44,138.23 L 143.42,139.57 L 142.35,141.00 L 141.26,142.53 L 140.14,144.17 L 138.99,145.90 L 137.82,147.71 L 136.63,149.62 L 135.43,151.60 L 134.21,153.64 L 132.99,155.73 L 131.76,157.87 L 130.52,160.03 L 129.29,162.20 L 128.05,164.36 L 126.83,166.50 L 125.61,168.60 L 124.40,170.64 L 123.20,172.60 L 122.02,174.47 L 120.85,176.23 L 119.70,177.87 L 118.57,179.36 L 117.46,180.70 L 116.36,181.88 L 115.29,182.88 L 114.24,183.70 L 113.21,184.34 L 112.20,184.78 L 111.22,185.02 L 110.25,185.07 L 109.30,184.93 L 108.37,184.60 L 107.46,184.10 L 106.57,183.42 L 105.69,182.57 L 104.82,181.59 L 103.97,180.46 L 103.12,179.22 L 102.28,177.88 L 101.45,176.45 L 100.62,174.95 L 99.79,173.41 L 98.97,171.84 L 98.14,170.26 L 97.30,168.70 L 96.46,167.16 L 95.61,165.66 L 94.75,164.23 L 93.87,162.88 L 92.99,161.61 L 92.08,160.45 L 91.16,159.40 L 90.23,158.47 L 89.27,157.67 L 88.29,156.99 L 87.29,156.45 L 86.28,156.04 L 85.24,155.76 L 84.18,155.60 L 83.09,155.57 L 81.99,155.64 L 80.87,155.81 L 79.73,156.06 L 78.57,156.39 L 77.39,156.78 L 76.20,157.22 L 75.00,157.68 L 73.78,158.15 L 72.56,158.62 L 71.33,159.06 L 70.10,159.47 L 68.86,159.82 L 67.63,160.10 L 66.40,160.30 L 65.18,160.40 L 63.97,160.39 L 62.77,160.27 L 61.59,160.01 L 60.43,159.62 L 59.30,159.09 L 58.19,158.42 L 57.11,157.61 L 56.07,156.64 L 55.06,155.54 L 54.09,154.31 L 53.16,152.94 L 52.28,151.44 L 51.44,149.83 L 50.66,148.12 L 49.92,146.31 L 49.24,144.43 L 48.62,142.47 L 48.05,140.45 L 47.54,138.40 L 47.09,136.31 L 46.70,134.21 L 46.37,132.11 L 46.10,130.01 L 45.89,127.94 L 45.75,125.89 L 45.66,123.89 L 45.63,121.93 L 45.66,120.03 L 45.75,118.19 L 45.89,116.41 L 46.09,114.70 L 46.34,113.05 L 46.64,111.47 L 46.98,109.95 L 47.37,108.49 L 47.81,107.08 L 48.28,105.73 L 48.79,104.41 L 49.33,103.13 L 49.90,101.87 L 50.49,100.62 L 51.11,99.38 L 51.75,98.13 L 52.41,96.87 L 53.08,95.59 L 53.76,94.27 L 54.45,92.92 L 55.14,91.51 L 55.84,90.05 L 56.53,88.53 L 57.21,86.95 L 57.89,85.30 L 58.57,83.59 L 59.22,81.81 L 59.87,79.97 L 60.50,78.07 L 61.11,76.11 L 61.71,74.11 L 62.29,72.06 L 62.84,69.99 L 63.38,67.89 L 63.89,65.79 L 64.38,63.69 L 64.86,61.60 L 65.31,59.55 L 65.74,57.53 L 66.15,55.57 L 66.55,53.69 L 66.92,51.88 L 67.28,50.17 L 67.63,48.56 L 67.97,47.06 L 68.29,45.69 L 68.61,44.46 L 68.93,43.36 L 69.23,42.39 L 69.54,41.58 L 69.85,40.91 L 70.17,40.38 L 70.49,39.99 L 70.82,39.73 L 71.17,39.61 L 71.53,39.60 L 71.90,39.70 L 72.30,39.90 L 72.72,40.18 L 73.16,40.53 L 73.63,40.94 L 74.12,41.38 L 74.65,41.85 L 75.21,42.32 L 75.80,42.78 L 76.42,43.22 L 77.08,43.61 L 77.78,43.94 L 78.51,44.19 L 79.28,44.36 L 80.09,44.43 L 80.93,44.40 L 81.81,44.24 L 82.73,43.96 L 83.68,43.55 L 84.66,43.01 L 85.68,42.33 L 86.73,41.53 L 87.81,40.60 L 88.91,39.55 L 90.04,38.39 L 91.19,37.12 L 92.37,35.77 L 93.56,34.34 L 94.77,32.84 L 95.99,31.30 L 97.21,29.74 L 98.45,28.16 L 99.69,26.59 L 100.93,25.05 L 102.17,23.55 L 103.40,22.12 L 104.63,20.78 L 105.84,19.54 L 107.04,18.41 L 108.22,17.43 L 109.39,16.58 L 110.53,15.90 L 111.65,15.40 L 112.74,15.07 L 113.80,14.93 L 114.83,14.98 L 115.83,15.22 L 116.80,15.66 L 117.73,16.30 L 118.63,17.12 L 119.49,18.12 L 120.32,19.30 L 121.11,20.64 L 121.86,22.13 L 122.57,23.77 L 123.25,25.53 L 123.89,27.40 L 124.50,29.36 L 125.08,31.40 L 125.62,33.50 L 126.13,35.64 L 126.61,37.80 L 127.07,39.97 L 127.50,42.13 L 127.90,44.27 L 128.29,46.36 L 128.65,48.40 L 129.01,50.38 L 129.34,52.29 L 129.67,54.10 L 129.99,55.83 L 130.30,57.47 L 130.61,59.00 L 130.92,60.43 L 131.23,61.77 L 131.55,63.00 L 131.87,64.14 L 132.20,65.20 L 132.54,66.17 L 132.90,67.07 L 133.26,67.91 L 133.65,68.69 L 134.05,69.43 L 134.47,70.14 L 134.92,70.84 L 135.38,71.53 L 135.86,72.22 L 136.36,72.94 L 136.89,73.68 L 137.43,74.46 L 138.00,75.30 L 138.59,76.19 L 139.19,77.14 L 139.81,78.17 L 140.45,79.28 L 141.10,80.46 L 141.77,81.73 L 142.44,83.08 L 143.13,84.50 L 143.82,86.00 L 144.51,87.58 L 145.20,89.22 L 145.89,90.92 L 146.58,92.67 L 147.26,94.47 L 147.92,96.29 L 148.57,98.14 L 149.20,100.00" fill="none" stroke="#0ff" stroke-width="1" /><path d="M 148.00,100.00 L 148.59,101.81 L 149.16,103.62 L 149.71,105.40 L 150.22,107.15 L 150.70,108.86 L 151.14,110.52 L 151.54,112.12 L 151.90,113.65 L 152.21,115.12 L 152.48,116.51 L 152.70,117.83 L 152.86,119.06 L 152.98,120.22 L 153.03,121.29 L 153.04,122.30 L 152.98,123.23 L 152.87,124.10 L 152.69,124.91 L 152.46,125.68 L 152.17,126.40 L 151.82,127.10 L 151.41,127.78 L 150.94,128.45 L 150.41,129.13 L 149.83,129.82 L 149.20,130.55 L 148.51,131.31 L 147.76,132.13 L 146.97,133.01 L 146.13,133.95 L 145.25,134.98 L 144.32,136.10 L 143.36,137.30 L 142.36,138.60 L 141.32,140.00 L 140.25,141.50 L 139.16,143.09 L 138.04,144.78 L 136.90,146.55 L 135.74,148.41 L 134.56,150.34 L 133.38,152.33 L 132.18,154.38 L 130.98,156.46 L 129.78,158.57 L 128.57,160.68 L 127.37,162.79 L 126.17,164.88 L 124.98,166.93 L 123.80,168.92 L 122.64,170.83 L 121.48,172.65 L 120.34,174.37 L 119.22,175.97 L 118.12,177.42 L 117.03,178.73 L 115.96,179.88 L 114.92,180.86 L 113.89,181.66 L 112.89,182.28 L 111.91,182.71 L 110.94,182.95 L 110.00,183.00 L 109.08,182.86 L 108.17,182.54 L 107.28,182.04 L 106.41,181.38 L 105.55,180.56 L 104.70,179.60 L 103.87,178.50 L 103.04,177.29 L 102.23,175.98 L 101.41,174.58 L 100.61,173.12 L 99.80,171.62 L 98.99,170.09 L 98.18,168.55 L 97.37,167.02 L 96.54,165.52 L 95.71,164.06 L 94.87,162.66 L 94.02,161.34 L 93.16,160.11 L 92.28,158.97 L 91.38,157.95 L 90.46,157.04 L 89.53,156.26 L 88.58,155.60 L 87.60,155.07 L 86.61,154.67 L 85.60,154.40 L 84.56,154.25 L 83.51,154.21 L 82.43,154.28 L 81.33,154.44 L 80.22,154.69 L 79.09,155.02 L 77.94,155.40 L 76.78,155.82 L 75.61,156.27 L 74.42,156.73 L 73.23,157.19 L 72.03,157.62 L 70.83,158.02 L 69.62,158.36 L 68.42,158.64 L 67.22,158.83 L 66.03,158.93 L 64.85,158.92 L 63.68,158.80 L 62.53,158.55 L 61.40,158.17 L 60.29,157.65 L 59.21,157.00 L 58.16,156.20 L 57.14,155.26 L 56.15,154.19 L 55.21,152.98 L 54.30,151.64 L 53.44,150.19 L 52.63,148.62 L 51.86,146.95 L 51.14,145.18 L 50.48,143.34 L 49.87,141.43 L 49.32,139.47 L 48.82,137.46 L 48.38,135.43 L 48.00,133.38 L 47.68,131.32 L 47.42,129.28 L 47.21,127.26 L 47.07,125.26 L 46.98,123.31 L 46.96,121.40 L 46.99,119.54 L 47.07,117.74 L 47.21,116.01 L 47.41,114.34 L 47.65,112.73 L 47.94,111.19 L 48.28,109.71 L 48.66,108.28 L 49.08,106.91 L 49.54,105.59 L 50.03,104.30 L 50.56,103.05 L 51.12,101.82 L 51.70,100.61 L 52.31,99.39 L 52.93,98.18 L 53.57,96.95 L 54.23,95.70 L 54.89,94.41 L 55.56,93.09 L 56.24,91.72 L 56.91,90.29 L 57.59,88.81 L 58.26,87.27 L 58.92,85.66 L 59.58,83.99 L 60.22,82.26 L 60.85,80.46 L 61.46,78.60 L 62.06,76.69 L 62.64,74.74 L 63.21,72.74 L 63.75,70.72 L 64.27,68.68 L 64.77,66.62 L 65.25,64.57 L 65.71,62.54 L 66.15,60.53 L 66.57,58.57 L 66.98,56.66 L 67.36,54.82 L 67.73,53.05 L 68.08,51.38 L 68.42,49.81 L 68.75,48.36 L 69.07,47.02 L 69.38,45.81 L 69.68,44.74 L 69.99,43.80 L 70.29,43.00 L 70.59,42.35 L 70.90,41.83 L 71.21,41.45 L 71.54,41.20 L 71.87,41.08 L 72.22,41.07 L 72.59,41.17 L 72.97,41.36 L 73.38,41.64 L 73.81,41.98 L 74.27,42.38 L 74.75,42.81 L 75.27,43.27 L 75.81,43.73 L 76.39,44.18 L 77.00,44.60 L 77.64,44.98 L 78.32,45.31 L 79.04,45.56 L 79.79,45.72 L 80.57,45.79 L 81.40,45.75 L 82.26,45.60 L 83.15,45.33 L 84.08,44.93 L 85.04,44.40 L 86.03,43.74 L 87.05,42.96 L 88.10,42.05 L 89.18,41.03 L 90.28,39.89 L 91.41,38.66 L 92.55,37.34 L 93.72,35.94 L 94.89,34.48 L 96.08,32.98 L 97.28,31.45 L 98.49,29.91 L 99.70,28.38 L 100.91,26.88 L 102.12,25.42 L 103.32,24.02 L 104.51,22.71 L 105.70,21.50 L 106.87,20.40 L 108.02,19.44 L 109.16,18.62 L 110.27,17.96 L 111.36,17.46 L 112.43,17.14 L 113.46,17.00 L 114.47,17.05 L 115.45,17.29 L 116.39,17.72 L 117.30,18.34 L 118.18,19.14 L 119.02,20.12 L 119.82,21.27 L 120.59,22.58 L 121.33,24.03 L 122.02,25.63 L 122.68,27.35 L 123.31,29.17 L 123.90,31.08 L 124.46,33.07 L 124.99,35.12 L 125.49,37.21 L 125.96,39.32 L 126.41,41.43 L 126.82,43.54 L 127.22,45.62 L 127.60,47.67 L 127.96,49.66 L 128.30,51.59 L 128.63,53.45 L 128.95,55.22 L 129.26,56.91 L 129.56,58.50 L 129.86,60.00 L 130.17,61.40 L 130.47,62.70 L 130.78,63.90 L 131.09,65.02 L 131.41,66.05 L 131.75,66.99 L 132.09,67.87 L 132.45,68.69 L 132.83,69.45 L 133.22,70.18 L 133.63,70.87 L 134.06,71.55 L 134.51,72.22 L 134.98,72.90 L 135.48,73.60 L 135.99,74.32 L 136.52,75.09 L 137.07,75.90 L 137.64,76.77 L 138.23,77.70 L 138.84,78.71 L 139.46,79.78 L 140.10,80.94 L 140.75,82.17 L 141.41,83.49 L 142.08,84.88 L 142.75,86.35 L 143.43,87.88 L 144.10,89.48 L 144.78,91.14 L 145.44,92.85 L 146.10,94.60 L 146.75,96.38 L 147.38,98.19 L 148.00,100.00" fill="none" stroke="#0ff" stroke-width="1" /><path d="M 146.80,100.00 L 147.38,101.77 L 147.93,103.53 L 148.46,105.26 L 148.96,106.97 L 149.43,108.64 L 149.86,110.25 L 150.25,111.81 L 150.60,113.31 L 150.91,114.74 L 151.17,116.10 L 151.38,117.38 L 151.54,118.58 L 151.65,119.71 L 151.71,120.76 L 151.71,121.74 L 151.66,122.65 L 151.54,123.50 L 151.38,124.29 L 151.15,125.04 L 150.87,125.74 L 150.52,126.42 L 150.12,127.08 L 149.67,127.74 L 149.15,128.40 L 148.59,129.08 L 147.97,129.78 L 147.29,130.53 L 146.57,131.32 L 145.80,132.18 L 144.98,133.11 L 144.12,134.11 L 143.22,135.19 L 142.27,136.37 L 141.30,137.64 L 140.29,139.00 L 139.25,140.46 L 138.18,142.01 L 137.09,143.66 L 135.98,145.39 L 134.85,147.20 L 133.70,149.08 L 132.54,151.02 L 131.38,153.02 L 130.21,155.05 L 129.03,157.10 L 127.86,159.17 L 126.69,161.22 L 125.52,163.26 L 124.36,165.25 L 123.21,167.19 L 122.07,169.06 L 120.94,170.84 L 119.83,172.51 L 118.74,174.07 L 117.66,175.49 L 116.60,176.77 L 115.57,177.89 L 114.55,178.84 L 113.55,179.62 L 112.57,180.22 L 111.61,180.64 L 110.67,180.87 L 109.75,180.92 L 108.85,180.79 L 107.97,180.48 L 107.10,179.99 L 106.25,179.35 L 105.41,178.55 L 104.59,177.61 L 103.77,176.54 L 102.97,175.36 L 102.17,174.08 L 101.38,172.72 L 100.59,171.30 L 99.80,169.83 L 99.02,168.34 L 98.23,166.84 L 97.43,165.35 L 96.63,163.88 L 95.82,162.46 L 95.00,161.10 L 94.17,159.81 L 93.33,158.61 L 92.47,157.50 L 91.59,156.50 L 90.70,155.62 L 89.79,154.85 L 88.86,154.21 L 87.91,153.70 L 86.95,153.31 L 85.96,153.04 L 84.95,152.89 L 83.92,152.86 L 82.87,152.92 L 81.80,153.08 L 80.72,153.33 L 79.61,153.64 L 78.49,154.01 L 77.36,154.42 L 76.22,154.86 L 75.06,155.31 L 73.90,155.76 L 72.73,156.18 L 71.56,156.57 L 70.38,156.90 L 69.21,157.17 L 68.04,157.36 L 66.88,157.46 L 65.73,157.45 L 64.59,157.33 L 63.47,157.09 L 62.36,156.71 L 61.28,156.21 L 60.23,155.57 L 59.20,154.80 L 58.21,153.88 L 57.25,152.83 L 56.33,151.66 L 55.45,150.35 L 54.61,148.93 L 53.81,147.40 L 53.06,145.77 L 52.36,144.06 L 51.72,142.26 L 51.12,140.40 L 50.58,138.48 L 50.10,136.53 L 49.67,134.54 L 49.30,132.54 L 48.99,130.54 L 48.73,128.55 L 48.53,126.57 L 48.39,124.63 L 48.31,122.72 L 48.28,120.86 L 48.31,119.05 L 48.40,117.30 L 48.53,115.61 L 48.72,113.98 L 48.96,112.41 L 49.24,110.91 L 49.57,109.46 L 49.94,108.08 L 50.35,106.74 L 50.80,105.45 L 51.28,104.20 L 51.80,102.97 L 52.34,101.78 L 52.91,100.59 L 53.50,99.41 L 54.11,98.22 L 54.73,97.03 L 55.37,95.80 L 56.02,94.55 L 56.67,93.26 L 57.33,91.92 L 57.99,90.54 L 58.65,89.09 L 59.30,87.59 L 59.95,86.02 L 60.59,84.39 L 61.21,82.70 L 61.83,80.95 L 62.43,79.14 L 63.01,77.28 L 63.58,75.37 L 64.13,73.43 L 64.65,71.45 L 65.16,69.46 L 65.65,67.46 L 66.12,65.46 L 66.57,63.47 L 67.00,61.52 L 67.41,59.60 L 67.80,57.74 L 68.18,55.94 L 68.54,54.23 L 68.88,52.60 L 69.21,51.07 L 69.53,49.65 L 69.84,48.34 L 70.14,47.17 L 70.44,46.12 L 70.74,45.20 L 71.03,44.43 L 71.33,43.79 L 71.63,43.29 L 71.93,42.91 L 72.25,42.67 L 72.57,42.55 L 72.92,42.54 L 73.27,42.64 L 73.65,42.83 L 74.05,43.10 L 74.47,43.43 L 74.91,43.82 L 75.38,44.24 L 75.89,44.69 L 76.42,45.14 L 76.98,45.58 L 77.57,45.99 L 78.20,46.36 L 78.86,46.67 L 79.56,46.92 L 80.29,47.08 L 81.06,47.14 L 81.86,47.11 L 82.70,46.96 L 83.57,46.69 L 84.47,46.30 L 85.41,45.79 L 86.38,45.15 L 87.38,44.38 L 88.40,43.50 L 89.45,42.50 L 90.53,41.39 L 91.62,40.19 L 92.74,38.90 L 93.87,37.54 L 95.02,36.12 L 96.18,34.65 L 97.35,33.16 L 98.53,31.66 L 99.70,30.17 L 100.88,28.70 L 102.06,27.28 L 103.24,25.92 L 104.40,24.64 L 105.55,23.46 L 106.70,22.39 L 107.82,21.45 L 108.93,20.65 L 110.01,20.01 L 111.08,19.52 L 112.12,19.21 L 113.13,19.08 L 114.11,19.13 L 115.06,19.36 L 115.98,19.78 L 116.87,20.38 L 117.72,21.16 L 118.54,22.11 L 119.33,23.23 L 120.08,24.51 L 120.79,25.93 L 121.47,27.49 L 122.12,29.16 L 122.73,30.94 L 123.31,32.81 L 123.85,34.75 L 124.37,36.74 L 124.85,38.78 L 125.31,40.83 L 125.75,42.90 L 126.15,44.95 L 126.54,46.98 L 126.91,48.98 L 127.26,50.92 L 127.59,52.80 L 127.91,54.61 L 128.22,56.34 L 128.53,57.99 L 128.82,59.54 L 129.12,61.00 L 129.41,62.36 L 129.71,63.63 L 130.01,64.81 L 130.31,65.89 L 130.63,66.89 L 130.95,67.82 L 131.29,68.68 L 131.64,69.47 L 132.01,70.22 L 132.39,70.92 L 132.79,71.60 L 133.21,72.26 L 133.65,72.92 L 134.11,73.58 L 134.59,74.26 L 135.09,74.96 L 135.61,75.71 L 136.15,76.50 L 136.70,77.35 L 137.28,78.26 L 137.87,79.24 L 138.48,80.29 L 139.10,81.42 L 139.73,82.62 L 140.37,83.90 L 141.02,85.26 L 141.68,86.69 L 142.34,88.19 L 143.00,89.75 L 143.66,91.36 L 144.31,93.03 L 144.95,94.74 L 145.58,96.47 L 146.20,98.23 L 146.80,100.00" fill="none" stroke="#0ff" stroke-width="1" /><path d="M 145.60,100.00 L 146.16,101.72 L 146.71,103.44 L 147.22,105.13 L 147.71,106.79 L 148.16,108.41 L 148.58,109.99 L 148.96,111.51 L 149.30,112.97 L 149.60,114.36 L 149.85,115.69 L 150.06,116.93 L 150.22,118.11 L 150.33,119.21 L 150.38,120.23 L 150.38,121.18 L 150.33,122.07 L 150.22,122.90 L 150.06,123.67 L 149.84,124.39 L 149.56,125.08 L 149.23,125.75 L 148.84,126.39 L 148.39,127.03 L 147.89,127.67 L 147.34,128.33 L 146.74,129.02 L 146.08,129.75 L 145.38,130.52 L 144.62,131.36 L 143.83,132.26 L 142.99,133.23 L 142.11,134.29 L 141.19,135.44 L 140.24,136.67 L 139.25,138.00 L 138.24,139.42 L 137.20,140.94 L 136.14,142.54 L 135.05,144.22 L 133.95,145.99 L 132.84,147.82 L 131.71,149.71 L 130.57,151.66 L 129.43,153.64 L 128.29,155.64 L 127.14,157.65 L 126.00,159.65 L 124.86,161.64 L 123.73,163.58 L 122.61,165.47 L 121.50,167.29 L 120.41,169.02 L 119.33,170.65 L 118.26,172.17 L 117.21,173.55 L 116.18,174.80 L 115.17,175.89 L 114.17,176.82 L 113.20,177.58 L 112.25,178.17 L 111.31,178.57 L 110.40,178.80 L 109.50,178.85 L 108.62,178.72 L 107.76,178.41 L 106.92,177.94 L 106.09,177.31 L 105.27,176.53 L 104.47,175.62 L 103.68,174.57 L 102.89,173.42 L 102.11,172.18 L 101.34,170.85 L 100.58,169.47 L 99.81,168.04 L 99.04,166.59 L 98.27,165.12 L 97.50,163.67 L 96.72,162.24 L 95.93,160.86 L 95.13,159.53 L 94.32,158.28 L 93.50,157.10 L 92.66,156.03 L 91.81,155.05 L 90.94,154.19 L 90.05,153.45 L 89.15,152.82 L 88.22,152.32 L 87.28,151.94 L 86.32,151.68 L 85.33,151.54 L 84.33,151.50 L 83.31,151.57 L 82.27,151.72 L 81.21,151.96 L 80.14,152.27 L 79.05,152.63 L 77.94,153.03 L 76.83,153.46 L 75.70,153.90 L 74.57,154.33 L 73.43,154.74 L 72.28,155.12 L 71.14,155.44 L 70.00,155.71 L 68.86,155.89 L 67.73,155.98 L 66.60,155.98 L 65.50,155.86 L 64.40,155.62 L 63.33,155.26 L 62.28,154.77 L 61.25,154.15 L 60.25,153.39 L 59.28,152.50 L 58.35,151.48 L 57.45,150.33 L 56.59,149.06 L 55.77,147.68 L 55.00,146.19 L 54.27,144.60 L 53.59,142.93 L 52.96,141.18 L 52.38,139.36 L 51.85,137.49 L 51.38,135.59 L 50.96,133.66 L 50.60,131.71 L 50.29,129.76 L 50.04,127.82 L 49.85,125.89 L 49.72,124.00 L 49.64,122.14 L 49.61,120.33 L 49.64,118.56 L 49.72,116.86 L 49.85,115.21 L 50.04,113.62 L 50.27,112.09 L 50.54,110.63 L 50.86,109.22 L 51.23,107.87 L 51.63,106.57 L 52.06,105.31 L 52.53,104.09 L 53.03,102.90 L 53.56,101.73 L 54.12,100.58 L 54.69,99.42 L 55.28,98.27 L 55.89,97.10 L 56.51,95.91 L 57.15,94.69 L 57.78,93.43 L 58.42,92.13 L 59.07,90.78 L 59.71,89.37 L 60.34,87.91 L 60.98,86.38 L 61.60,84.79 L 62.21,83.14 L 62.81,81.44 L 63.39,79.67 L 63.96,77.86 L 64.51,76.00 L 65.05,74.11 L 65.56,72.18 L 66.06,70.24 L 66.53,68.29 L 66.99,66.34 L 67.43,64.41 L 67.85,62.51 L 68.25,60.64 L 68.63,58.82 L 68.99,57.07 L 69.34,55.40 L 69.68,53.81 L 70.00,52.32 L 70.31,50.94 L 70.61,49.67 L 70.91,48.52 L 71.20,47.50 L 71.49,46.61 L 71.77,45.85 L 72.06,45.23 L 72.35,44.74 L 72.65,44.38 L 72.96,44.14 L 73.28,44.02 L 73.61,44.02 L 73.96,44.11 L 74.33,44.29 L 74.71,44.56 L 75.12,44.88 L 75.56,45.26 L 76.02,45.67 L 76.50,46.10 L 77.02,46.54 L 77.57,46.97 L 78.15,47.37 L 78.76,47.73 L 79.41,48.04 L 80.08,48.28 L 80.80,48.43 L 81.55,48.50 L 82.33,48.46 L 83.14,48.32 L 83.99,48.06 L 84.87,47.68 L 85.78,47.18 L 86.73,46.55 L 87.70,45.81 L 88.70,44.95 L 89.72,43.97 L 90.77,42.90 L 91.84,41.72 L 92.93,40.47 L 94.03,39.14 L 95.15,37.76 L 96.28,36.33 L 97.42,34.88 L 98.56,33.41 L 99.71,31.96 L 100.86,30.53 L 102.01,29.15 L 103.15,27.82 L 104.29,26.58 L 105.41,25.43 L 106.52,24.38 L 107.62,23.47 L 108.70,22.69 L 109.76,22.06 L 110.79,21.59 L 111.80,21.28 L 112.79,21.15 L 113.75,21.20 L 114.68,21.43 L 115.57,21.83 L 116.44,22.42 L 117.27,23.18 L 118.07,24.11 L 118.83,25.20 L 119.56,26.45 L 120.26,27.83 L 120.92,29.35 L 121.55,30.98 L 122.15,32.71 L 122.71,34.53 L 123.24,36.42 L 123.74,38.36 L 124.22,40.35 L 124.66,42.35 L 125.09,44.36 L 125.48,46.36 L 125.86,48.34 L 126.22,50.29 L 126.56,52.18 L 126.88,54.01 L 127.20,55.78 L 127.50,57.46 L 127.79,59.06 L 128.08,60.58 L 128.37,62.00 L 128.66,63.33 L 128.95,64.56 L 129.24,65.71 L 129.54,66.77 L 129.84,67.74 L 130.16,68.64 L 130.49,69.48 L 130.83,70.25 L 131.19,70.98 L 131.56,71.67 L 131.95,72.33 L 132.36,72.97 L 132.79,73.61 L 133.24,74.25 L 133.70,74.92 L 134.19,75.61 L 134.69,76.33 L 135.22,77.10 L 135.76,77.93 L 136.32,78.82 L 136.90,79.77 L 137.49,80.79 L 138.10,81.89 L 138.71,83.07 L 139.34,84.31 L 139.97,85.64 L 140.61,87.03 L 141.25,88.49 L 141.90,90.01 L 142.54,91.59 L 143.17,93.21 L 143.80,94.87 L 144.41,96.56 L 145.02,98.28 L 145.60,100.00" fill="none" stroke="#0ff" stroke-width="1" /><path d="M 144.40,100.00 L 144.95,101.68 L 145.48,103.35 L 145.98,104.99 L 146.45,106.61 L 146.89,108.19 L 147.30,109.73 L 147.67,111.21 L 148.00,112.63 L 148.30,113.99 L 148.54,115.27 L 148.74,116.49 L 148.90,117.63 L 149.00,118.70 L 149.06,119.70 L 149.06,120.63 L 149.01,121.49 L 148.90,122.29 L 148.74,123.05 L 148.53,123.75 L 148.26,124.42 L 147.93,125.07 L 147.55,125.70 L 147.12,126.32 L 146.63,126.94 L 146.10,127.59 L 145.51,128.26 L 144.87,128.96 L 144.18,129.72 L 143.45,130.53 L 142.67,131.41 L 141.86,132.36 L 141.00,133.39 L 140.11,134.50 L 139.18,135.71 L 138.22,137.00 L 137.23,138.38 L 136.22,139.86 L 135.19,141.42 L 134.13,143.06 L 133.06,144.78 L 131.97,146.56 L 130.87,148.41 L 129.77,150.30 L 128.66,152.22 L 127.54,154.17 L 126.43,156.13 L 125.32,158.08 L 124.21,160.01 L 123.11,161.91 L 122.02,163.75 L 120.94,165.52 L 119.87,167.21 L 118.82,168.79 L 117.78,170.27 L 116.76,171.62 L 115.75,172.83 L 114.77,173.89 L 113.80,174.80 L 112.85,175.54 L 111.92,176.11 L 111.01,176.51 L 110.12,176.73 L 109.25,176.77 L 108.40,176.65 L 107.56,176.35 L 106.74,175.89 L 105.93,175.28 L 105.13,174.52 L 104.35,173.63 L 103.58,172.61 L 102.82,171.49 L 102.06,170.28 L 101.31,168.99 L 100.56,167.64 L 99.81,166.25 L 99.07,164.83 L 98.32,163.41 L 97.56,161.99 L 96.80,160.61 L 96.04,159.26 L 95.26,157.96 L 94.47,156.74 L 93.67,155.60 L 92.86,154.55 L 92.03,153.60 L 91.18,152.76 L 90.32,152.04 L 89.43,151.43 L 88.53,150.94 L 87.61,150.57 L 86.68,150.32 L 85.72,150.18 L 84.74,150.14 L 83.75,150.21 L 82.73,150.36 L 81.70,150.59 L 80.66,150.89 L 79.60,151.24 L 78.52,151.63 L 77.44,152.05 L 76.34,152.48 L 75.24,152.90 L 74.13,153.30 L 73.01,153.67 L 71.90,153.99 L 70.79,154.24 L 69.68,154.42 L 68.58,154.51 L 67.48,154.50 L 66.40,154.39 L 65.34,154.16 L 64.29,153.81 L 63.27,153.33 L 62.27,152.72 L 61.30,151.99 L 60.35,151.12 L 59.44,150.12 L 58.57,149.01 L 57.73,147.77 L 56.93,146.42 L 56.18,144.97 L 55.47,143.43 L 54.81,141.80 L 54.19,140.09 L 53.63,138.32 L 53.12,136.51 L 52.66,134.65 L 52.25,132.77 L 51.90,130.87 L 51.60,128.97 L 51.36,127.08 L 51.17,125.21 L 51.04,123.37 L 50.96,121.56 L 50.94,119.79 L 50.96,118.08 L 51.04,116.41 L 51.17,114.81 L 51.35,113.26 L 51.58,111.78 L 51.84,110.35 L 52.16,108.98 L 52.51,107.66 L 52.90,106.39 L 53.32,105.17 L 53.78,103.98 L 54.27,102.82 L 54.78,101.68 L 55.32,100.56 L 55.88,99.44 L 56.46,98.32 L 57.05,97.18 L 57.66,96.02 L 58.27,94.83 L 58.89,93.61 L 59.52,92.34 L 60.14,91.02 L 60.77,89.65 L 61.39,88.22 L 62.00,86.74 L 62.61,85.19 L 63.20,83.59 L 63.79,81.92 L 64.35,80.21 L 64.91,78.44 L 65.45,76.63 L 65.97,74.79 L 66.47,72.92 L 66.95,71.03 L 67.41,69.13 L 67.86,67.23 L 68.29,65.35 L 68.69,63.49 L 69.08,61.68 L 69.45,59.91 L 69.81,58.20 L 70.15,56.57 L 70.48,55.03 L 70.79,53.58 L 71.09,52.23 L 71.39,50.99 L 71.67,49.88 L 71.96,48.88 L 72.24,48.01 L 72.52,47.28 L 72.80,46.67 L 73.08,46.19 L 73.37,45.84 L 73.67,45.61 L 73.98,45.50 L 74.31,45.49 L 74.64,45.58 L 75.00,45.76 L 75.38,46.01 L 75.78,46.33 L 76.20,46.70 L 76.65,47.10 L 77.12,47.52 L 77.63,47.95 L 78.16,48.37 L 78.72,48.76 L 79.32,49.11 L 79.95,49.41 L 80.61,49.64 L 81.30,49.79 L 82.03,49.86 L 82.79,49.82 L 83.59,49.68 L 84.41,49.43 L 85.27,49.06 L 86.16,48.57 L 87.08,47.96 L 88.02,47.24 L 89.00,46.40 L 89.99,45.45 L 91.01,44.40 L 92.05,43.26 L 93.11,42.04 L 94.19,40.74 L 95.28,39.39 L 96.38,38.01 L 97.49,36.59 L 98.60,35.17 L 99.72,33.75 L 100.84,32.36 L 101.96,31.01 L 103.07,29.72 L 104.17,28.51 L 105.27,27.39 L 106.35,26.37 L 107.42,25.48 L 108.47,24.72 L 109.50,24.11 L 110.51,23.65 L 111.49,23.35 L 112.45,23.23 L 113.39,23.27 L 114.29,23.49 L 115.16,23.89 L 116.00,24.46 L 116.81,25.20 L 117.59,26.11 L 118.34,27.17 L 119.05,28.38 L 119.73,29.73 L 120.37,31.21 L 120.98,32.79 L 121.56,34.48 L 122.11,36.25 L 122.63,38.09 L 123.12,39.99 L 123.58,41.92 L 124.01,43.87 L 124.43,45.83 L 124.81,47.78 L 125.18,49.70 L 125.53,51.59 L 125.86,53.44 L 126.18,55.22 L 126.48,56.94 L 126.78,58.58 L 127.06,60.14 L 127.34,61.62 L 127.62,63.00 L 127.90,64.29 L 128.18,65.50 L 128.47,66.61 L 128.76,67.64 L 129.06,68.59 L 129.37,69.47 L 129.69,70.28 L 130.02,71.04 L 130.37,71.74 L 130.73,72.41 L 131.11,73.06 L 131.51,73.68 L 131.93,74.30 L 132.36,74.93 L 132.82,75.58 L 133.29,76.25 L 133.78,76.95 L 134.29,77.71 L 134.82,78.51 L 135.37,79.37 L 135.93,80.30 L 136.50,81.30 L 137.09,82.37 L 137.69,83.51 L 138.30,84.73 L 138.92,86.01 L 139.54,87.37 L 140.17,88.79 L 140.79,90.27 L 141.42,91.81 L 142.04,93.39 L 142.65,95.01 L 143.25,96.65 L 143.83,98.32 L 144.40,100.00" fill="none" stroke="#0ff" stroke-width="1" /><path d="M 143.20,100.00 L 143.73,101.63 L 144.25,103.26 L 144.74,104.86 L 145.20,106.43 L 145.63,107.97 L 146.02,109.47 L 146.38,110.91 L 146.71,112.29 L 146.99,113.61 L 147.23,114.86 L 147.43,116.04 L 147.58,117.15 L 147.68,118.19 L 147.73,119.16 L 147.73,120.07 L 147.68,120.91 L 147.58,121.69 L 147.42,122.42 L 147.22,123.11 L 146.95,123.76 L 146.64,124.39 L 146.27,125.00 L 145.85,125.61 L 145.37,126.22 L 144.85,126.84 L 144.28,127.49 L 143.65,128.18 L 142.99,128.92 L 142.27,129.71 L 141.52,130.56 L 140.72,131.48 L 139.89,132.49 L 139.02,133.57 L 138.12,134.74 L 137.19,136.00 L 136.23,137.35 L 135.24,138.78 L 134.23,140.30 L 133.21,141.90 L 132.16,143.57 L 131.11,145.30 L 130.04,147.10 L 128.96,148.94 L 127.88,150.81 L 126.80,152.71 L 125.71,154.61 L 124.63,156.51 L 123.56,158.39 L 122.49,160.23 L 121.42,162.02 L 120.37,163.75 L 119.33,165.39 L 118.31,166.93 L 117.30,168.37 L 116.30,169.68 L 115.33,170.86 L 114.37,171.89 L 113.43,172.78 L 112.50,173.50 L 111.60,174.05 L 110.72,174.44 L 109.85,174.65 L 109.00,174.70 L 108.17,174.57 L 107.35,174.29 L 106.55,173.84 L 105.77,173.24 L 104.99,172.50 L 104.23,171.64 L 103.48,170.65 L 102.74,169.56 L 102.00,168.38 L 101.27,167.12 L 100.54,165.81 L 99.82,164.46 L 99.09,163.08 L 98.36,161.70 L 97.63,160.32 L 96.89,158.97 L 96.14,157.66 L 95.39,156.40 L 94.62,155.21 L 93.84,154.10 L 93.05,153.08 L 92.24,152.15 L 91.42,151.34 L 90.58,150.63 L 89.72,150.04 L 88.84,149.57 L 87.95,149.21 L 87.04,148.96 L 86.10,148.82 L 85.15,148.79 L 84.19,148.85 L 83.20,149.00 L 82.20,149.23 L 81.18,149.52 L 80.15,149.86 L 79.10,150.24 L 78.05,150.64 L 76.98,151.06 L 75.91,151.47 L 74.83,151.86 L 73.74,152.22 L 72.66,152.53 L 71.58,152.77 L 70.50,152.95 L 69.43,153.04 L 68.36,153.03 L 67.31,152.92 L 66.28,152.69 L 65.26,152.35 L 64.26,151.89 L 63.29,151.30 L 62.34,150.58 L 61.42,149.74 L 60.54,148.77 L 59.69,147.68 L 58.87,146.48 L 58.10,145.17 L 57.36,143.76 L 56.67,142.25 L 56.03,140.67 L 55.43,139.01 L 54.88,137.29 L 54.38,135.52 L 53.94,133.72 L 53.54,131.88 L 53.20,130.04 L 52.91,128.19 L 52.67,126.35 L 52.49,124.53 L 52.36,122.73 L 52.29,120.97 L 52.26,119.26 L 52.29,117.59 L 52.37,115.97 L 52.49,114.41 L 52.67,112.90 L 52.88,111.46 L 53.15,110.07 L 53.45,108.74 L 53.79,107.45 L 54.17,106.22 L 54.59,105.03 L 55.03,103.87 L 55.51,102.75 L 56.01,101.64 L 56.53,100.54 L 57.07,99.46 L 57.64,98.36 L 58.21,97.25 L 58.80,96.13 L 59.40,94.97 L 60.00,93.78 L 60.61,92.55 L 61.22,91.26 L 61.83,89.93 L 62.43,88.54 L 63.03,87.10 L 63.62,85.59 L 64.20,84.03 L 64.76,82.41 L 65.32,80.74 L 65.86,79.03 L 66.38,77.27 L 66.89,75.47 L 67.37,73.65 L 67.84,71.81 L 68.30,69.96 L 68.73,68.12 L 69.14,66.28 L 69.54,64.48 L 69.92,62.71 L 70.28,60.99 L 70.63,59.33 L 70.96,57.75 L 71.27,56.24 L 71.58,54.83 L 71.87,53.52 L 72.16,52.32 L 72.44,51.23 L 72.71,50.26 L 72.99,49.42 L 73.26,48.70 L 73.53,48.11 L 73.81,47.65 L 74.09,47.31 L 74.38,47.08 L 74.68,46.97 L 75.00,46.96 L 75.33,47.05 L 75.68,47.23 L 76.04,47.47 L 76.43,47.78 L 76.84,48.14 L 77.28,48.53 L 77.74,48.94 L 78.23,49.36 L 78.75,49.76 L 79.30,50.14 L 79.88,50.48 L 80.49,50.77 L 81.13,51.00 L 81.81,51.15 L 82.52,51.21 L 83.26,51.18 L 84.03,51.04 L 84.83,50.79 L 85.67,50.43 L 86.53,49.96 L 87.43,49.37 L 88.35,48.66 L 89.29,47.85 L 90.26,46.92 L 91.25,45.90 L 92.27,44.79 L 93.30,43.60 L 94.34,42.34 L 95.40,41.03 L 96.47,39.68 L 97.55,38.30 L 98.64,36.92 L 99.73,35.54 L 100.82,34.19 L 101.90,32.88 L 102.99,31.62 L 104.06,30.44 L 105.13,29.35 L 106.18,28.36 L 107.22,27.50 L 108.24,26.76 L 109.24,26.16 L 110.23,25.71 L 111.18,25.43 L 112.12,25.30 L 113.02,25.35 L 113.90,25.56 L 114.75,25.95 L 115.57,26.50 L 116.36,27.22 L 117.12,28.11 L 117.84,29.14 L 118.53,30.32 L 119.19,31.63 L 119.82,33.07 L 120.42,34.61 L 120.98,36.25 L 121.51,37.98 L 122.02,39.77 L 122.49,41.61 L 122.94,43.49 L 123.37,45.39 L 123.77,47.29 L 124.14,49.19 L 124.50,51.06 L 124.84,52.90 L 125.16,54.70 L 125.47,56.43 L 125.76,58.10 L 126.05,59.70 L 126.33,61.22 L 126.61,62.65 L 126.88,64.00 L 127.15,65.26 L 127.42,66.43 L 127.70,67.51 L 127.98,68.52 L 128.27,69.44 L 128.57,70.29 L 128.88,71.08 L 129.21,71.82 L 129.55,72.51 L 129.90,73.16 L 130.27,73.78 L 130.66,74.39 L 131.06,75.00 L 131.49,75.61 L 131.93,76.24 L 132.39,76.89 L 132.87,77.58 L 133.37,78.31 L 133.88,79.09 L 134.41,79.93 L 134.96,80.84 L 135.52,81.81 L 136.09,82.85 L 136.68,83.96 L 137.27,85.14 L 137.87,86.39 L 138.47,87.71 L 139.08,89.09 L 139.69,90.53 L 140.30,92.03 L 140.90,93.57 L 141.49,95.14 L 142.08,96.74 L 142.65,98.37 L 143.20,100.00" fill="none" stroke="#0ff" stroke-width="1" /><path d="M 142.00,100.00 L 142.52,101.59 L 143.02,103.16 L 143.49,104.72 L 143.94,106.26 L 144.36,107.75 L 144.74,109.20 L 145.10,110.60 L 145.41,111.95 L 145.68,113.23 L 145.92,114.45 L 146.11,115.60 L 146.25,116.68 L 146.35,117.69 L 146.40,118.63 L 146.41,119.51 L 146.36,120.33 L 146.26,121.09 L 146.11,121.80 L 145.90,122.47 L 145.65,123.10 L 145.34,123.71 L 144.98,124.31 L 144.57,124.89 L 144.11,125.49 L 143.60,126.10 L 143.05,126.73 L 142.44,127.40 L 141.79,128.11 L 141.10,128.88 L 140.37,129.71 L 139.59,130.61 L 138.78,131.58 L 137.94,132.64 L 137.06,133.78 L 136.16,135.00 L 135.22,136.31 L 134.26,137.70 L 133.28,139.18 L 132.29,140.73 L 131.27,142.36 L 130.24,144.05 L 129.21,145.79 L 128.16,147.58 L 127.11,149.40 L 126.05,151.25 L 125.00,153.10 L 123.95,154.94 L 122.90,156.77 L 121.86,158.56 L 120.83,160.30 L 119.81,161.98 L 118.80,163.57 L 117.80,165.07 L 116.82,166.47 L 115.85,167.75 L 114.90,168.89 L 113.97,169.90 L 113.05,170.75 L 112.16,171.45 L 111.28,171.99 L 110.42,172.37 L 109.58,172.58 L 108.75,172.62 L 107.94,172.50 L 107.15,172.22 L 106.37,171.79 L 105.61,171.21 L 104.86,170.49 L 104.12,169.65 L 103.39,168.69 L 102.66,167.63 L 101.95,166.48 L 101.24,165.26 L 100.53,163.98 L 99.82,162.67 L 99.12,161.33 L 98.41,159.98 L 97.70,158.64 L 96.98,157.33 L 96.25,156.05 L 95.52,154.83 L 94.77,153.67 L 94.01,152.59 L 93.24,151.60 L 92.46,150.71 L 91.66,149.91 L 90.84,149.23 L 90.01,148.65 L 89.15,148.19 L 88.28,147.84 L 87.40,147.60 L 86.49,147.47 L 85.57,147.43 L 84.63,147.49 L 83.67,147.64 L 82.69,147.86 L 81.70,148.14 L 80.70,148.47 L 79.68,148.84 L 78.66,149.24 L 77.62,149.64 L 76.58,150.04 L 75.53,150.42 L 74.47,150.77 L 73.42,151.07 L 72.37,151.31 L 71.32,151.48 L 70.27,151.56 L 69.24,151.56 L 68.22,151.45 L 67.21,151.23 L 66.22,150.90 L 65.25,150.45 L 64.31,149.87 L 63.39,149.18 L 62.50,148.36 L 61.63,147.42 L 60.81,146.36 L 60.02,145.19 L 59.26,143.91 L 58.55,142.54 L 57.88,141.08 L 57.25,139.54 L 56.67,137.92 L 56.14,136.25 L 55.65,134.53 L 55.22,132.78 L 54.83,131.00 L 54.50,129.21 L 54.22,127.41 L 53.99,125.62 L 53.81,123.85 L 53.69,122.10 L 53.61,120.39 L 53.59,118.72 L 53.61,117.10 L 53.69,115.53 L 53.81,114.01 L 53.98,112.55 L 54.19,111.14 L 54.45,109.79 L 54.74,108.49 L 55.08,107.25 L 55.44,106.05 L 55.85,104.89 L 56.28,103.77 L 56.74,102.67 L 57.23,101.59 L 57.74,100.53 L 58.27,99.47 L 58.81,98.41 L 59.37,97.33 L 59.95,96.23 L 60.53,95.11 L 61.12,93.95 L 61.71,92.75 L 62.30,91.51 L 62.89,90.21 L 63.48,88.86 L 64.06,87.45 L 64.63,85.99 L 65.19,84.47 L 65.74,82.90 L 66.28,81.28 L 66.81,79.61 L 67.31,77.90 L 67.81,76.15 L 68.28,74.38 L 68.74,72.59 L 69.18,70.79 L 69.60,69.00 L 70.00,67.22 L 70.38,65.47 L 70.75,63.75 L 71.10,62.08 L 71.44,60.46 L 71.76,58.92 L 72.07,57.46 L 72.37,56.09 L 72.66,54.81 L 72.93,53.64 L 73.21,52.58 L 73.47,51.64 L 73.74,50.82 L 74.00,50.13 L 74.27,49.55 L 74.54,49.10 L 74.81,48.77 L 75.09,48.55 L 75.39,48.44 L 75.69,48.44 L 76.01,48.52 L 76.35,48.69 L 76.71,48.93 L 77.09,49.23 L 77.49,49.58 L 77.91,49.96 L 78.36,50.36 L 78.84,50.76 L 79.34,51.16 L 79.87,51.53 L 80.44,51.86 L 81.03,52.14 L 81.66,52.36 L 82.31,52.51 L 83.00,52.57 L 83.72,52.53 L 84.47,52.40 L 85.26,52.16 L 86.07,51.81 L 86.91,51.35 L 87.78,50.77 L 88.67,50.09 L 89.59,49.29 L 90.53,48.40 L 91.50,47.41 L 92.48,46.33 L 93.48,45.17 L 94.50,43.95 L 95.53,42.67 L 96.57,41.36 L 97.62,40.02 L 98.68,38.67 L 99.74,37.33 L 100.79,36.02 L 101.85,34.74 L 102.90,33.52 L 103.95,32.37 L 104.99,31.31 L 106.01,30.35 L 107.02,29.51 L 108.01,28.79 L 108.99,28.21 L 109.94,27.78 L 110.87,27.50 L 111.78,27.38 L 112.66,27.42 L 113.52,27.63 L 114.34,28.01 L 115.14,28.55 L 115.91,29.25 L 116.64,30.10 L 117.35,31.11 L 118.02,32.25 L 118.66,33.53 L 119.27,34.93 L 119.85,36.43 L 120.40,38.02 L 120.92,39.70 L 121.41,41.44 L 121.87,43.23 L 122.31,45.06 L 122.72,46.90 L 123.10,48.75 L 123.47,50.60 L 123.82,52.42 L 124.15,54.21 L 124.46,55.95 L 124.76,57.64 L 125.05,59.27 L 125.33,60.82 L 125.60,62.30 L 125.87,63.69 L 126.13,65.00 L 126.39,66.22 L 126.66,67.36 L 126.93,68.42 L 127.20,69.39 L 127.49,70.29 L 127.78,71.12 L 128.08,71.89 L 128.40,72.60 L 128.73,73.27 L 129.07,73.90 L 129.43,74.51 L 129.81,75.11 L 130.20,75.69 L 130.61,76.29 L 131.04,76.90 L 131.49,77.53 L 131.96,78.20 L 132.44,78.91 L 132.94,79.67 L 133.46,80.49 L 133.99,81.37 L 134.53,82.31 L 135.09,83.32 L 135.66,84.40 L 136.23,85.55 L 136.82,86.77 L 137.41,88.05 L 138.00,89.40 L 138.59,90.80 L 139.18,92.25 L 139.76,93.74 L 140.34,95.28 L 140.91,96.84 L 141.46,98.41 L 142.00,100.00" fill="none" stroke="#0ff" stroke-width="1" /><path d="M 140.80,100.00 L 141.30,101.54 L 141.79,103.07 L 142.25,104.59 L 142.68,106.08 L 143.09,107.53 L 143.47,108.94 L 143.81,110.30 L 144.11,111.61 L 144.38,112.85 L 144.61,114.03 L 144.79,115.15 L 144.93,116.20 L 145.03,117.18 L 145.08,118.10 L 145.08,118.95 L 145.03,119.75 L 144.94,120.49 L 144.79,121.18 L 144.59,121.83 L 144.34,122.44 L 144.05,123.04 L 143.70,123.61 L 143.30,124.18 L 142.85,124.76 L 142.36,125.35 L 141.82,125.97 L 141.23,126.62 L 140.60,127.31 L 139.93,128.06 L 139.21,128.86 L 138.46,129.74 L 137.68,130.68 L 136.85,131.71 L 136.00,132.81 L 135.12,134.00 L 134.22,135.27 L 133.28,136.63 L 132.33,138.06 L 131.36,139.57 L 130.38,141.15 L 129.38,142.79 L 128.37,144.48 L 127.35,146.22 L 126.33,147.99 L 125.31,149.78 L 124.29,151.58 L 123.26,153.37 L 122.25,155.15 L 121.24,156.89 L 120.23,158.58 L 119.24,160.21 L 118.26,161.76 L 117.29,163.22 L 116.34,164.57 L 115.40,165.81 L 114.48,166.92 L 113.57,167.90 L 112.68,168.73 L 111.81,169.41 L 110.96,169.94 L 110.12,170.30 L 109.30,170.51 L 108.50,170.55 L 107.71,170.43 L 106.94,170.16 L 106.19,169.74 L 105.45,169.17 L 104.72,168.48 L 104.00,167.66 L 103.29,166.72 L 102.59,165.69 L 101.89,164.58 L 101.20,163.40 L 100.51,162.16 L 99.83,160.88 L 99.14,159.58 L 98.45,158.27 L 97.76,156.97 L 97.06,155.69 L 96.36,154.45 L 95.64,153.26 L 94.92,152.14 L 94.18,151.09 L 93.43,150.13 L 92.67,149.26 L 91.89,148.49 L 91.10,147.82 L 90.29,147.26 L 89.46,146.81 L 88.62,146.47 L 87.76,146.24 L 86.88,146.11 L 85.98,146.08 L 85.07,146.14 L 84.13,146.28 L 83.19,146.49 L 82.23,146.76 L 81.25,147.09 L 80.26,147.45 L 79.27,147.83 L 78.26,148.22 L 77.24,148.61 L 76.22,148.98 L 75.20,149.32 L 74.18,149.61 L 73.16,149.84 L 72.14,150.01 L 71.12,150.09 L 70.12,150.08 L 69.13,149.98 L 68.15,149.77 L 67.19,149.44 L 66.25,149.00 L 65.33,148.45 L 64.43,147.77 L 63.57,146.97 L 62.73,146.06 L 61.93,145.03 L 61.16,143.90 L 60.43,142.66 L 59.73,141.33 L 59.08,139.91 L 58.47,138.41 L 57.91,136.84 L 57.39,135.22 L 56.92,133.55 L 56.50,131.84 L 56.12,130.11 L 55.80,128.37 L 55.53,126.63 L 55.30,124.89 L 55.13,123.17 L 55.01,121.47 L 54.94,119.81 L 54.91,118.19 L 54.94,116.61 L 55.01,115.08 L 55.13,113.61 L 55.30,112.19 L 55.50,110.82 L 55.75,109.51 L 56.04,108.25 L 56.36,107.04 L 56.72,105.88 L 57.11,104.75 L 57.53,103.66 L 57.98,102.59 L 58.45,101.55 L 58.95,100.51 L 59.46,99.49 L 59.99,98.45 L 60.54,97.41 L 61.09,96.34 L 61.66,95.25 L 62.23,94.12 L 62.80,92.96 L 63.38,91.75 L 63.95,90.49 L 64.52,89.18 L 65.08,87.81 L 65.64,86.39 L 66.19,84.92 L 66.72,83.39 L 67.24,81.81 L 67.75,80.19 L 68.25,78.53 L 68.73,76.83 L 69.19,75.11 L 69.63,73.37 L 70.06,71.63 L 70.47,69.89 L 70.86,68.16 L 71.23,66.45 L 71.59,64.78 L 71.93,63.16 L 72.26,61.59 L 72.57,60.09 L 72.87,58.67 L 73.16,57.34 L 73.44,56.10 L 73.71,54.97 L 73.97,53.94 L 74.23,53.03 L 74.49,52.23 L 74.74,51.55 L 75.00,51.00 L 75.26,50.56 L 75.53,50.23 L 75.81,50.02 L 76.09,49.92 L 76.39,49.91 L 76.70,49.99 L 77.03,50.16 L 77.37,50.39 L 77.74,50.68 L 78.13,51.02 L 78.54,51.39 L 78.98,51.78 L 79.44,52.17 L 79.93,52.55 L 80.45,52.91 L 81.00,53.24 L 81.57,53.51 L 82.18,53.72 L 82.82,53.86 L 83.49,53.92 L 84.19,53.89 L 84.92,53.76 L 85.68,53.53 L 86.46,53.19 L 87.28,52.74 L 88.12,52.18 L 88.99,51.51 L 89.89,50.74 L 90.80,49.87 L 91.74,48.91 L 92.70,47.86 L 93.67,46.74 L 94.66,45.55 L 95.66,44.31 L 96.67,43.03 L 97.69,41.73 L 98.71,40.42 L 99.74,39.12 L 100.77,37.84 L 101.80,36.60 L 102.82,35.42 L 103.84,34.31 L 104.84,33.28 L 105.84,32.34 L 106.82,31.52 L 107.78,30.83 L 108.73,30.26 L 109.66,29.84 L 110.56,29.57 L 111.44,29.45 L 112.30,29.49 L 113.13,29.70 L 113.93,30.06 L 114.71,30.59 L 115.45,31.27 L 116.17,32.10 L 116.85,33.08 L 117.50,34.19 L 118.13,35.43 L 118.72,36.78 L 119.28,38.24 L 119.81,39.79 L 120.32,41.42 L 120.79,43.11 L 121.24,44.85 L 121.67,46.63 L 122.07,48.42 L 122.44,50.22 L 122.80,52.01 L 123.14,53.78 L 123.46,55.52 L 123.76,57.21 L 124.05,58.85 L 124.33,60.43 L 124.60,61.94 L 124.87,63.37 L 125.13,64.73 L 125.38,66.00 L 125.64,67.19 L 125.90,68.29 L 126.16,69.32 L 126.43,70.26 L 126.70,71.14 L 126.98,71.94 L 127.28,72.69 L 127.59,73.38 L 127.90,74.03 L 128.24,74.65 L 128.59,75.24 L 128.95,75.82 L 129.34,76.39 L 129.74,76.96 L 130.15,77.56 L 130.59,78.17 L 131.04,78.82 L 131.51,79.51 L 132.00,80.25 L 132.50,81.05 L 133.02,81.90 L 133.54,82.82 L 134.09,83.80 L 134.64,84.85 L 135.20,85.97 L 135.77,87.15 L 136.34,88.39 L 136.91,89.70 L 137.49,91.06 L 138.06,92.47 L 138.63,93.92 L 139.19,95.41 L 139.74,96.93 L 140.28,98.46 L 140.80,100.00" fill="none" stroke="#0ff" stroke-width="1" /><path d="M 139.60,100.00 L 140.09,101.50 L 140.56,102.98 L 141.01,104.45 L 141.43,105.90 L 141.82,107.31 L 142.19,108.68 L 142.52,110.00 L 142.81,111.26 L 143.07,112.47 L 143.29,113.62 L 143.47,114.71 L 143.61,115.72 L 143.71,116.68 L 143.75,117.57 L 143.75,118.40 L 143.71,119.17 L 143.61,119.88 L 143.47,120.55 L 143.28,121.18 L 143.04,121.78 L 142.75,122.36 L 142.41,122.92 L 142.03,123.47 L 141.59,124.03 L 141.11,124.60 L 140.59,125.20 L 140.02,125.83 L 139.40,126.51 L 138.75,127.23 L 138.06,128.01 L 137.33,128.86 L 136.57,129.78 L 135.77,130.77 L 134.94,131.85 L 134.09,133.00 L 133.21,134.24 L 132.31,135.55 L 131.38,136.94 L 130.44,138.40 L 129.48,139.94 L 128.52,141.53 L 127.54,143.17 L 126.55,144.86 L 125.56,146.58 L 124.57,148.32 L 123.57,150.06 L 122.58,151.80 L 121.59,153.53 L 120.61,155.21 L 119.64,156.86 L 118.67,158.44 L 117.72,159.94 L 116.78,161.36 L 115.86,162.67 L 114.95,163.88 L 114.05,164.96 L 113.17,165.90 L 112.31,166.71 L 111.46,167.37 L 110.63,167.88 L 109.82,168.23 L 109.03,168.43 L 108.25,168.47 L 107.49,168.36 L 106.74,168.10 L 106.01,167.69 L 105.29,167.14 L 104.58,166.46 L 103.88,165.67 L 103.19,164.76 L 102.51,163.76 L 101.84,162.68 L 101.17,161.53 L 100.50,160.33 L 99.83,159.09 L 99.17,157.82 L 98.50,156.55 L 97.83,155.29 L 97.15,154.05 L 96.46,152.85 L 95.77,151.70 L 95.07,150.61 L 94.35,149.59 L 93.63,148.65 L 92.89,147.81 L 92.13,147.06 L 91.36,146.41 L 90.58,145.87 L 89.77,145.44 L 88.95,145.11 L 88.12,144.88 L 87.26,144.75 L 86.39,144.72 L 85.50,144.78 L 84.60,144.92 L 83.68,145.12 L 82.75,145.39 L 81.80,145.70 L 80.84,146.05 L 79.88,146.42 L 78.90,146.80 L 77.91,147.18 L 76.92,147.54 L 75.93,147.87 L 74.94,148.15 L 73.94,148.38 L 72.96,148.54 L 71.97,148.62 L 71.00,148.61 L 70.04,148.51 L 69.09,148.30 L 68.15,147.99 L 67.24,147.56 L 66.35,147.02 L 65.48,146.37 L 64.64,145.59 L 63.83,144.71 L 63.05,143.71 L 62.30,142.61 L 61.59,141.41 L 60.92,140.11 L 60.28,138.73 L 59.69,137.28 L 59.15,135.76 L 58.64,134.18 L 58.19,132.56 L 57.78,130.91 L 57.41,129.23 L 57.10,127.54 L 56.83,125.84 L 56.62,124.16 L 56.45,122.49 L 56.33,120.84 L 56.26,119.23 L 56.24,117.65 L 56.27,116.12 L 56.34,114.64 L 56.45,113.21 L 56.61,111.83 L 56.81,110.50 L 57.05,109.23 L 57.33,108.01 L 57.64,106.83 L 57.99,105.70 L 58.37,104.61 L 58.78,103.55 L 59.21,102.52 L 59.67,101.50 L 60.15,100.50 L 60.65,99.50 L 61.17,98.50 L 61.70,97.48 L 62.24,96.45 L 62.78,95.39 L 63.34,94.30 L 63.89,93.17 L 64.45,91.99 L 65.01,90.77 L 65.56,89.50 L 66.11,88.17 L 66.65,86.79 L 67.18,85.36 L 67.70,83.88 L 68.21,82.35 L 68.70,80.77 L 69.18,79.16 L 69.64,77.51 L 70.09,75.84 L 70.52,74.16 L 70.94,72.46 L 71.33,70.77 L 71.71,69.09 L 72.08,67.44 L 72.42,65.82 L 72.76,64.24 L 73.07,62.72 L 73.38,61.27 L 73.67,59.89 L 73.95,58.59 L 74.22,57.39 L 74.48,56.29 L 74.74,55.29 L 74.99,54.41 L 75.24,53.63 L 75.49,52.98 L 75.74,52.44 L 75.99,52.01 L 76.25,51.70 L 76.52,51.49 L 76.79,51.39 L 77.08,51.38 L 77.39,51.46 L 77.70,51.62 L 78.04,51.85 L 78.40,52.13 L 78.77,52.46 L 79.17,52.82 L 79.60,53.20 L 80.04,53.58 L 80.52,53.95 L 81.02,54.30 L 81.55,54.61 L 82.11,54.88 L 82.70,55.08 L 83.32,55.22 L 83.97,55.28 L 84.65,55.25 L 85.36,55.12 L 86.10,54.89 L 86.86,54.56 L 87.66,54.13 L 88.47,53.59 L 89.32,52.94 L 90.18,52.19 L 91.07,51.35 L 91.98,50.41 L 92.91,49.39 L 93.86,48.30 L 94.82,47.15 L 95.79,45.95 L 96.77,44.71 L 97.76,43.45 L 98.75,42.18 L 99.75,40.91 L 100.75,39.67 L 101.75,38.47 L 102.74,37.32 L 103.72,36.24 L 104.70,35.24 L 105.67,34.33 L 106.62,33.54 L 107.55,32.86 L 108.47,32.31 L 109.37,31.90 L 110.25,31.64 L 111.11,31.53 L 111.94,31.57 L 112.74,31.77 L 113.52,32.12 L 114.27,32.63 L 115.00,33.29 L 115.69,34.10 L 116.35,35.04 L 116.99,36.12 L 117.59,37.33 L 118.17,38.64 L 118.71,40.06 L 119.23,41.56 L 119.72,43.14 L 120.18,44.79 L 120.62,46.47 L 121.03,48.20 L 121.42,49.94 L 121.78,51.68 L 122.13,53.42 L 122.46,55.14 L 122.77,56.83 L 123.06,58.47 L 123.35,60.06 L 123.62,61.60 L 123.88,63.06 L 124.14,64.45 L 124.39,65.76 L 124.64,67.00 L 124.89,68.15 L 125.14,69.23 L 125.39,70.22 L 125.65,71.14 L 125.92,71.99 L 126.19,72.77 L 126.48,73.49 L 126.77,74.17 L 127.08,74.80 L 127.41,75.40 L 127.75,75.97 L 128.10,76.53 L 128.47,77.08 L 128.86,77.64 L 129.27,78.22 L 129.69,78.82 L 130.13,79.45 L 130.58,80.12 L 131.06,80.83 L 131.54,81.60 L 132.04,82.43 L 132.56,83.32 L 133.08,84.28 L 133.62,85.29 L 134.16,86.38 L 134.71,87.53 L 135.27,88.74 L 135.83,90.00 L 136.38,91.32 L 136.94,92.69 L 137.49,94.10 L 138.04,95.55 L 138.57,97.02 L 139.09,98.50 L 139.60,100.00" fill="none" stroke="#0ff" stroke-width="1" /><path d="M 138.40,100.00 L 138.88,101.45 L 139.33,102.89 L 139.76,104.32 L 140.17,105.72 L 140.56,107.09 L 140.91,108.41 L 141.23,109.69 L 141.52,110.92 L 141.77,112.10 L 141.98,113.21 L 142.16,114.26 L 142.29,115.25 L 142.38,116.17 L 142.43,117.04 L 142.43,117.84 L 142.38,118.59 L 142.29,119.28 L 142.15,119.93 L 141.97,120.54 L 141.74,121.12 L 141.45,121.68 L 141.13,122.22 L 140.75,122.76 L 140.33,123.30 L 139.87,123.86 L 139.36,124.44 L 138.80,125.05 L 138.21,125.70 L 137.58,126.40 L 136.91,127.16 L 136.20,127.99 L 135.46,128.88 L 134.69,129.84 L 133.89,130.88 L 133.06,132.00 L 132.20,133.20 L 131.33,134.47 L 130.43,135.82 L 129.52,137.24 L 128.59,138.73 L 127.65,140.27 L 126.70,141.86 L 125.75,143.50 L 124.78,145.17 L 123.82,146.85 L 122.86,148.55 L 121.90,150.23 L 120.94,151.90 L 119.99,153.54 L 119.04,155.13 L 118.11,156.66 L 117.19,158.12 L 116.27,159.50 L 115.38,160.77 L 114.49,161.94 L 113.62,162.99 L 112.77,163.91 L 111.94,164.69 L 111.12,165.33 L 110.31,165.82 L 109.53,166.17 L 108.75,166.36 L 108.00,166.40 L 107.26,166.29 L 106.54,166.03 L 105.83,165.64 L 105.13,165.10 L 104.44,164.45 L 103.76,163.68 L 103.10,162.80 L 102.44,161.83 L 101.78,160.78 L 101.13,159.67 L 100.48,158.50 L 99.84,157.30 L 99.19,156.07 L 98.54,154.84 L 97.89,153.62 L 97.24,152.42 L 96.57,151.25 L 95.90,150.13 L 95.22,149.07 L 94.53,148.09 L 93.82,147.18 L 93.10,146.36 L 92.37,145.63 L 91.62,145.01 L 90.86,144.48 L 90.08,144.06 L 89.29,143.74 L 88.48,143.52 L 87.65,143.40 L 86.80,143.37 L 85.94,143.42 L 85.07,143.56 L 84.18,143.76 L 83.27,144.01 L 82.35,144.32 L 81.43,144.66 L 80.49,145.02 L 79.54,145.39 L 78.58,145.75 L 77.62,146.10 L 76.66,146.42 L 75.70,146.69 L 74.73,146.91 L 73.78,147.06 L 72.82,147.14 L 71.88,147.14 L 70.94,147.04 L 70.02,146.84 L 69.12,146.53 L 68.23,146.12 L 67.37,145.60 L 66.53,144.96 L 65.71,144.21 L 64.92,143.35 L 64.17,142.38 L 63.44,141.32 L 62.75,140.15 L 62.10,138.90 L 61.49,137.56 L 60.91,136.15 L 60.38,134.67 L 59.90,133.15 L 59.45,131.57 L 59.05,129.97 L 58.70,128.34 L 58.40,126.70 L 58.14,125.06 L 57.93,123.42 L 57.77,121.80 L 57.66,120.21 L 57.59,118.64 L 57.57,117.12 L 57.59,115.63 L 57.66,114.20 L 57.77,112.81 L 57.92,111.47 L 58.12,110.18 L 58.35,108.95 L 58.62,107.77 L 58.93,106.63 L 59.26,105.53 L 59.63,104.47 L 60.03,103.44 L 60.45,102.44 L 60.89,101.46 L 61.36,100.48 L 61.84,99.52 L 62.34,98.54 L 62.86,97.56 L 63.38,96.56 L 63.91,95.53 L 64.45,94.47 L 64.99,93.37 L 65.53,92.23 L 66.07,91.05 L 66.61,89.82 L 67.14,88.53 L 67.66,87.19 L 68.18,85.80 L 68.68,84.37 L 69.17,82.88 L 69.65,81.36 L 70.12,79.79 L 70.56,78.20 L 71.00,76.58 L 71.42,74.94 L 71.82,73.30 L 72.20,71.66 L 72.57,70.03 L 72.92,68.43 L 73.26,66.85 L 73.58,65.33 L 73.89,63.85 L 74.18,62.44 L 74.47,61.10 L 74.74,59.85 L 75.00,58.68 L 75.25,57.62 L 75.50,56.65 L 75.75,55.79 L 75.99,55.04 L 76.23,54.40 L 76.47,53.88 L 76.72,53.47 L 76.97,53.16 L 77.23,52.96 L 77.50,52.86 L 77.78,52.86 L 78.07,52.94 L 78.38,53.09 L 78.71,53.31 L 79.05,53.58 L 79.42,53.90 L 79.80,54.25 L 80.21,54.61 L 80.65,54.98 L 81.11,55.34 L 81.60,55.68 L 82.11,55.99 L 82.66,56.24 L 83.23,56.44 L 83.83,56.58 L 84.46,56.63 L 85.12,56.60 L 85.80,56.48 L 86.52,56.26 L 87.26,55.94 L 88.03,55.52 L 88.82,54.99 L 89.64,54.37 L 90.48,53.64 L 91.34,52.82 L 92.23,51.91 L 93.13,50.93 L 94.04,49.87 L 94.97,48.75 L 95.91,47.58 L 96.87,46.38 L 97.83,45.16 L 98.79,43.93 L 99.76,42.70 L 100.73,41.50 L 101.69,40.33 L 102.65,39.22 L 103.61,38.17 L 104.56,37.20 L 105.49,36.32 L 106.42,35.55 L 107.33,34.90 L 108.22,34.36 L 109.09,33.97 L 109.94,33.71 L 110.77,33.60 L 111.58,33.64 L 112.36,33.83 L 113.11,34.18 L 113.84,34.67 L 114.54,35.31 L 115.22,36.09 L 115.86,37.01 L 116.47,38.06 L 117.06,39.23 L 117.62,40.50 L 118.15,41.88 L 118.65,43.34 L 119.12,44.87 L 119.57,46.46 L 119.99,48.10 L 120.39,49.77 L 120.77,51.45 L 121.12,53.15 L 121.46,54.83 L 121.78,56.50 L 122.08,58.14 L 122.36,59.73 L 122.64,61.27 L 122.90,62.76 L 123.16,64.18 L 123.41,65.53 L 123.65,66.80 L 123.89,68.00 L 124.13,69.12 L 124.38,70.16 L 124.62,71.12 L 124.87,72.01 L 125.13,72.84 L 125.40,73.60 L 125.67,74.30 L 125.96,74.95 L 126.26,75.56 L 126.58,76.14 L 126.91,76.70 L 127.25,77.24 L 127.61,77.78 L 127.99,78.32 L 128.38,78.88 L 128.79,79.46 L 129.22,80.07 L 129.66,80.72 L 130.12,81.41 L 130.59,82.16 L 131.07,82.96 L 131.57,83.83 L 132.08,84.75 L 132.60,85.74 L 133.13,86.79 L 133.66,87.90 L 134.20,89.08 L 134.74,90.31 L 135.28,91.59 L 135.82,92.91 L 136.35,94.28 L 136.88,95.68 L 137.40,97.11 L 137.91,98.55 L 138.40,100.00" fill="none" stroke="#0ff" stroke-width="1" /><path d="M 137.20,100.00 L 137.66,101.41 L 138.10,102.80 L 138.52,104.18 L 138.92,105.54 L 139.29,106.86 L 139.63,108.15 L 139.94,109.39 L 140.22,110.58 L 140.46,111.72 L 140.67,112.80 L 140.84,113.81 L 140.97,114.77 L 141.06,115.67 L 141.10,116.50 L 141.10,117.28 L 141.06,118.00 L 140.97,118.68 L 140.84,119.31 L 140.66,119.90 L 140.43,120.46 L 140.16,121.00 L 139.84,121.53 L 139.48,122.05 L 139.07,122.57 L 138.62,123.11 L 138.13,123.67 L 137.59,124.27 L 137.02,124.90 L 136.40,125.58 L 135.75,126.31 L 135.07,127.11 L 134.35,127.97 L 133.60,128.91 L 132.83,129.92 L 132.02,131.00 L 131.20,132.16 L 130.35,133.39 L 129.48,134.70 L 128.60,136.08 L 127.70,137.52 L 126.79,139.01 L 125.87,140.56 L 124.94,142.14 L 124.01,143.76 L 123.08,145.39 L 122.14,147.03 L 121.21,148.66 L 120.28,150.28 L 119.36,151.87 L 118.45,153.41 L 117.54,154.89 L 116.65,156.31 L 115.77,157.64 L 114.90,158.87 L 114.04,160.00 L 113.20,161.02 L 112.37,161.91 L 111.56,162.67 L 110.77,163.29 L 109.99,163.77 L 109.23,164.10 L 108.48,164.28 L 107.75,164.32 L 107.03,164.22 L 106.33,163.97 L 105.64,163.58 L 104.97,163.07 L 104.30,162.43 L 103.65,161.69 L 103.00,160.84 L 102.36,159.90 L 101.73,158.88 L 101.10,157.80 L 100.47,156.67 L 99.84,155.51 L 99.22,154.32 L 98.59,153.13 L 97.96,151.94 L 97.32,150.78 L 96.68,149.65 L 96.03,148.56 L 95.37,147.54 L 94.70,146.58 L 94.01,145.71 L 93.32,144.91 L 92.61,144.21 L 91.89,143.60 L 91.15,143.09 L 90.39,142.68 L 89.62,142.37 L 88.84,142.16 L 88.03,142.04 L 87.22,142.01 L 86.38,142.07 L 85.53,142.19 L 84.67,142.39 L 83.79,142.64 L 82.91,142.93 L 82.01,143.26 L 81.10,143.61 L 80.18,143.97 L 79.25,144.32 L 78.32,144.66 L 77.39,144.96 L 76.46,145.23 L 75.52,145.44 L 74.59,145.59 L 73.67,145.67 L 72.76,145.66 L 71.85,145.57 L 70.96,145.38 L 70.08,145.08 L 69.23,144.68 L 68.39,144.17 L 67.57,143.56 L 66.78,142.83 L 66.02,142.00 L 65.29,141.06 L 64.58,140.02 L 63.92,138.90 L 63.29,137.68 L 62.69,136.38 L 62.14,135.02 L 61.62,133.59 L 61.15,132.11 L 60.72,130.59 L 60.33,129.03 L 59.99,127.46 L 59.70,125.87 L 59.45,124.28 L 59.25,122.69 L 59.09,121.12 L 58.98,119.58 L 58.91,118.06 L 58.89,116.58 L 58.92,115.14 L 58.98,113.75 L 59.09,112.41 L 59.24,111.11 L 59.43,109.87 L 59.65,108.67 L 59.91,107.52 L 60.21,106.42 L 60.54,105.36 L 60.89,104.33 L 61.28,103.34 L 61.69,102.36 L 62.12,101.41 L 62.57,100.47 L 63.04,99.53 L 63.52,98.59 L 64.02,97.64 L 64.52,96.66 L 65.04,95.67 L 65.56,94.64 L 66.08,93.58 L 66.61,92.48 L 67.13,91.33 L 67.65,90.13 L 68.16,88.89 L 68.67,87.59 L 69.17,86.25 L 69.66,84.86 L 70.13,83.42 L 70.60,81.94 L 71.05,80.42 L 71.48,78.88 L 71.91,77.31 L 72.31,75.72 L 72.70,74.13 L 73.07,72.54 L 73.43,70.97 L 73.77,69.41 L 74.10,67.89 L 74.41,66.41 L 74.70,64.98 L 74.99,63.62 L 75.26,62.32 L 75.53,61.10 L 75.78,59.98 L 76.03,58.94 L 76.27,58.00 L 76.50,57.17 L 76.74,56.44 L 76.97,55.83 L 77.21,55.32 L 77.45,54.92 L 77.69,54.62 L 77.94,54.43 L 78.20,54.34 L 78.47,54.33 L 78.76,54.41 L 79.06,54.56 L 79.37,54.77 L 79.71,55.04 L 80.06,55.34 L 80.43,55.68 L 80.83,56.03 L 81.25,56.39 L 81.70,56.74 L 82.17,57.07 L 82.67,57.36 L 83.20,57.61 L 83.75,57.81 L 84.33,57.93 L 84.94,57.99 L 85.58,57.96 L 86.25,57.84 L 86.94,57.63 L 87.66,57.32 L 88.40,56.91 L 89.17,56.40 L 89.96,55.79 L 90.78,55.09 L 91.61,54.29 L 92.47,53.42 L 93.34,52.46 L 94.23,51.44 L 95.13,50.35 L 96.04,49.22 L 96.96,48.06 L 97.89,46.87 L 98.83,45.68 L 99.77,44.49 L 100.70,43.33 L 101.64,42.20 L 102.57,41.12 L 103.50,40.10 L 104.42,39.16 L 105.32,38.31 L 106.22,37.57 L 107.10,36.93 L 107.96,36.42 L 108.81,36.03 L 109.63,35.78 L 110.43,35.68 L 111.22,35.72 L 111.97,35.90 L 112.70,36.23 L 113.41,36.71 L 114.09,37.33 L 114.74,38.09 L 115.36,38.98 L 115.96,40.00 L 116.53,41.13 L 117.07,42.36 L 117.58,43.69 L 118.07,45.11 L 118.53,46.59 L 118.96,48.13 L 119.37,49.72 L 119.76,51.34 L 120.12,52.97 L 120.46,54.61 L 120.79,56.24 L 121.10,57.86 L 121.39,59.44 L 121.67,60.99 L 121.93,62.48 L 122.19,63.92 L 122.43,65.30 L 122.67,66.61 L 122.91,67.84 L 123.14,69.00 L 123.38,70.08 L 123.61,71.09 L 123.85,72.03 L 124.10,72.89 L 124.35,73.69 L 124.60,74.42 L 124.87,75.10 L 125.15,75.73 L 125.44,76.33 L 125.75,76.89 L 126.07,77.43 L 126.40,77.95 L 126.75,78.47 L 127.11,79.00 L 127.49,79.54 L 127.89,80.10 L 128.30,80.69 L 128.73,81.32 L 129.17,82.00 L 129.63,82.72 L 130.10,83.50 L 130.58,84.33 L 131.08,85.23 L 131.58,86.19 L 132.09,87.20 L 132.61,88.28 L 133.13,89.42 L 133.65,90.61 L 134.18,91.85 L 134.70,93.14 L 135.22,94.46 L 135.73,95.82 L 136.23,97.20 L 136.72,98.59 L 137.20,100.00" fill="none" stroke="#0ff" stroke-width="1" /></svg>