<?xml version="1.0" encoding="utf-8" ?>
<svg baseProfile="tiny" height="512" version="1.2" width="512" xmlns="http://www.w3.org/2000/svg" xmlns:ev="http://www.w3.org/2001/xml-events" xmlns:xlink="http://www.w3.org/1999/xlink"><defs /><polygon fill="none" points="289.5925,256.0 289.3408,259.5043 274.617,259.9572 291.0812,267.3986 291.4565,271.7863 279.424,269.5239 274.4926,269.4357 282.4275,279.7954 280.4291,283.1312 277.9432,286.2023 272.4365,284.4688 267.5904,282.0324 266.9391,289.6669 263.5295,291.4236 260.3233,297.1339 256.0,291.6884 252.6051,288.3005 250.7155,280.8615 249.3281,276.5339 242.4151,286.5122 241.1979,281.638 238.6912,279.8235 232.4188,282.1896 240.5588,269.9033 223.6222,279.5238 225.0569,273.865 225.4183,269.6159 226.666,265.5312 235.0234,260.4587 236.0636,258.0954 214.1362,256.0 236.6243,253.9635 237.1616,251.9958 216.2929,243.0984 222.5673,241.1148 238.076,245.6516 232.1977,238.7066 239.386,241.0407 236.469,234.3087 234.5044,226.4138 238.3368,225.4065 247.7829,237.5441 250.2579,238.3277 248.9837,222.9908 253.5088,232.2979 256.0,236.8324 258.9649,227.7904 262.4806,225.5111 264.3415,230.3276 265.4415,234.7941 272.3568,227.6691 276.8702,227.2746 282.7115,226.3339 275.9332,238.0521 281.7991,237.2558 272.0398,246.7394 292.8201,239.6066 294.7089,243.4227 284.0712,250.0333 290.4056,252.3838 293.5991,256.0" stroke="#ccc" stroke-width="1" /><polygon fill="none" points="298.4562,256.0 298.7788,260.4962 293.1573,263.898 291.8942,267.6627 300.5762,275.8466 280.5094,270.1505 293.6123,283.327 278.7803,276.5114 288.954,292.5992 278.8573,287.4603 269.9891,280.2298 266.4241,279.4128 267.2821,290.7226 264.2731,294.9219 258.8247,282.875 256.0,296.4561 251.9535,294.4999 246.5285,300.5601 242.9847,296.0568 240.8514,290.0243 242.9784,278.5541 230.9528,290.4745 231.3959,283.3257 226.4314,282.6237 237.6113,269.3602 212.0948,281.3487 215.3615,274.0934 222.511,266.8812 218.3204,264.009 217.9941,259.9946 227.3577,256.0 228.9475,253.1567 215.4584,247.3826 208.5808,240.5926 220.7291,240.2964 234.8203,243.7719 227.6864,235.4289 221.4577,224.8979 240.8039,239.123 230.5215,220.9319 235.4005,220.3207 240.6148,221.4442 247.0638,228.4973 245.6561,207.3358 251.2979,211.2624 256.0,217.8277 260.439,213.7658 261.3482,230.8387 271.396,208.616 273.7407,216.1538 269.2849,232.9899 272.3989,233.4288 284.8514,223.9573 288.9481,226.3334 275.8067,241.6096 287.9011,237.5819 300.82,236.0449 290.8405,244.6796 306.4638,245.2736 295.1663,251.8835 302.7566,256.0" stroke="#ccc" stroke-width="1" /><polygon fill="none" points="294.0352,256.0 306.7856,261.3378 297.5082,264.8228 301.7158,270.854 294.2,273.0077 309.9713,287.1604 282.5985,275.325 289.4428,286.112 284.0971,287.2049 273.0078,279.4093 271.5024,282.851 279.7723,309.3935 272.085,305.5046 265.6502,301.4007 259.1362,285.8393 256.0,304.494 249.4745,318.0861 242.9546,317.3737 243.7265,293.774 230.9647,312.2302 232.5233,296.6629 221.9555,302.8582 218.3744,297.7875 231.7923,277.7967 224.2898,279.0388 202.729,286.756 214.5688,274.4463 201.3252,273.7649 201.393,267.6071 213.9416,260.4205 196.9762,256.0 212.2807,251.4049 221.2077,248.6047 202.8961,238.7455 220.0585,239.9978 213.1637,231.2684 206.0435,219.7044 210.8288,215.3277 222.5009,218.7955 235.3331,227.5544 239.7535,227.8603 244.8341,230.9209 246.8191,227.7441 250.2285,228.8474 249.4227,193.4215 256.0,209.4448 259.7089,220.7119 268.3339,197.9737 274.0339,200.4974 275.1416,213.0072 271.1448,229.7685 286.429,214.1181 280.3873,228.9152 292.7145,222.9421 282.1029,237.0351 286.1368,238.6005 299.7391,236.5261 307.64,239.2212 286.6628,249.4824 289.1587,252.5149 313.0555,256.0" stroke="#ccc" stroke-width="1" /><polygon fill="none" points="291.4819,256.0 323.2363,263.0668 295.4143,264.3778 310.0041,273.547 321.3454,285.0937 315.1658,290.1594 288.2156,279.406 309.0802,303.7936 285.6114,288.8868 281.0402,290.4649 273.3929,286.1253 279.1127,307.912 277.4322,321.9614 270.0228,321.972 260.5387,299.1831 256.0,317.0555 252.4275,289.9901 249.1488,288.2326 244.906,290.1437 230.2738,313.7819 224.0341,311.3666 219.9332,305.6417 213.9982,302.6477 219.032,289.2861 198.1399,298.0378 206.3179,284.684 207.2082,277.7235 202.8481,273.2701 210.9336,265.5792 194.2104,262.4944 206.321,256.0 202.3979,250.3662 206.5622,245.4917 215.933,242.9814 219.4552,239.7292 215.3704,232.5425 219.4233,229.4255 217.779,221.5857 212.1907,207.3448 214.0218,198.222 221.8969,196.9316 237.063,213.4668 243.5327,217.6297 248.6694,221.5124 249.1064,190.4117 256.0,183.6777 259.3933,223.7146 269.4535,192.7064 274.6369,198.6416 276.2974,210.4114 287.2704,201.8381 277.355,226.6074 292.3275,215.6542 308.0034,209.176 301.468,222.9655 293.9435,234.0933 310.2588,231.8424 309.2673,238.6924 316.6717,243.1038 303.7533,250.9809 312.0952,256.0" stroke="#ccc" stroke-width="1" /><polygon fill="none" points="334.9017,256.0 331.1205,263.8955 305.3114,266.4815 293.6899,268.2462 328.0599,288.0831 317.7031,291.6243 317.1595,300.435 283.573,280.8268 291.5095,295.4373 291.0679,304.2669 283.4883,303.6111 281.1136,312.406 267.2123,290.5081 270.8585,325.9038 261.6817,310.058 256.0,301.4285 247.7478,334.5143 241.5941,323.7745 235.298,319.7143 229.6705,315.1371 226.8896,306.4206 209.2431,320.3554 223.7224,291.8479 209.7719,297.6239 201.9049,295.3024 220.4998,276.4961 183.129,288.4443 206.7734,271.9947 193.8336,269.2139 195.2936,262.3805 204.4831,256.0 179.2863,247.9371 190.445,242.0659 208.8709,240.6868 179.4026,221.8967 202.6501,225.1984 210.1605,222.6957 212.45,216.7874 226.378,223.1015 223.9302,211.8597 217.8857,189.9842 223.1008,182.1073 242.2474,213.6739 244.6499,202.6021 249.2924,192.1811 256.0,198.6845 263.4351,185.2593 264.7512,214.8289 273.4625,202.256 275.2436,212.7781 288.1353,200.34 286.297,214.2997 298.9311,208.3202 293.178,222.5248 313.6958,214.0815 315.1706,221.8378 330.8122,222.6915 315.9294,236.5278 319.5101,242.5005 309.8205,250.3432 306.6009,256.0" stroke="#ccc" stroke-width="1" /><polygon fill="none" points="309.0841,256.0 322.9224,263.0338 328.566,271.4244 329.2103,279.7875 333.3665,290.4458 332.7191,300.2938 325.1837,306.2649 298.1208,293.9258 291.5525,295.4851 297.519,313.146 281.9558,300.9568 294.0708,341.5084 280.2973,330.7794 271.5552,329.1816 265.4782,346.1793 256.0,316.5661 250.8854,304.662 241.8438,322.5995 238.8262,308.8556 233.7564,305.96 213.6103,329.4211 205.8202,325.0665 198.2919,320.0914 196.4378,309.63 183.9599,308.3402 186.8057,295.9494 174.6219,292.2319 170.6473,283.7328 195.1133,268.9419 206.9649,261.1538 199.5079,256.0 213.6599,251.5499 171.2481,237.9854 185.3029,233.0291 205.3859,233.4651 192.993,219.6229 197.51,213.5045 221.8872,225.2847 206.0964,200.5764 223.998,211.953 224.0955,200.7398 236.0041,211.0885 230.6503,177.9816 242.9007,194.3724 247.574,175.8316 256.0,175.4779 265.7965,162.7928 273.3087,174.5688 280.3857,180.9484 281.572,198.5643 288.1463,200.3209 306.6719,186.2561 285.7359,222.975 313.3174,204.3912 295.495,227.3052 319.7901,219.1708 297.8275,237.3772 322.1997,234.4904 307.5922,245.0337 311.066,250.2123 316.6637,256.0" stroke="#ccc" stroke-width="1" /><polygon fill="none" points="330.5207,256.0 310.1098,261.6872 343.8488,274.6728 313.0973,274.5521 339.5426,293.1956 337.238,302.9028 336.995,314.8463 312.322,306.7125 307.652,313.3653 315.5305,337.9366 306.4431,343.3699 275.3905,299.5518 288.2812,355.3512 276.8915,354.287 263.2139,324.6361 256.0,313.9331 250.8144,305.338 241.2546,325.3716 236.3726,316.4068 231.5354,310.9484 230.3914,300.3553 209.2721,320.3155 203.3435,314.481 192.2076,313.4389 194.5961,300.6125 184.3939,297.3418 176.2004,291.5291 178.4517,281.197 210.589,265.6524 194.7702,262.4355 182.7557,256.0 210.3155,251.1984 161.3423,235.8799 202.4122,238.5883 208.8351,235.0008 198.2298,222.6464 174.6647,196.9065 178.1923,185.9416 188.537,181.0747 209.2184,191.6107 217.5395,189.3845 226.1808,189.025 229.7111,175.091 238.0097,171.3622 249.5745,194.8653 256.0,170.1727 265.483,165.7748 273.9745,171.4368 279.8384,182.6329 294.6057,169.2902 279.4324,215.414 296.0416,200.8875 291.0875,217.0314 302.8186,213.8443 310.0092,216.76 310.2115,224.701 319.9062,227.5471 319.5152,235.3627 354.8834,234.9817 344.4425,246.7043 306.2767,256.0" stroke="#ccc" stroke-width="1" /><polygon fill="none" points="369.5502,256.0 360.8786,267.0232 359.9665,278.0988 306.1179,272.2843 354.4329,299.8252 333.276,300.6153 303.5798,290.5688 327.5079,320.386 310.4894,316.5166 315.1699,337.4403 291.3854,317.2893 277.8684,305.1173 272.1716,305.771 276.7632,353.6834 267.2118,362.6733 256.0,333.9762 249.312,319.6319 235.3006,353.3832 220.3924,365.589 217.2738,342.9804 223.6553,312.0226 214.5369,313.069 201.5203,316.5059 206.9762,300.1412 164.5772,322.4225 206.0905,284.8153 186.5728,286.911 156.7735,288.2406 177.8546,272.6103 190.5369,262.8805 194.2075,256.0 182.887,248.3155 178.3152,239.4876 188.4522,234.0524 178.4134,221.4562 166.1529,204.1267 181.0045,201.5126 208.0455,212.8216 220.8676,216.9815 217.7337,203.331 201.3382,161.323 229.524,196.5338 234.9061,191.0796 236.0302,162.0496 244.6335,147.8549 256.0,154.0209 261.8344,200.4892 276.2072,160.9328 284.7668,167.4649 292.6727,173.6318 291.4749,194.5557 289.2244,210.2706 314.5043,191.0244 335.6319,184.2991 345.9029,190.6818 346.6336,203.6727 345.5894,216.1122 343.3005,227.6343 328.8758,240.5098 320.7506,249.1944 322.2827,256.0" stroke="#ccc" stroke-width="1" /><polygon fill="none" points="317.058,256.0 358.8941,266.8146 352.6277,276.5389 326.8113,279.008 315.0217,282.2782 309.2696,286.7552 315.9067,299.5248 344.44,335.6317 302.7749,307.9488 304.9021,323.308 291.2379,317.0339 306.9359,370.4039 292.3525,367.8814 267.5056,310.1296 264.6087,337.9068 256.0,344.5541 249.2308,320.4043 238.9367,336.2766 231.5532,331.2395 224.1426,327.5528 202.2086,349.1695 199.7786,333.3821 202.5744,315.3352 215.8603,292.1419 176.2321,313.9548 161.0348,310.8282 173.4203,292.7668 181.4232,280.2315 184.5158,271.1944 175.1024,264.5027 186.7324,256.0 177.4872,247.748 175.7175,238.9354 160.4232,224.9452 157.4949,212.1427 148.909,194.171 203.2713,217.6904 165.9991,174.9628 215.8648,211.4253 209.7755,192.3774 212.0157,179.8169 227.1348,191.1677 228.8201,172.3489 242.6537,193.2105 246.4316,164.9623 256.0,167.5852 266.9373,151.9383 276.4976,159.5664 278.7571,185.9609 304.9026,146.1629 310.7728,161.1308 299.1722,196.5786 321.4876,183.2686 320.7398,197.708 347.2955,189.67 337.1563,209.1444 319.8011,227.5939 361.8328,221.6128 370.3764,231.6885 364.0121,244.6475 372.7136,256.0" stroke="#ccc" stroke-width="1" /><polygon fill="none" points="340.9831,256.0 324.2992,263.1785 346.0711,275.1452 344.3706,284.7133 365.4924,304.7491 315.6677,290.4491 352.365,326.0133 312.132,306.5414 346.507,356.5182 303.0795,320.7994 302.9749,337.3629 297.4882,349.1841 291.404,364.9622 272.3151,332.7564 267.3665,364.1448 256.0,333.3929 245.4296,356.5711 228.1728,386.9168 229.7076,336.9197 205.3249,369.8182 209.6315,336.3125 176.6893,365.1619 182.1557,338.0125 176.6608,327.4374 155.4144,329.0797 182.1182,298.6557 136.7628,309.0878 161.8191,286.6012 188.8505,270.2731 191.3949,262.7903 140.754,256.0 167.8258,246.7325 128.1529,228.8253 151.1998,221.9483 168.8223,217.186 203.8163,225.8717 179.8358,200.6634 168.6264,177.3285 185.7772,178.0097 208.5776,190.7287 204.4538,166.7193 216.591,167.486 215.8979,132.5786 235.8109,161.018 242.5137,127.6865 256.0,160.1054 266.4129,156.928 274.5367,168.7917 288.6205,155.6044 305.3578,145.1405 286.0607,203.9334 316.2732,173.041 310.7258,195.2208 317.6164,200.5204 328.1313,203.5935 349.6509,201.9306 354.357,212.2086 356.064,223.4872 348.5939,236.3185 349.6671,246.1552 338.9591,256.0" stroke="#ccc" stroke-width="1" /><polygon fill="none" points="330.4539,256.0 386.1558,269.6799 379.0629,282.1578 320.3314,276.9025 345.614,295.8987 345.763,307.8247 367.6346,337.1073 337.4164,329.3076 309.881,315.8409 315.0771,337.3126 326.5734,378.2367 301.5412,358.2872 288.154,354.9598 270.3013,323.2822 270.2319,391.4076 256.0,402.974 244.6216,364.2586 229.387,381.2042 223.4654,356.1313 229.8755,314.6766 199.1425,354.4801 201.4382,331.0979 213.023,303.7308 177.6543,326.5428 192.7987,301.9184 138.0648,324.0899 157.2537,299.9647 126.7587,297.9931 157.2354,276.9931 151.1301,267.0223 114.6165,256.0 128.4693,242.596 134.4956,230.1734 150.2452,221.6382 143.2161,205.7854 130.3118,183.4339 171.1785,194.3736 157.7152,167.504 158.4534,147.6635 217.8723,203.5217 211.8673,179.5599 216.0438,166.2569 224.5822,159.3058 239.7877,179.7273 249.2229,191.5199 256.0,186.9801 264.6513,173.6881 277.8897,153.0169 290.6279,149.4263 304.3706,147.3578 291.6591,194.2366 315.4869,174.1232 339.997,162.7119 318.4301,199.7876 370.2129,173.0194 322.273,217.7373 360.1831,209.6147 318.602,235.6594 324.1257,241.5194 350.869,246.0289 337.4184,256.0" stroke="#ccc" stroke-width="1" /><polygon fill="none" points="324.0335,256.0 387.46,269.817 373.1822,280.9078 401.5866,303.304 327.1602,287.6826 369.5258,321.5441 353.8521,327.0937 322.3035,315.7 336.1124,344.9739 311.7017,332.6669 304.3322,339.7138 298.4412,351.3246 298.2632,386.0729 279.2966,365.6018 271.4766,403.2502 256.0,324.9274 242.1894,387.3987 230.5304,375.8249 229.6153,337.2037 213.55,351.3443 190.3057,369.7859 181.248,358.8874 172.9348,348.2532 164.3751,338.4995 129.7624,347.717 160.1093,311.3625 148.9378,303.6672 131.6791,296.3943 124.1119,284.0337 142.5167,267.9276 169.7627,256.0 126.5487,242.3941 185.497,241.0141 136.1102,217.0455 193.3479,228.1055 121.0724,178.0995 188.436,206.9119 143.8753,155.0425 197.5355,191.0686 174.7998,144.2375 190.2192,142.0643 199.2262,128.484 226.1028,163.9858 241.799,189.1898 245.7104,158.1014 256.0,178.1659 267.1171,150.2275 285.2078,118.5883 302.8024,111.9571 302.7703,150.9522 310.0786,162.333 347.8696,129.5524 353.1218,148.1353 368.4306,154.767 350.922,187.0352 357.7879,197.2327 397.8771,192.8322 381.366,215.2661 363.6096,233.1269 363.5378,244.6973 404.0995,256.0" stroke="#ccc" stroke-width="1" /></svg>