<?xml version="1.0" ?>
<svg xmlns="http://www.w3.org/2000/svg" viewBox="0 0 764 790">
	<path d="M 763,778 L 762,779 L 762,780 L 755,787 L 754,787 L 752,789 L 751,789 L 763,789 Z" fill="black"/>
	<path d="M 385,740 L 384,741 L 378,741 L 377,742 L 374,742 L 373,743 L 372,743 L 371,744 L 370,744 L 369,745 L 368,745 L 367,746 L 366,746 L 363,749 L 363,751 L 362,752 L 362,755 L 363,756 L 363,757 L 364,757 L 365,758 L 368,758 L 369,757 L 370,757 L 371,756 L 372,756 L 373,755 L 374,755 L 375,754 L 378,754 L 379,753 L 380,753 L 381,752 L 384,752 L 385,751 L 394,751 L 395,752 L 398,752 L 399,753 L 401,753 L 402,754 L 404,754 L 405,755 L 407,755 L 408,756 L 414,756 L 415,755 L 416,755 L 416,754 L 417,753 L 417,750 L 416,749 L 416,748 L 414,746 L 413,746 L 412,745 L 411,745 L 410,744 L 408,744 L 407,743 L 406,743 L 405,742 L 401,742 L 400,741 L 392,741 L 391,740 Z" fill="black"/>
	<path d="M 380,708 L 3x79,709 L 370,709 L 369,710 L 366,710 L 365,711 L 363,711 L 362,712 L 361,712 L 360,713 L 358,713 L 357,714 L 356,714 L 355,715 L 354,715 L 352,717 L 351,717 L 350,718 L 349,718 L 347,720 L 346,720 L 334,732 L 334,733 L 331,736 L 331,737 L 330,738 L 330,739 L 329,740 L 329,741 L 328,742 L 328,743 L 327,744 L 327,746 L 326,747 L 326,752 L 328,754 L 329,754 L 330,755 L 332,755 L 333,754 L 334,754 L 336,752 L 336,750 L 338,748 L 338,747 L 339,746 L 339,745 L 340,744 L 340,743 L 341,742 L 341,741 L 343,739 L 343,738 L 351,730 L 352,730 L 353,729 L 354,729 L 357,726 L 359,726 L 360,725 L 361,725 L 362,724 L 363,724 L 364,723 L 366,723 L 367,722 L 370,722 L 371,721 L 375,721 L 376,720 L 383,720 L 384,719 L 393,719 L 394,720 L 400,720 L 401,721 L 405,721 L 406,722 L 412,722 L 413,723 L 416,723 L 417,724 L 419,724 L 420,725 L 422,725 L 423,726 L 425,726 L 426,727 L 427,727 L 428,728 L 429,728 L 430,729 L 432,729 L 433,730 L 434,730 L 435,731 L 436,731 L 437,732 L 438,732 L 439,733 L 440,733 L 441,734 L 442,734 L 443,735 L 444,735 L 445,736 L 447,736 L 448,737 L 449,737 L 450,738 L 451,738 L 453,740 L 454,740 L 455,741 L 457,741 L 458,742 L 463,742 L 465,740 L 465,734 L 464,733 L 463,733 L 461,731 L 460,731 L 458,729 L 457,729 L 456,728 L 455,728 L 454,727 L 453,727 L 452,726 L 451,726 L 450,725 L 449,725 L 448,724 L 447,724 L 446,723 L 445,723 L 444,722 L 443,722 L 442,721 L 441,721 L 440,720 L 438,720 L 437,719 L 436,719 L 435,718 L 434,718 L 433,717 L 431,717 L 430,716 L 427,716 L 426,715 L 425,715 L 424,714 L 421,714 L 420,713 L 415,713 L 414,712 L 411,712 L 410,711 L 406,711 L 405,710 L 399,710 L 398,709 L 386,709 L 385,708 Z" fill="black"/>
	<path d="M 371,676 L 370,677 L 364,677 L 363,678 L 360,678 L 359,679 L 356,679 L 355,680 L 353,680 L 352,681 L 350,681 L 349,682 L 347,682 L 346,683 L 345,683 L 344,684 L 343,684 L 342,685 L 341,685 L 340,686 L 339,686 L 338,687 L 337,687 L 336,688 L 335,688 L 334,689 L 333,689 L 331,691 L 330,691 L 329,692 L 328,692 L 325,695 L 324,695 L 322,697 L 321,697 L 309,709 L 309,710 L 306,713 L 306,714 L 303,717 L 303,718 L 302,719 L 302,720 L 300,722 L 300,723 L 299,724 L 299,725 L 298,726 L 298,727 L 297,728 L 297,729 L 296,730 L 296,731 L 295,732 L 295,734 L 294,735 L 294,736 L 293,737 L 293,743 L 295,745 L 300,745 L 302,743 L 302,742 L 304,740 L 304,738 L 305,737 L 305,736 L 307,734 L 307,733 L 308,732 L 308,731 L 309,730 L 309,729 L 311,727 L 311,726 L 312,725 L 312,724 L 315,721 L 315,720 L 319,716 L 319,715 L 330,704 L 331,704 L 334,701 L 335,701 L 337,699 L 338,699 L 339,698 L 340,698 L 341,697 L 342,697 L 343,696 L 344,696 L 345,695 L 346,695 L 347,694 L 348,694 L 349,693 L 351,693 L 352,692 L 354,692 L 355,691 L 356,691 L 357,690 L 361,690 L 362,689 L 367,689 L 368,688 L 373,688 L 374,687 L 382,687 L 383,686 L 393,686 L 394,687 L 402,687 L 403,688 L 407,688 L 408,689 L 412,689 L 413,690 L 418,690 L 419,691 L 422,691 L 423,692 L 425,692 L 426,693 L 429,693 L 430,694 L 433,694 L 434,695 L 436,695 L 437,696 L 439,696 L 440,697 L 443,697 L 444,698 L 446,698 L 447,699 L 448,699 L 449,700 L 451,700 L 452,701 L 455,701 L 456,702 L 457,702 L 458,703 L 460,703 L 461,704 L 463,704 L 464,705 L 466,705 L 467,706 L 468,706 L 469,707 L 470,707 L 471,708 L 474,708 L 475,709 L 476,709 L 478,711 L 480,711 L 481,712 L 482,712 L 483,713 L 484,713 L 485,714 L 486,714 L 487,715 L 489,715 L 491,717 L 492,717 L 493,718 L 495,718 L 496,719 L 500,719 L 501,718 L 502,718 L 504,716 L 504,713 L 503,712 L 503,711 L 501,709 L 500,709 L 499,708 L 498,708 L 496,706 L 494,706 L 493,705 L 492,705 L 491,704 L 490,704 L 489,703 L 488,703 L 487,702 L 486,702 L 485,701 L 484,701 L 483,700 L 482,700 L 481,699 L 479,699 L 478,698 L 476,698 L 475,697 L 474,697 L 473,696 L 472,696 L 471,695 L 469,695 L 468,694 L 466,694 L 465,693 L 464,693 L 463,692 L 461,692 L 460,691 L 458,691 L 457,690 L 456,690 L 455,689 L 453,689 L 452,688 L 449,688 L 448,687 L 446,687 L 445,686 L 444,686 L 443,685 L 441,685 L 440,684 L 436,684 L 435,683 L 433,683 L 432,682 L 430,682 L 429,681 L 425,681 L 424,680 L 420,680 L 419,679 L 416,679 L 415,678 L 410,678 L 409,677 L 399,677 L 398,676 Z" fill="black"/>
	<path d="M 383,643 L 382,644 L 368,644 L 367,645 L 359,645 L 358,646 L 354,646 L 353,647 L 351,647 L 350,648 L 347,648 L 346,649 L 343,649 L 342,650 L 340,650 L 339,651 L 338,651 L 337,652 L 334,652 L 333,653 L 332,653 L 331,654 L 330,654 L 329,655 L 328,655 L 327,656 L 325,656 L 324,657 L 323,657 L 321,659 L 319,659 L 318,660 L 317,660 L 315,662 L 314,662 L 312,664 L 311,664 L 310,665 L 309,665 L 307,667 L 306,667 L 303,670 L 302,670 L 300,672 L 299,672 L 294,677 L 293,677 L 288,682 L 288,683 L 282,689 L 282,690 L 279,693 L 279,694 L 277,696 L 277,697 L 276,698 L 276,699 L 274,701 L 274,702 L 273,703 L 273,704 L 272,705 L 272,706 L 271,707 L 271,708 L 270,709 L 270,710 L 269,711 L 269,712 L 268,713 L 268,714 L 267,715 L 267,716 L 266,717 L 266,718 L 265,719 L 265,720 L 264,721 L 264,722 L 263,723 L 263,725 L 262,726 L 262,728 L 263,729 L 263,730 L 265,732 L 270,732 L 272,730 L 272,728 L 274,726 L 274,725 L 275,724 L 275,722 L 276,721 L 276,720 L 278,718 L 278,717 L 279,716 L 279,715 L 280,714 L 280,713 L 281,712 L 281,711 L 283,709 L 283,708 L 284,707 L 284,706 L 286,704 L 286,703 L 290,699 L 290,698 L 294,694 L 294,693 L 305,682 L 306,682 L 310,678 L 311,678 L 313,676 L 314,676 L 316,674 L 317,674 L 318,673 L 319,673 L 320,672 L 321,672 L 323,670 L 324,670 L 325,669 L 326,669 L 327,668 L 328,668 L 329,667 L 330,667 L 331,666 L 332,666 L 333,665 L 335,665 L 336,664 L 337,664 L 338,663 L 339,663 L 340,662 L 342,662 L 343,661 L 346,661 L 347,660 L 349,660 L 350,659 L 352,659 L 353,658 L 357,658 L 358,657 L 362,657 L 363,656 L 369,656 L 370,655 L 380,655 L 381,654 L 398,654 L 399,655 L 405,655 L 406,656 L 410,656 L 411,657 L 415,657 L 416,658 L 420,658 L 421,659 L 423,659 L 424,660 L 426,660 L 427,661 L 431,661 L 432,662 L 434,662 L 435,663 L 437,663 L 438,664 L 440,664 L 441,665 L 444,665 L 445,666 L 448,666 L 449,667 L 451,667 L 452,668 L 455,668 L 456,669 L 459,669 L 460,670 L 462,670 L 463,671 L 465,671 L 466,672 L 469,672 L 470,673 L 472,673 L 473,674 L 475,674 L 476,675 L 478,675 L 479,676 L 482,676 L 483,677 L 484,677 L 485,678 L 487,678 L 488,679 L 491,679 L 492,680 L 494,680 L 495,681 L 496,681 L 497,682 L 499,682 L 500,683 L 503,683 L 504,684 L 505,684 L 506,685 L 508,685 L 509,686 L 511,686 L 512,687 L 514,687 L 515,688 L 516,688 L 517,689 L 518,689 L 519,690 L 521,690 L 522,691 L 523,691 L 524,692 L 525,692 L 526,693 L 532,693 L 535,690 L 535,686 L 534,685 L 534,684 L 533,683 L 532,683 L 531,682 L 530,682 L 529,681 L 527,681 L 526,680 L 525,680 L 524,679 L 522,679 L 521,678 L 520,678 L 519,677 L 517,677 L 516,676 L 514,676 L 513,675 L 512,675 L 511,674 L 509,674 L 508,673 L 506,673 L 505,672 L 504,672 L 503,671 L 501,671 L 500,670 L 497,670 L 496,669 L 495,669 L 494,668 L 492,668 L 491,667 L 489,667 L 488,666 L 485,666 L 484,665 L 483,665 L 482,664 L 480,664 L 479,663 L 475,663 L 474,662 L 472,662 L 471,661 L 469,661 L 468,660 L 466,660 L 465,659 L 462,659 L 461,658 L 458,658 L 457,657 L 455,657 L 454,656 L 451,656 L 450,655 L 447,655 L 446,654 L 444,654 L 443,653 L 441,653 L 440,652 L 437,652 L 436,651 L 434,651 L 433,650 L 431,650 L 430,649 L 426,649 L 425,648 L 422,648 L 421,647 L 418,647 L 417,646 L 413,646 L 412,645 L 402,645 L 401,644 L 384,644 Z" fill="black"/>
	<path d="M 370,611 L 369,612 L 361,612 L 360,613 L 353,613 L 352,614 L 349,614 L 348,615 L 345,615 L 344,616 L 341,616 L 340,617 L 337,617 L 336,618 L 334,618 L 333,619 L 331,619 L 330,620 L 327,620 L 326,621 L 324,621 L 323,622 L 322,622 L 321,623 L 320,623 L 319,624 L 317,624 L 316,625 L 315,625 L 314,626 L 313,626 L 312,627 L 310,627 L 309,628 L 308,628 L 307,629 L 306,629 L 305,630 L 304,630 L 303,631 L 302,631 L 301,632 L 300,632 L 298,634 L 297,634 L 296,635 L 295,635 L 293,637 L 292,637 L 291,638 L 290,638 L 288,640 L 287,640 L 285,642 L 284,642 L 281,645 L 280,645 L 277,648 L 276,648 L 272,652 L 271,652 L 266,657 L 266,658 L 265,659 L 264,659 L 263,660 L 263,661 L 259,665 L 259,666 L 256,669 L 256,670 L 254,672 L 254,673 L 252,675 L 252,676 L 250,678 L 250,679 L 248,681 L 248,682 L 247,683 L 247,684 L 245,686 L 245,687 L 244,688 L 244,689 L 243,690 L 243,691 L 242,692 L 242,693 L 241,694 L 241,696 L 240,697 L 240,698 L 238,700 L 238,703 L 237,704 L 237,705 L 236,706 L 236,708 L 235,709 L 235,714 L 237,716 L 238,716 L 239,717 L 242,717 L 243,716 L 244,716 L 246,714 L 246,712 L 247,711 L 247,709 L 248,708 L 248,706 L 249,705 L 249,704 L 250,703 L 250,701 L 251,700 L 251,699 L 252,698 L 252,697 L 253,696 L 253,695 L 254,694 L 254,693 L 255,692 L 255,691 L 257,689 L 257,688 L 258,687 L 258,686 L 260,684 L 260,683 L 262,681 L 262,680 L 266,676 L 266,675 L 271,670 L 271,669 L 280,660 L 281,660 L 285,656 L 286,656 L 289,653 L 290,653 L 293,650 L 294,650 L 296,648 L 297,648 L 299,646 L 300,646 L 302,644 L 303,644 L 304,643 L 305,643 L 306,642 L 307,642 L 308,641 L 309,641 L 310,640 L 311,640 L 312,639 L 313,639 L 314,638 L 315,638 L 316,637 L 317,637 L 318,636 L 320,636 L 321,635 L 322,635 L 323,634 L 325,634 L 326,633 L 329,633 L 330,632 L 331,632 L 332,631 L 334,631 L 335,630 L 337,630 L 338,629 L 342,629 L 343,628 L 345,628 L 346,627 L 348,627 L 349,626 L 354,626 L 355,625 L 358,625 L 359,624 L 364,624 L 365,623 L 372,623 L 373,622 L 392,622 L 393,623 L 400,623 L 401,624 L 406,624 L 407,625 L 412,625 L 413,626 L 418,626 L 419,627 L 422,627 L 423,628 L 426,628 L 427,629 L 431,629 L 432,630 L 435,630 L 436,631 L 438,631 L 439,632 L 441,632 L 442,633 L 446,633 L 447,634 L 450,634 L 451,635 L 453,635 L 454,636 L 457,636 L 458,637 L 461,637 L 462,638 L 465,638 L 466,639 L 468,639 L 469,640 L 473,640 L 474,641 L 477,641 L 478,642 L 480,642 L 481,643 L 484,643 L 485,644 L 488,644 L 489,645 L 491,645 L 492,646 L 494,646 L 495,647 L 498,647 L 499,648 L 501,648 L 502,649 L 504,649 L 505,650 L 507,650 L 508,651 L 511,651 L 512,652 L 514,652 L 515,653 L 516,653 L 517,654 L 520,654 L 521,655 L 523,655 L 524,656 L 526,656 L 527,657 L 529,657 L 530,658 L 533,658 L 534,659 L 536,659 L 537,660 L 538,660 L 539,661 L 543,661 L 544,662 L 546,662 L 547,663 L 548,663 L 549,664 L 555,664 L 558,661 L 558,658 L 557,657 L 557,656 L 556,655 L 555,655 L 554,654 L 553,654 L 552,653 L 551,653 L 550,652 L 547,652 L 546,651 L 544,651 L 543,650 L 542,650 L 541,649 L 539,649 L 538,648 L 536,648 L 535,647 L 533,647 L 532,646 L 531,646 L 530,645 L 527,645 L 526,644 L 525,644 L 524,643 L 522,643 L 521,642 L 519,642 L 518,641 L 515,641 L 514,640 L 512,640 L 511,639 L 509,639 L 508,638 L 505,638 L 504,637 L 501,637 L 500,636 L 498,636 L 497,635 L 494,635 L 493,634 L 490,634 L 489,633 L 486,633 L 485,632 L 483,632 L 482,631 L 478,631 L 477,630 L 475,630 L 474,629 L 472,629 L 471,628 L 468,628 L 467,627 L 463,627 L 462,626 L 460,626 L 459,625 L 457,625 L 456,624 L 452,624 L 451,623 L 449,623 L 448,622 L 446,622 L 445,621 L 442,621 L 441,620 L 438,620 L 437,619 L 434,619 L 433,618 L 431,618 L 430,617 L 427,617 L 426,616 L 422,616 L 421,615 L 418,615 L 417,614 L 413,614 L 412,613 L 403,613 L 402,612 L 393,612 L 392,611 Z" fill="black"/>
	<path d="M 411,506 L 410,507 L 409,507 L 406,510 L 406,512 L 405,513 L 405,514 L 403,516 L 403,517 L 401,519 L 401,520 L 398,523 L 398,524 L 395,527 L 395,528 L 388,535 L 388,536 L 384,540 L 384,541 L 377,548 L 377,549 L 360,566 L 360,567 L 357,570 L 356,570 L 355,571 L 355,572 L 354,573 L 353,573 L 342,584 L 341,584 L 337,588 L 336,588 L 335,589 L 334,589 L 333,590 L 332,590 L 331,591 L 329,591 L 328,592 L 327,592 L 326,593 L 325,593 L 324,594 L 323,594 L 322,595 L 321,595 L 320,596 L 319,596 L 316,599 L 316,604 L 318,606 L 324,606 L 325,605 L 327,605 L 328,604 L 330,604 L 331,603 L 332,603 L 333,602 L 334,602 L 335,601 L 337,601 L 338,600 L 340,600 L 341,599 L 343,599 L 344,598 L 345,598 L 346,597 L 349,597 L 350,596 L 351,596 L 352,595 L 354,595 L 355,594 L 360,594 L 361,593 L 365,593 L 366,592 L 372,592 L 373,591 L 391,591 L 392,592 L 400,592 L 401,593 L 407,593 L 408,594 L 414,594 L 415,595 L 417,595 L 418,596 L 421,596 L 422,597 L 425,597 L 426,598 L 428,598 L 429,599 L 431,599 L 432,600 L 434,600 L 435,601 L 437,601 L 438,602 L 439,602 L 440,603 L 441,603 L 442,604 L 446,604 L 447,605 L 449,605 L 450,604 L 452,604 L 454,602 L 454,598 L 451,595 L 450,595 L 449,594 L 448,594 L 447,593 L 446,593 L 445,592 L 444,592 L 443,591 L 441,591 L 440,590 L 439,590 L 438,589 L 437,589 L 436,588 L 433,588 L 432,587 L 430,587 L 429,586 L 427,586 L 426,585 L 423,585 L 422,584 L 417,584 L 416,583 L 412,583 L 411,582 L 407,582 L 406,581 L 397,581 L 396,580 L 370,580 L 369,581 L 363,581 L 362,580 L 387,555 L 387,554 L 392,549 L 392,548 L 397,543 L 397,542 L 401,538 L 401,537 L 404,534 L 404,533 L 407,530 L 407,529 L 409,527 L 410,528 L 410,529 L 411,530 L 411,532 L 412,533 L 412,535 L 413,536 L 413,539 L 414,540 L 414,542 L 415,543 L 415,544 L 416,545 L 416,547 L 417,548 L 417,550 L 418,551 L 418,552 L 419,553 L 419,554 L 420,555 L 420,556 L 423,559 L 423,560 L 426,563 L 426,564 L 443,581 L 444,581 L 446,583 L 447,583 L 450,586 L 451,586 L 453,588 L 454,588 L 456,590 L 457,590 L 459,592 L 460,592 L 461,593 L 462,593 L 463,594 L 464,594 L 465,595 L 466,595 L 468,597 L 470,597 L 471,598 L 472,598 L 474,600 L 476,600 L 477,601 L 478,601 L 479,602 L 480,602 L 481,603 L 482,603 L 483,604 L 484,604 L 485,605 L 487,605 L 488,606 L 489,606 L 490,607 L 491,607 L 492,608 L 494,608 L 495,609 L 496,609 L 497,610 L 499,610 L 500,611 L 502,611 L 503,612 L 505,612 L 506,613 L 508,613 L 509,614 L 511,614 L 512,615 L 514,615 L 515,616 L 517,616 L 518,617 L 520,617 L 521,618 L 523,618 L 524,619 L 527,619 L 528,620 L 529,620 L 530,621 L 532,621 L 533,622 L 536,622 L 537,623 L 539,623 L 540,624 L 542,624 L 543,625 L 545,625 L 546,626 L 549,626 L 550,627 L 552,627 L 553,628 L 555,628 L 556,629 L 558,629 L 559,630 L 561,630 L 562,631 L 564,631 L 565,632 L 567,632 L 568,633 L 574,633 L 576,631 L 576,626 L 575,625 L 575,624 L 574,624 L 573,623 L 572,623 L 571,622 L 570,622 L 569,621 L 568,621 L 567,620 L 564,620 L 563,619 L 562,619 L 561,618 L 560,618 L 559,617 L 557,617 L 556,616 L 554,616 L 553,615 L 551,615 L 550,614 L 548,614 L 547,613 L 544,613 L 543,612 L 541,612 L 540,611 L 539,611 L 538,610 L 535,610 L 534,609 L 531,609 L 530,608 L 528,608 L 527,607 L 525,607 L 524,606 L 521,606 L 520,605 L 518,605 L 517,604 L 516,604 L 515,603 L 513,603 L 512,602 L 509,602 L 508,601 L 507,601 L 506,600 L 504,600 L 503,599 L 501,599 L 500,598 L 498,598 L 497,597 L 496,597 L 495,596 L 494,596 L 493,595 L 491,595 L 490,594 L 489,594 L 488,593 L 487,593 L 486,592 L 485,592 L 484,591 L 482,591 L 481,590 L 480,590 L 478,588 L 476,588 L 475,587 L 474,587 L 472,585 L 471,585 L 470,584 L 469,584 L 468,583 L 467,583 L 465,581 L 464,581 L 463,580 L 462,580 L 460,578 L 459,578 L 458,577 L 457,577 L 455,575 L 454,575 L 452,573 L 451,573 L 448,570 L 447,570 L 440,563 L 440,562 L 436,558 L 436,557 L 433,554 L 433,553 L 430,550 L 430,549 L 429,548 L 429,547 L 428,546 L 428,545 L 426,543 L 426,542 L 425,541 L 425,539 L 424,538 L 424,537 L 423,536 L 423,535 L 422,534 L 422,531 L 421,530 L 421,528 L 420,527 L 420,525 L 419,524 L 419,521 L 418,520 L 418,517 L 417,516 L 417,513 L 416,512 L 416,510 L 413,507 L 412,507 Z" fill="black"/>
	<path d="M 453,415 L 452,416 L 451,416 L 450,417 L 450,418 L 449,419 L 449,420 L 448,421 L 448,422 L 447,423 L 447,424 L 446,425 L 446,427 L 445,428 L 445,430 L 444,431 L 444,433 L 443,434 L 443,436 L 442,437 L 442,440 L 441,441 L 441,443 L 440,444 L 440,446 L 439,447 L 439,448 L 438,449 L 438,453 L 437,454 L 437,456 L 436,457 L 436,459 L 435,460 L 435,464 L 434,465 L 434,471 L 433,472 L 433,477 L 432,478 L 432,494 L 433,495 L 433,500 L 434,501 L 434,507 L 435,508 L 435,511 L 436,512 L 436,514 L 437,515 L 437,516 L 438,517 L 438,520 L 439,521 L 439,522 L 440,523 L 440,524 L 441,525 L 441,526 L 442,527 L 442,528 L 444,530 L 444,531 L 445,532 L 445,533 L 447,535 L 447,536 L 449,538 L 449,539 L 452,542 L 452,543 L 455,546 L 455,547 L 458,550 L 458,551 L 463,556 L 463,557 L 468,562 L 469,562 L 474,567 L 475,567 L 477,569 L 478,569 L 480,571 L 481,571 L 482,572 L 483,572 L 484,573 L 485,573 L 486,574 L 490,574 L 491,573 L 492,573 L 493,572 L 493,571 L 494,570 L 494,568 L 493,567 L 493,566 L 492,566 L 488,562 L 487,562 L 484,559 L 483,559 L 479,555 L 478,555 L 465,542 L 465,541 L 461,537 L 461,536 L 458,533 L 458,532 L 455,529 L 455,528 L 454,527 L 454,526 L 453,525 L 453,524 L 451,522 L 451,521 L 450,520 L 450,519 L 449,518 L 449,517 L 448,516 L 448,514 L 447,513 L 447,510 L 446,509 L 446,507 L 445,506 L 445,502 L 444,501 L 444,473 L 445,472 L 445,468 L 446,467 L 446,463 L 447,462 L 447,458 L 448,457 L 448,454 L 449,453 L 449,452 L 450,451 L 450,448 L 451,447 L 451,445 L 452,444 L 452,442 L 453,441 L 453,440 L 454,439 L 454,436 L 455,435 L 455,433 L 456,432 L 456,430 L 457,429 L 457,426 L 458,425 L 458,421 L 459,420 L 459,416 L 458,415 Z" fill="black"/>
	<path d="M 356,345 L 352,349 L 352,352 L 351,353 L 351,356 L 350,357 L 350,359 L 349,360 L 349,363 L 348,364 L 348,366 L 347,367 L 347,368 L 346,369 L 346,370 L 345,371 L 345,373 L 344,374 L 344,375 L 343,376 L 343,377 L 342,378 L 342,379 L 341,380 L 341,381 L 340,382 L 340,383 L 339,384 L 339,385 L 338,386 L 338,388 L 337,389 L 337,390 L 335,392 L 335,393 L 334,394 L 334,395 L 333,396 L 333,397 L 332,398 L 332,399 L 331,400 L 331,401 L 330,402 L 330,403 L 328,405 L 328,406 L 327,407 L 327,408 L 325,410 L 325,411 L 324,412 L 324,413 L 322,415 L 322,416 L 320,418 L 320,419 L 318,421 L 318,422 L 317,423 L 317,424 L 314,427 L 314,428 L 312,430 L 312,431 L 309,434 L 309,435 L 306,438 L 306,439 L 303,442 L 303,443 L 300,446 L 300,447 L 297,450 L 297,451 L 292,456 L 292,457 L 289,460 L 289,461 L 285,465 L 285,466 L 281,470 L 281,471 L 275,477 L 275,478 L 271,482 L 271,483 L 265,489 L 265,490 L 256,499 L 256,500 L 242,514 L 242,515 L 227,530 L 227,531 L 212,546 L 212,547 L 211,548 L 210,548 L 210,549 L 188,571 L 188,572 L 180,580 L 180,581 L 175,586 L 175,587 L 170,592 L 170,593 L 163,600 L 163,601 L 159,605 L 159,606 L 156,609 L 156,610 L 155,611 L 155,616 L 156,617 L 157,617 L 158,618 L 162,618 L 167,613 L 167,612 L 175,604 L 175,603 L 183,595 L 183,594 L 190,587 L 190,586 L 198,578 L 198,577 L 199,576 L 200,576 L 200,575 L 208,567 L 208,566 L 221,553 L 221,552 L 257,516 L 257,515 L 269,503 L 269,502 L 277,494 L 277,493 L 281,489 L 281,488 L 285,484 L 285,483 L 291,477 L 291,476 L 296,471 L 296,470 L 300,466 L 300,465 L 304,461 L 304,460 L 307,457 L 307,456 L 309,454 L 309,453 L 312,450 L 312,449 L 315,446 L 315,445 L 318,442 L 318,441 L 320,439 L 320,438 L 322,436 L 322,435 L 325,432 L 325,431 L 326,430 L 326,429 L 329,426 L 329,425 L 330,424 L 330,423 L 332,421 L 332,420 L 334,418 L 334,417 L 335,416 L 335,415 L 337,413 L 337,412 L 338,411 L 338,410 L 339,409 L 339,408 L 340,407 L 340,406 L 342,404 L 342,403 L 343,402 L 343,401 L 344,400 L 344,399 L 345,398 L 345,397 L 346,396 L 346,395 L 347,394 L 347,392 L 348,391 L 348,390 L 349,389 L 349,388 L 350,387 L 350,386 L 351,385 L 351,384 L 352,383 L 352,381 L 353,380 L 353,379 L 354,378 L 354,376 L 355,375 L 355,374 L 356,373 L 356,372 L 357,371 L 357,369 L 358,368 L 358,366 L 359,365 L 359,364 L 360,363 L 360,361 L 361,360 L 361,358 L 362,357 L 362,355 L 363,354 L 363,351 L 364,350 L 363,349 L 363,348 L 362,347 L 362,346 L 361,346 L 360,345 Z" fill="black"/>
	<path d="M 354,314 L 353,315 L 351,315 L 350,316 L 348,316 L 347,317 L 346,317 L 344,319 L 343,319 L 341,321 L 340,321 L 336,325 L 336,326 L 333,329 L 333,330 L 331,332 L 331,333 L 330,334 L 330,336 L 329,337 L 329,338 L 328,339 L 328,340 L 327,341 L 327,343 L 326,344 L 326,345 L 324,347 L 324,349 L 323,350 L 323,351 L 322,352 L 322,353 L 321,354 L 321,355 L 320,356 L 320,358 L 319,359 L 319,360 L 318,361 L 318,362 L 317,363 L 317,364 L 316,365 L 316,367 L 315,368 L 315,369 L 314,370 L 314,371 L 313,372 L 313,374 L 312,375 L 312,376 L 311,377 L 311,378 L 310,379 L 310,380 L 309,381 L 309,382 L 308,383 L 308,384 L 306,386 L 306,387 L 305,388 L 305,389 L 304,390 L 304,391 L 302,393 L 302,394 L 301,395 L 301,396 L 299,398 L 299,399 L 298,400 L 298,401 L 296,403 L 296,404 L 294,406 L 294,407 L 292,409 L 292,410 L 291,411 L 291,412 L 288,415 L 288,416 L 286,418 L 286,419 L 284,421 L 284,422 L 280,426 L 280,427 L 276,431 L 276,432 L 273,435 L 273,436 L 268,441 L 268,442 L 264,446 L 264,447 L 260,451 L 260,452 L 256,456 L 256,457 L 250,463 L 250,464 L 245,469 L 245,470 L 239,476 L 239,477 L 230,486 L 230,487 L 189,528 L 188,528 L 188,529 L 187,530 L 186,530 L 184,532 L 184,533 L 183,534 L 182,534 L 181,535 L 181,536 L 179,538 L 178,538 L 177,539 L 177,540 L 146,571 L 146,572 L 143,575 L 143,576 L 142,577 L 142,580 L 145,583 L 149,583 L 151,581 L 152,581 L 157,576 L 158,576 L 165,569 L 165,568 L 240,493 L 240,492 L 250,482 L 250,481 L 256,475 L 256,474 L 261,469 L 261,468 L 268,461 L 268,460 L 272,456 L 272,455 L 276,451 L 276,450 L 279,447 L 279,446 L 284,441 L 284,440 L 287,437 L 287,436 L 290,433 L 290,432 L 293,429 L 293,428 L 296,425 L 296,424 L 298,422 L 298,421 L 300,419 L 300,418 L 302,416 L 302,415 L 304,413 L 304,412 L 305,411 L 305,410 L 308,407 L 308,406 L 309,405 L 309,404 L 310,403 L 310,402 L 311,401 L 311,400 L 313,398 L 313,397 L 314,396 L 314,395 L 315,394 L 315,393 L 316,392 L 316,391 L 318,389 L 318,388 L 319,387 L 319,386 L 320,385 L 320,384 L 321,383 L 321,382 L 322,381 L 322,379 L 323,378 L 323,377 L 325,375 L 325,374 L 326,373 L 326,371 L 327,370 L 327,369 L 328,368 L 328,367 L 329,366 L 329,364 L 330,363 L 330,361 L 331,360 L 331,359 L 332,358 L 332,356 L 333,355 L 333,353 L 334,352 L 334,351 L 335,350 L 335,348 L 336,347 L 336,346 L 337,345 L 337,344 L 338,343 L 338,342 L 339,341 L 339,340 L 340,339 L 340,338 L 344,334 L 344,333 L 346,331 L 347,331 L 349,329 L 350,329 L 351,328 L 352,328 L 353,327 L 354,327 L 355,326 L 363,326 L 364,327 L 366,327 L 368,329 L 369,329 L 373,333 L 373,334 L 375,336 L 375,337 L 376,338 L 376,339 L 377,340 L 377,343 L 378,344 L 378,348 L 379,349 L 379,361 L 378,362 L 378,366 L 377,367 L 377,372 L 376,373 L 376,375 L 375,376 L 375,377 L 374,378 L 374,381 L 373,382 L 373,383 L 372,384 L 372,386 L 371,387 L 371,388 L 370,389 L 370,391 L 369,392 L 369,393 L 368,394 L 368,395 L 367,396 L 367,397 L 366,398 L 366,400 L 365,401 L 365,402 L 363,404 L 363,406 L 362,407 L 362,408 L 361,409 L 361,410 L 360,411 L 360,412 L 359,413 L 359,414 L 358,415 L 358,416 L 356,418 L 356,419 L 355,420 L 355,421 L 354,422 L 354,423 L 352,425 L 352,426 L 351,427 L 351,428 L 350,429 L 350,430 L 349,431 L 349,432 L 346,435 L 346,436 L 345,437 L 345,438 L 344,439 L 344,440 L 341,443 L 341,444 L 339,446 L 339,447 L 337,449 L 337,450 L 334,453 L 334,454 L 331,457 L 331,458 L 329,460 L 329,461 L 326,464 L 326,465 L 321,470 L 321,471 L 318,474 L 318,475 L 314,479 L 314,480 L 309,485 L 309,486 L 302,493 L 302,494 L 295,501 L 295,502 L 287,510 L 287,511 L 273,525 L 273,526 L 272,527 L 271,527 L 270,528 L 270,529 L 268,531 L 267,531 L 267,532 L 221,578 L 221,579 L 213,587 L 213,588 L 206,595 L 206,596 L 198,604 L 198,605 L 193,610 L 193,611 L 190,614 L 190,615 L 185,620 L 185,621 L 182,624 L 182,625 L 179,628 L 179,629 L 177,631 L 177,632 L 174,635 L 174,642 L 176,644 L 181,644 L 183,642 L 183,641 L 186,638 L 186,637 L 189,634 L 189,633 L 194,628 L 194,627 L 198,623 L 198,622 L 202,618 L 202,617 L 208,611 L 208,610 L 215,603 L 215,602 L 228,589 L 228,588 L 246,570 L 246,569 L 259,556 L 259,555 L 260,554 L 261,554 L 261,553 L 263,551 L 264,551 L 265,550 L 265,549 L 267,547 L 268,547 L 268,546 L 271,543 L 272,543 L 272,542 L 274,540 L 275,540 L 276,539 L 276,538 L 278,536 L 279,536 L 279,535 L 281,533 L 282,533 L 282,532 L 301,513 L 301,512 L 310,503 L 310,502 L 315,497 L 315,496 L 321,490 L 321,489 L 325,485 L 325,484 L 328,481 L 328,480 L 332,476 L 332,475 L 336,471 L 336,470 L 338,468 L 338,467 L 340,465 L 340,464 L 344,460 L 344,459 L 346,457 L 346,456 L 348,454 L 348,453 L 350,451 L 350,450 L 353,447 L 353,446 L 354,445 L 354,444 L 356,442 L 356,441 L 358,439 L 358,438 L 359,437 L 359,436 L 361,434 L 361,432 L 363,430 L 363,429 L 364,428 L 364,427 L 365,426 L 365,425 L 366,424 L 366,423 L 367,422 L 367,421 L 368,420 L 368,419 L 369,418 L 369,417 L 371,415 L 371,414 L 372,413 L 372,412 L 373,411 L 373,410 L 374,409 L 374,408 L 375,407 L 375,406 L 376,405 L 376,404 L 377,403 L 377,402 L 378,401 L 378,400 L 379,399 L 379,397 L 380,396 L 380,395 L 381,394 L 381,393 L 382,392 L 382,390 L 383,389 L 383,387 L 384,386 L 384,385 L 385,384 L 385,382 L 386,381 L 386,378 L 387,377 L 387,375 L 388,374 L 388,371 L 389,370 L 389,366 L 390,365 L 390,347 L 389,346 L 389,342 L 388,341 L 388,339 L 387,338 L 387,336 L 386,335 L 386,333 L 385,332 L 385,331 L 384,330 L 384,329 L 383,328 L 383,327 L 375,319 L 374,319 L 372,317 L 371,317 L 370,316 L 367,316 L 366,315 L 363,315 L 362,314 Z" fill="black"/>
	<path d="M 350,283 L 349,284 L 344,284 L 343,285 L 342,285 L 341,286 L 340,286 L 339,287 L 337,287 L 336,288 L 335,288 L 334,289 L 333,289 L 331,291 L 330,291 L 329,292 L 328,292 L 325,295 L 324,295 L 313,306 L 313,307 L 310,310 L 310,311 L 308,313 L 308,314 L 306,316 L 306,317 L 305,318 L 305,319 L 303,321 L 303,322 L 302,323 L 302,325 L 300,327 L 300,328 L 299,329 L 299,331 L 298,332 L 298,333 L 296,335 L 296,337 L 295,338 L 295,339 L 294,340 L 294,341 L 293,342 L 293,343 L 292,344 L 292,345 L 291,346 L 291,348 L 290,349 L 290,350 L 288,352 L 288,354 L 287,355 L 287,356 L 286,357 L 286,358 L 284,360 L 284,362 L 283,363 L 283,364 L 281,366 L 281,368 L 279,370 L 279,371 L 278,372 L 278,373 L 277,374 L 277,375 L 276,376 L 276,377 L 274,379 L 274,380 L 273,381 L 273,382 L 272,383 L 272,384 L 270,386 L 270,387 L 269,388 L 269,389 L 267,391 L 267,392 L 266,393 L 266,394 L 264,396 L 264,397 L 262,399 L 262,400 L 260,402 L 260,403 L 258,405 L 258,406 L 256,408 L 256,409 L 252,413 L 252,414 L 245,421 L 245,422 L 238,429 L 238,430 L 229,439 L 229,440 L 216,453 L 216,454 L 214,456 L 213,456 L 213,457 L 193,477 L 192,477 L 192,478 L 189,481 L 188,481 L 188,482 L 186,484 L 185,484 L 185,485 L 182,488 L 181,488 L 181,489 L 179,491 L 178,491 L 177,492 L 177,493 L 175,495 L 174,495 L 174,496 L 171,499 L 170,499 L 170,500 L 168,502 L 167,502 L 167,503 L 152,518 L 152,519 L 145,526 L 145,527 L 138,534 L 138,535 L 133,540 L 133,541 L 131,543 L 131,545 L 130,546 L 130,548 L 131,549 L 131,550 L 132,551 L 134,551 L 135,552 L 136,551 L 139,551 L 140,550 L 140,549 L 147,542 L 147,541 L 155,533 L 155,532 L 165,522 L 165,521 L 233,453 L 233,452 L 243,442 L 243,441 L 249,435 L 249,434 L 254,429 L 254,428 L 260,422 L 260,421 L 265,416 L 265,415 L 268,412 L 268,411 L 271,408 L 271,407 L 272,406 L 272,405 L 273,404 L 273,403 L 275,401 L 275,400 L 276,399 L 276,398 L 278,396 L 278,395 L 279,394 L 279,393 L 281,391 L 281,390 L 283,388 L 283,386 L 285,384 L 285,383 L 286,382 L 286,381 L 287,380 L 287,379 L 288,378 L 288,377 L 290,375 L 290,373 L 291,372 L 291,371 L 293,369 L 293,368 L 294,367 L 294,365 L 296,363 L 296,362 L 297,361 L 297,359 L 298,358 L 298,357 L 299,356 L 299,355 L 300,354 L 300,353 L 301,352 L 301,351 L 302,350 L 302,349 L 303,348 L 303,347 L 304,346 L 304,344 L 305,343 L 305,342 L 306,341 L 306,340 L 308,338 L 308,336 L 309,335 L 309,334 L 311,332 L 311,331 L 312,330 L 312,329 L 313,328 L 313,327 L 314,326 L 314,325 L 315,324 L 315,323 L 316,322 L 316,321 L 318,319 L 318,318 L 322,314 L 322,313 L 330,305 L 331,305 L 334,302 L 335,302 L 336,301 L 337,301 L 338,300 L 339,300 L 341,298 L 342,298 L 343,297 L 345,297 L 346,296 L 348,296 L 349,295 L 351,295 L 352,294 L 368,294 L 369,295 L 372,295 L 373,296 L 374,296 L 375,297 L 378,297 L 379,298 L 380,298 L 381,299 L 382,299 L 383,300 L 384,300 L 385,301 L 386,301 L 389,304 L 390,304 L 395,309 L 395,310 L 398,313 L 398,314 L 399,315 L 399,316 L 400,317 L 400,318 L 401,319 L 401,320 L 402,321 L 402,323 L 403,324 L 403,326 L 404,327 L 404,329 L 405,330 L 405,332 L 406,333 L 406,338 L 407,339 L 407,344 L 408,345 L 408,360 L 407,361 L 407,369 L 406,370 L 406,375 L 405,376 L 405,379 L 404,380 L 404,383 L 403,384 L 403,386 L 402,387 L 402,390 L 401,391 L 401,393 L 400,394 L 400,395 L 399,396 L 399,398 L 398,399 L 398,400 L 397,401 L 397,402 L 396,403 L 396,405 L 395,406 L 395,408 L 394,409 L 394,410 L 393,411 L 393,412 L 392,413 L 392,415 L 391,416 L 391,417 L 390,418 L 390,419 L 389,420 L 389,422 L 388,423 L 388,424 L 387,425 L 387,426 L 386,427 L 386,428 L 385,429 L 385,431 L 384,432 L 384,433 L 383,434 L 383,435 L 382,436 L 382,437 L 381,438 L 381,439 L 380,440 L 380,441 L 379,442 L 379,443 L 378,444 L 378,445 L 377,446 L 377,447 L 376,448 L 376,449 L 375,450 L 375,451 L 374,452 L 374,453 L 372,455 L 372,456 L 371,457 L 371,458 L 370,459 L 370,460 L 367,463 L 367,464 L 366,465 L 366,466 L 364,468 L 364,469 L 363,470 L 363,471 L 359,475 L 359,476 L 357,478 L 357,479 L 354,482 L 354,483 L 351,486 L 351,487 L 345,493 L 345,494 L 340,499 L 340,500 L 331,509 L 331,510 L 271,570 L 270,570 L 238,602 L 238,603 L 227,614 L 227,615 L 219,623 L 219,624 L 214,629 L 214,630 L 210,634 L 210,635 L 205,640 L 205,641 L 202,644 L 202,645 L 199,648 L 199,649 L 195,653 L 195,654 L 192,657 L 192,658 L 190,660 L 190,661 L 189,662 L 189,663 L 188,664 L 188,670 L 189,671 L 190,671 L 191,672 L 195,672 L 201,666 L 201,665 L 204,662 L 204,661 L 207,658 L 207,657 L 209,655 L 209,654 L 212,651 L 212,650 L 214,648 L 214,647 L 218,643 L 218,642 L 222,638 L 222,637 L 226,633 L 226,632 L 233,625 L 233,624 L 235,622 L 236,622 L 236,621 L 246,611 L 246,610 L 295,561 L 296,561 L 310,547 L 311,547 L 333,525 L 333,524 L 343,514 L 343,513 L 349,507 L 349,506 L 353,502 L 353,501 L 358,496 L 358,495 L 362,491 L 362,490 L 365,487 L 365,486 L 368,483 L 368,482 L 371,479 L 371,478 L 373,476 L 373,475 L 375,473 L 375,472 L 377,470 L 377,469 L 379,467 L 379,466 L 380,465 L 380,464 L 382,462 L 382,461 L 383,460 L 383,459 L 385,457 L 385,456 L 386,455 L 386,454 L 387,453 L 387,452 L 388,451 L 388,450 L 389,449 L 389,448 L 390,447 L 390,445 L 392,443 L 392,442 L 393,441 L 393,440 L 394,439 L 394,437 L 395,436 L 395,435 L 396,434 L 396,433 L 397,432 L 397,431 L 398,430 L 398,428 L 399,427 L 399,426 L 400,425 L 400,424 L 401,423 L 401,421 L 402,420 L 402,419 L 403,418 L 403,417 L 404,416 L 404,414 L 405,413 L 405,411 L 406,410 L 406,409 L 407,408 L 407,406 L 408,405 L 408,403 L 409,402 L 409,401 L 410,400 L 410,398 L 411,397 L 411,395 L 412,394 L 412,391 L 413,390 L 413,388 L 414,387 L 414,385 L 415,384 L 415,379 L 416,378 L 416,375 L 417,374 L 417,369 L 418,368 L 418,336 L 417,335 L 417,331 L 416,330 L 416,327 L 415,326 L 415,323 L 414,322 L 414,321 L 413,320 L 413,319 L 412,318 L 412,317 L 411,316 L 411,314 L 409,312 L 409,311 L 408,310 L 408,309 L 407,308 L 407,307 L 405,305 L 405,304 L 393,292 L 392,292 L 391,291 L 390,291 L 388,289 L 387,289 L 386,288 L 384,288 L 383,287 L 382,287 L 381,286 L 380,286 L 379,285 L 376,285 L 375,284 L 369,284 L 368,283 Z" fill="black"/>
	<path d="M 352,252 L 351,253 L 346,253 L 345,254 L 342,254 L 341,255 L 337,255 L 336,256 L 334,256 L 333,257 L 331,257 L 330,258 L 329,258 L 328,259 L 326,259 L 325,260 L 324,260 L 323,261 L 322,261 L 321,262 L 320,262 L 319,263 L 318,263 L 317,264 L 316,264 L 314,266 L 313,266 L 312,267 L 311,267 L 308,270 L 307,270 L 304,273 L 303,273 L 299,277 L 298,277 L 289,286 L 289,287 L 284,292 L 284,293 L 281,296 L 281,297 L 279,299 L 279,300 L 277,302 L 277,303 L 275,305 L 275,306 L 274,307 L 274,308 L 273,309 L 273,310 L 272,311 L 272,312 L 270,314 L 270,316 L 269,317 L 269,318 L 268,319 L 268,320 L 267,321 L 267,322 L 266,323 L 266,325 L 265,326 L 265,327 L 264,328 L 264,329 L 263,330 L 263,333 L 262,334 L 262,335 L 261,336 L 261,338 L 260,339 L 260,341 L 259,342 L 259,344 L 258,345 L 258,347 L 257,348 L 257,349 L 256,350 L 256,352 L 255,353 L 255,355 L 254,356 L 254,357 L 253,358 L 253,359 L 252,360 L 252,361 L 251,362 L 251,363 L 250,364 L 250,365 L 249,366 L 249,367 L 248,368 L 248,369 L 246,371 L 246,372 L 245,373 L 245,374 L 244,375 L 244,376 L 241,379 L 241,380 L 239,382 L 239,383 L 237,385 L 237,386 L 231,392 L 231,393 L 229,395 L 228,395 L 227,396 L 227,397 L 225,399 L 224,399 L 224,400 L 222,402 L 221,402 L 220,403 L 220,404 L 218,406 L 217,406 L 216,407 L 216,408 L 215,409 L 214,409 L 213,410 L 213,411 L 211,413 L 210,413 L 209,414 L 209,415 L 208,416 L 207,416 L 191,432 L 191,433 L 190,434 L 189,434 L 188,435 L 188,436 L 186,438 L 185,438 L 184,439 L 184,440 L 183,441 L 182,441 L 181,442 L 181,443 L 179,445 L 178,445 L 177,446 L 177,447 L 176,448 L 175,448 L 160,463 L 159,463 L 150,472 L 149,472 L 139,482 L 139,483 L 135,487 L 135,488 L 131,492 L 131,493 L 128,496 L 128,497 L 124,501 L 124,502 L 121,505 L 121,506 L 119,508 L 119,510 L 118,511 L 118,513 L 119,514 L 119,515 L 121,517 L 124,517 L 125,516 L 126,516 L 130,512 L 130,511 L 135,506 L 135,505 L 140,500 L 140,499 L 192,447 L 193,447 L 193,446 L 196,443 L 197,443 L 197,442 L 199,440 L 200,440 L 201,439 L 201,438 L 202,437 L 203,437 L 205,435 L 205,434 L 206,433 L 207,433 L 215,425 L 215,424 L 217,422 L 218,422 L 219,421 L 219,420 L 221,418 L 222,418 L 222,417 L 224,415 L 225,415 L 243,397 L 243,396 L 247,392 L 247,391 L 250,388 L 250,387 L 251,386 L 251,385 L 254,382 L 254,381 L 255,380 L 255,379 L 256,378 L 256,377 L 258,375 L 258,373 L 259,372 L 259,371 L 260,370 L 260,369 L 261,368 L 261,367 L 262,366 L 262,364 L 263,363 L 263,362 L 264,361 L 264,360 L 265,359 L 265,357 L 266,356 L 266,354 L 267,353 L 267,352 L 268,351 L 268,349 L 269,348 L 269,346 L 270,345 L 270,343 L 271,342 L 271,341 L 272,340 L 272,338 L 273,337 L 273,335 L 274,334 L 274,333 L 275,332 L 275,331 L 276,330 L 276,328 L 277,327 L 277,326 L 278,325 L 278,324 L 279,323 L 279,321 L 281,319 L 281,318 L 282,317 L 282,316 L 283,315 L 283,314 L 284,313 L 284,312 L 286,310 L 286,309 L 287,308 L 287,307 L 290,304 L 290,303 L 293,300 L 293,299 L 299,293 L 299,292 L 305,286 L 306,286 L 309,283 L 310,283 L 314,279 L 315,279 L 316,278 L 317,278 L 319,276 L 320,276 L 321,275 L 322,275 L 324,273 L 325,273 L 326,272 L 327,272 L 328,271 L 329,271 L 330,270 L 331,270 L 332,269 L 334,269 L 335,268 L 337,268 L 338,267 L 340,267 L 341,266 L 344,266 L 345,265 L 351,265 L 352,264 L 357,264 L 358,263 L 371,263 L 372,264 L 377,264 L 378,265 L 383,265 L 384,266 L 386,266 L 387,267 L 389,267 L 390,268 L 391,268 L 392,269 L 393,269 L 394,270 L 395,270 L 396,271 L 397,271 L 398,272 L 399,272 L 401,274 L 402,274 L 404,276 L 405,276 L 407,278 L 408,278 L 412,282 L 413,282 L 420,289 L 420,290 L 422,292 L 422,293 L 424,295 L 424,296 L 426,298 L 426,299 L 428,301 L 428,302 L 429,303 L 429,304 L 430,305 L 430,306 L 431,307 L 431,309 L 432,310 L 432,311 L 433,312 L 433,314 L 434,315 L 434,318 L 435,319 L 435,321 L 436,322 L 436,325 L 437,326 L 437,329 L 438,330 L 438,339 L 439,340 L 439,359 L 438,360 L 438,370 L 437,371 L 437,375 L 436,376 L 436,379 L 435,380 L 435,383 L 434,384 L 434,387 L 433,388 L 433,390 L 432,391 L 432,392 L 431,393 L 431,396 L 430,397 L 430,398 L 429,399 L 429,400 L 428,401 L 428,403 L 427,404 L 427,407 L 426,408 L 426,409 L 425,410 L 425,412 L 424,413 L 424,415 L 423,416 L 423,418 L 422,419 L 422,420 L 421,421 L 421,423 L 420,424 L 420,426 L 419,427 L 419,428 L 418,429 L 418,431 L 417,432 L 417,434 L 416,435 L 416,436 L 415,437 L 415,438 L 414,439 L 414,441 L 413,442 L 413,443 L 412,444 L 412,446 L 411,447 L 411,448 L 410,449 L 410,450 L 409,451 L 409,452 L 408,453 L 408,454 L 407,455 L 407,456 L 406,457 L 406,458 L 405,459 L 405,461 L 403,463 L 403,464 L 402,465 L 402,466 L 401,467 L 401,468 L 400,469 L 400,470 L 399,471 L 399,472 L 398,473 L 398,474 L 396,476 L 396,477 L 395,478 L 395,479 L 393,481 L 393,482 L 391,484 L 391,485 L 390,486 L 390,487 L 387,490 L 387,491 L 385,493 L 385,494 L 383,496 L 383,497 L 380,500 L 380,501 L 376,505 L 376,506 L 372,510 L 372,511 L 367,516 L 367,517 L 352,532 L 352,533 L 351,534 L 350,534 L 349,535 L 349,536 L 347,538 L 346,538 L 345,539 L 345,540 L 344,541 L 343,541 L 321,563 L 320,563 L 310,573 L 309,573 L 300,582 L 299,582 L 286,595 L 285,595 L 284,596 L 284,597 L 283,598 L 282,598 L 256,624 L 256,625 L 254,627 L 253,627 L 252,628 L 252,629 L 246,635 L 246,636 L 242,640 L 242,641 L 238,645 L 238,646 L 234,650 L 234,651 L 231,654 L 231,655 L 228,658 L 228,659 L 226,661 L 226,662 L 223,665 L 223,666 L 221,668 L 221,669 L 220,670 L 220,671 L 217,674 L 217,675 L 216,676 L 216,677 L 215,678 L 215,679 L 213,681 L 213,683 L 212,684 L 212,685 L 210,687 L 210,689 L 209,690 L 209,692 L 210,693 L 210,694 L 212,696 L 213,696 L 214,697 L 216,697 L 217,696 L 218,696 L 220,694 L 220,693 L 222,691 L 222,690 L 223,689 L 223,688 L 224,687 L 224,686 L 225,685 L 225,684 L 226,683 L 226,682 L 228,680 L 228,679 L 230,677 L 230,676 L 231,675 L 231,674 L 233,672 L 233,671 L 235,669 L 235,668 L 237,666 L 237,665 L 240,662 L 240,661 L 244,657 L 244,656 L 250,650 L 250,649 L 254,645 L 254,644 L 258,640 L 258,639 L 269,628 L 269,627 L 270,626 L 271,626 L 272,625 L 272,624 L 274,622 L 275,622 L 275,621 L 278,618 L 279,618 L 279,617 L 281,615 L 282,615 L 283,614 L 283,613 L 284,612 L 285,612 L 298,599 L 299,599 L 308,590 L 309,590 L 317,582 L 318,582 L 331,569 L 332,569 L 372,529 L 372,528 L 378,522 L 378,521 L 382,517 L 382,516 L 386,512 L 386,511 L 390,507 L 390,506 L 393,503 L 393,502 L 395,500 L 395,499 L 397,497 L 397,496 L 400,493 L 400,492 L 401,491 L 401,490 L 403,488 L 403,487 L 404,486 L 404,485 L 406,483 L 406,482 L 407,481 L 407,480 L 408,479 L 408,478 L 409,477 L 409,476 L 411,474 L 411,472 L 412,471 L 412,470 L 414,468 L 414,467 L 415,466 L 415,464 L 416,463 L 416,462 L 417,461 L 417,460 L 418,459 L 418,457 L 419,456 L 419,455 L 420,454 L 420,453 L 421,452 L 421,451 L 422,450 L 422,449 L 423,448 L 423,446 L 424,445 L 424,444 L 425,443 L 425,442 L 426,441 L 426,439 L 427,438 L 427,437 L 428,436 L 428,435 L 429,434 L 429,432 L 430,431 L 430,430 L 431,429 L 431,428 L 432,427 L 432,425 L 433,424 L 433,422 L 434,421 L 434,419 L 435,418 L 435,416 L 436,415 L 436,413 L 437,412 L 437,410 L 438,409 L 438,407 L 439,406 L 439,404 L 440,403 L 440,401 L 441,400 L 441,398 L 442,397 L 442,396 L 443,395 L 443,393 L 444,392 L 444,390 L 445,389 L 445,386 L 446,385 L 446,383 L 447,382 L 447,377 L 448,376 L 448,372 L 449,371 L 449,365 L 450,364 L 450,339 L 449,338 L 449,332 L 448,331 L 448,327 L 447,326 L 447,321 L 446,320 L 446,318 L 445,317 L 445,315 L 444,314 L 444,311 L 443,310 L 443,309 L 442,308 L 442,307 L 441,306 L 441,304 L 440,303 L 440,302 L 439,301 L 439,300 L 438,299 L 438,298 L 437,297 L 437,296 L 436,295 L 436,294 L 434,292 L 434,291 L 433,290 L 433,289 L 431,287 L 431,286 L 429,284 L 429,283 L 425,279 L 425,278 L 418,271 L 417,271 L 414,268 L 413,268 L 411,266 L 410,266 L 407,263 L 406,263 L 405,262 L 404,262 L 403,261 L 402,261 L 401,260 L 400,260 L 399,259 L 397,259 L 396,258 L 395,258 L 394,257 L 393,257 L 392,256 L 389,256 L 388,255 L 386,255 L 385,254 L 382,254 L 381,253 L 377,253 L 376,252 Z" fill="black"/>
	<path d="M 350,220 L 349,221 L 344,221 L 343,222 L 340,222 L 339,223 L 336,223 L 335,224 L 331,224 L 330,225 L 329,225 L 328,226 L 326,226 L 325,227 L 322,227 L 321,228 L 320,228 L 319,229 L 318,229 L 317,230 L 316,230 L 315,231 L 313,231 L 311,233 L 310,233 L 309,234 L 308,234 L 307,235 L 306,235 L 304,237 L 303,237 L 302,238 L 301,238 L 299,240 L 298,240 L 296,242 L 295,242 L 292,245 L 291,245 L 287,249 L 286,249 L 272,263 L 272,264 L 268,268 L 268,269 L 265,272 L 265,273 L 261,277 L 261,278 L 259,280 L 259,281 L 256,284 L 256,285 L 255,286 L 255,287 L 252,290 L 252,291 L 251,292 L 251,293 L 249,295 L 249,296 L 247,298 L 247,299 L 245,301 L 245,302 L 244,303 L 244,304 L 242,306 L 242,307 L 240,309 L 240,310 L 239,311 L 239,312 L 237,314 L 237,315 L 235,317 L 235,318 L 234,319 L 234,320 L 232,322 L 232,323 L 231,324 L 231,325 L 229,327 L 229,328 L 227,330 L 227,331 L 226,332 L 226,333 L 223,336 L 223,337 L 221,339 L 221,340 L 219,342 L 219,343 L 217,345 L 217,346 L 215,348 L 215,349 L 213,351 L 213,352 L 210,355 L 210,356 L 207,359 L 207,360 L 205,362 L 205,363 L 202,366 L 202,367 L 199,370 L 199,371 L 194,376 L 194,377 L 191,380 L 191,381 L 188,384 L 188,385 L 184,389 L 184,390 L 180,394 L 180,395 L 173,402 L 173,403 L 163,413 L 163,414 L 156,421 L 156,422 L 148,430 L 148,431 L 136,443 L 136,444 L 115,465 L 115,466 L 114,467 L 114,473 L 117,476 L 118,476 L 119,475 L 120,475 L 121,474 L 122,474 L 147,449 L 147,448 L 156,439 L 156,438 L 163,431 L 163,430 L 172,421 L 172,420 L 179,413 L 179,412 L 186,405 L 186,404 L 190,400 L 190,399 L 192,397 L 193,397 L 193,396 L 197,392 L 197,391 L 201,387 L 201,386 L 205,382 L 205,381 L 209,377 L 209,376 L 212,373 L 212,372 L 215,369 L 215,368 L 218,365 L 218,364 L 220,362 L 220,361 L 222,359 L 222,358 L 223,357 L 223,356 L 226,353 L 226,352 L 228,350 L 228,349 L 230,347 L 230,346 L 232,344 L 232,343 L 233,342 L 233,341 L 235,339 L 235,338 L 237,336 L 237,335 L 239,333 L 239,332 L 241,330 L 241,329 L 242,328 L 242,327 L 244,325 L 244,324 L 246,322 L 246,321 L 248,319 L 248,318 L 250,316 L 250,315 L 251,314 L 251,313 L 253,311 L 253,310 L 255,308 L 255,307 L 257,305 L 257,304 L 258,303 L 258,302 L 261,299 L 261,298 L 262,297 L 262,296 L 265,293 L 265,292 L 266,291 L 266,290 L 268,288 L 268,287 L 270,285 L 270,284 L 272,282 L 272,281 L 276,277 L 276,276 L 279,273 L 279,272 L 293,258 L 294,258 L 298,254 L 299,254 L 302,251 L 303,251 L 305,249 L 306,249 L 308,247 L 309,247 L 310,246 L 311,246 L 313,244 L 314,244 L 315,243 L 316,243 L 317,242 L 318,242 L 320,240 L 322,240 L 323,239 L 325,239 L 326,238 L 327,238 L 328,237 L 330,237 L 331,236 L 335,236 L 336,235 L 338,235 L 339,234 L 343,234 L 344,233 L 349,233 L 350,232 L 354,232 L 355,231 L 375,231 L 376,232 L 382,232 L 383,233 L 389,233 L 390,234 L 392,234 L 393,235 L 395,235 L 396,236 L 399,236 L 400,237 L 402,237 L 403,238 L 404,238 L 405,239 L 406,239 L 407,240 L 409,240 L 410,241 L 411,241 L 413,243 L 414,243 L 415,244 L 416,244 L 418,246 L 419,246 L 421,248 L 422,248 L 427,253 L 428,253 L 442,267 L 442,268 L 445,271 L 445,272 L 447,274 L 447,275 L 449,277 L 449,278 L 450,279 L 450,280 L 452,282 L 452,283 L 453,284 L 453,285 L 454,286 L 454,287 L 455,288 L 455,289 L 456,290 L 456,291 L 457,292 L 457,293 L 458,294 L 458,295 L 459,296 L 459,298 L 460,299 L 460,301 L 461,302 L 461,303 L 462,304 L 462,306 L 463,307 L 463,311 L 464,312 L 464,315 L 465,316 L 465,319 L 466,320 L 466,325 L 467,326 L 467,331 L 468,332 L 468,336 L 469,337 L 469,344 L 470,345 L 470,361 L 471,362 L 471,400 L 470,401 L 470,433 L 469,434 L 469,454 L 470,455 L 470,475 L 471,476 L 471,483 L 472,484 L 472,488 L 473,489 L 473,493 L 474,494 L 474,498 L 475,499 L 475,501 L 476,502 L 476,504 L 477,505 L 477,507 L 478,508 L 478,510 L 479,511 L 479,512 L 480,513 L 480,514 L 481,515 L 481,517 L 482,518 L 482,519 L 483,520 L 483,521 L 484,522 L 484,523 L 485,524 L 485,525 L 487,527 L 487,528 L 489,530 L 489,531 L 491,533 L 491,534 L 492,535 L 492,536 L 496,540 L 496,541 L 501,546 L 501,547 L 515,561 L 516,561 L 521,566 L 522,566 L 527,571 L 528,571 L 531,574 L 532,574 L 535,577 L 536,577 L 538,579 L 539,579 L 542,582 L 543,582 L 544,583 L 545,583 L 547,585 L 548,585 L 550,587 L 551,587 L 552,588 L 553,588 L 555,590 L 557,590 L 559,592 L 560,592 L 561,593 L 562,593 L 563,594 L 564,594 L 565,595 L 566,595 L 568,597 L 569,597 L 570,598 L 571,598 L 572,599 L 573,599 L 574,600 L 575,600 L 576,601 L 578,601 L 579,602 L 580,602 L 581,603 L 582,603 L 583,604 L 585,604 L 586,605 L 588,605 L 589,604 L 591,604 L 592,603 L 592,602 L 593,601 L 593,599 L 592,598 L 592,597 L 591,596 L 591,595 L 590,595 L 588,593 L 587,593 L 586,592 L 584,592 L 583,591 L 582,591 L 581,590 L 580,590 L 579,589 L 578,589 L 577,588 L 575,588 L 574,587 L 573,587 L 571,585 L 569,585 L 568,584 L 567,584 L 565,582 L 564,582 L 563,581 L 562,581 L 561,580 L 560,580 L 558,578 L 557,578 L 556,577 L 555,577 L 554,576 L 553,576 L 551,574 L 550,574 L 548,572 L 547,572 L 545,570 L 544,570 L 542,568 L 541,568 L 539,566 L 538,566 L 534,562 L 533,562 L 529,558 L 528,558 L 518,548 L 517,548 L 516,547 L 516,546 L 508,538 L 508,537 L 504,533 L 504,532 L 501,529 L 501,528 L 499,526 L 499,525 L 497,523 L 497,522 L 496,521 L 496,520 L 494,518 L 494,517 L 493,516 L 493,515 L 492,514 L 492,513 L 491,512 L 491,511 L 490,510 L 490,508 L 489,507 L 489,506 L 488,505 L 488,503 L 487,502 L 487,500 L 486,499 L 486,496 L 485,495 L 485,493 L 484,492 L 484,488 L 483,487 L 483,480 L 482,479 L 482,468 L 481,467 L 481,456 L 480,455 L 480,415 L 481,414 L 481,404 L 482,403 L 482,360 L 481,359 L 481,348 L 480,347 L 480,339 L 479,338 L 479,330 L 478,329 L 478,325 L 477,324 L 477,320 L 476,319 L 476,314 L 475,313 L 475,310 L 474,309 L 474,307 L 473,306 L 473,304 L 472,303 L 472,300 L 471,299 L 471,298 L 470,297 L 470,295 L 469,294 L 469,293 L 468,292 L 468,290 L 467,289 L 467,287 L 466,286 L 466,285 L 465,284 L 465,282 L 463,280 L 463,279 L 462,278 L 462,277 L 461,276 L 461,275 L 460,274 L 460,273 L 458,271 L 458,270 L 456,268 L 456,267 L 454,265 L 454,264 L 450,260 L 450,259 L 434,243 L 433,243 L 429,239 L 428,239 L 426,237 L 425,237 L 423,235 L 422,235 L 421,234 L 420,234 L 419,233 L 418,233 L 416,231 L 414,231 L 413,230 L 412,230 L 411,229 L 410,229 L 409,228 L 408,228 L 407,227 L 405,227 L 404,226 L 402,226 L 401,225 L 400,225 L 399,224 L 396,224 L 395,223 L 392,223 L 391,222 L 388,222 L 387,221 L 381,221 L 380,220 Z" fill="black"/>
	<path d="M 347,188 L 346,189 L 338,189 L 337,190 L 333,190 L 332,191 L 327,191 L 326,192 L 322,192 L 321,193 L 319,193 L 318,194 L 316,194 L 315,195 L 313,195 L 312,196 L 310,196 L 309,197 L 308,197 L 307,198 L 305,198 L 304,199 L 302,199 L 301,200 L 300,200 L 299,201 L 298,201 L 297,202 L 296,202 L 295,203 L 294,203 L 293,204 L 292,204 L 291,205 L 290,205 L 289,206 L 288,206 L 287,207 L 286,207 L 284,209 L 283,209 L 282,210 L 281,210 L 279,212 L 278,212 L 276,214 L 275,214 L 273,216 L 272,216 L 265,223 L 264,223 L 252,235 L 252,236 L 250,238 L 249,238 L 249,239 L 243,245 L 243,246 L 240,249 L 240,250 L 238,252 L 238,253 L 234,257 L 234,258 L 232,260 L 232,261 L 230,263 L 230,264 L 228,266 L 228,267 L 226,269 L 226,270 L 224,272 L 224,273 L 222,275 L 222,276 L 220,278 L 220,279 L 217,282 L 217,283 L 216,284 L 216,285 L 213,288 L 213,289 L 212,290 L 212,291 L 209,294 L 209,295 L 208,296 L 208,297 L 206,299 L 206,300 L 204,302 L 204,303 L 202,305 L 202,306 L 200,308 L 200,309 L 198,311 L 198,312 L 195,315 L 195,316 L 193,318 L 193,319 L 191,321 L 191,322 L 188,325 L 188,326 L 186,328 L 186,329 L 184,331 L 184,332 L 181,335 L 181,336 L 178,339 L 178,340 L 177,341 L 177,342 L 174,345 L 174,346 L 170,350 L 170,351 L 168,353 L 168,354 L 166,356 L 166,357 L 163,360 L 163,361 L 160,364 L 160,365 L 157,368 L 157,369 L 154,372 L 154,373 L 149,378 L 149,379 L 144,384 L 144,385 L 138,391 L 138,392 L 127,403 L 127,404 L 126,405 L 125,405 L 123,407 L 123,408 L 122,409 L 121,409 L 120,410 L 120,411 L 118,413 L 117,413 L 116,414 L 116,415 L 115,416 L 114,416 L 113,417 L 113,418 L 109,422 L 109,423 L 108,424 L 108,429 L 109,430 L 110,430 L 111,431 L 114,431 L 115,430 L 116,430 L 120,426 L 121,426 L 137,410 L 137,409 L 147,399 L 147,398 L 152,393 L 152,392 L 158,386 L 158,385 L 162,381 L 162,380 L 165,377 L 165,376 L 168,373 L 168,372 L 170,370 L 170,369 L 173,366 L 173,365 L 176,362 L 176,361 L 180,357 L 180,356 L 183,353 L 183,352 L 187,348 L 187,347 L 189,345 L 189,344 L 191,342 L 191,341 L 194,338 L 194,337 L 196,335 L 196,334 L 198,332 L 198,331 L 201,328 L 201,327 L 202,326 L 202,325 L 204,323 L 204,322 L 206,320 L 206,319 L 208,317 L 208,316 L 211,313 L 211,312 L 212,311 L 212,310 L 215,307 L 215,306 L 216,305 L 216,304 L 218,302 L 218,301 L 221,298 L 221,297 L 223,295 L 223,294 L 225,292 L 225,291 L 226,290 L 226,289 L 229,286 L 229,285 L 231,283 L 231,282 L 233,280 L 233,279 L 234,278 L 234,277 L 237,274 L 237,273 L 239,271 L 239,270 L 240,269 L 240,268 L 243,265 L 243,264 L 246,261 L 246,260 L 248,258 L 248,257 L 252,253 L 252,252 L 258,246 L 258,245 L 259,244 L 260,244 L 261,243 L 261,242 L 267,236 L 268,236 L 268,235 L 270,233 L 271,233 L 272,232 L 272,231 L 273,230 L 274,230 L 278,226 L 279,226 L 282,223 L 283,223 L 285,221 L 286,221 L 288,219 L 289,219 L 290,218 L 291,218 L 292,217 L 293,217 L 295,215 L 297,215 L 298,214 L 299,214 L 301,212 L 302,212 L 303,211 L 305,211 L 306,210 L 307,210 L 308,209 L 309,209 L 310,208 L 313,208 L 314,207 L 315,207 L 316,206 L 318,206 L 319,205 L 321,205 L 322,204 L 325,204 L 326,203 L 328,203 L 329,202 L 332,202 L 333,201 L 338,201 L 339,200 L 343,200 L 344,199 L 351,199 L 352,198 L 375,198 L 376,199 L 383,199 L 384,200 L 389,200 L 390,201 L 394,201 L 395,202 L 397,202 L 398,203 L 400,203 L 401,204 L 404,204 L 405,205 L 407,205 L 408,206 L 409,206 L 410,207 L 411,207 L 412,208 L 414,208 L 415,209 L 416,209 L 417,210 L 418,210 L 419,211 L 421,211 L 422,212 L 423,212 L 424,213 L 425,213 L 426,214 L 427,214 L 428,215 L 429,215 L 431,217 L 432,217 L 433,218 L 434,218 L 435,219 L 436,219 L 439,222 L 440,222 L 442,224 L 443,224 L 446,227 L 447,227 L 453,233 L 454,233 L 466,245 L 466,246 L 470,250 L 470,251 L 472,253 L 472,254 L 474,256 L 474,257 L 476,259 L 476,260 L 477,261 L 477,262 L 478,263 L 478,264 L 480,266 L 480,267 L 481,268 L 481,269 L 482,270 L 482,271 L 483,272 L 483,273 L 484,274 L 484,276 L 485,277 L 485,278 L 486,279 L 486,280 L 487,281 L 487,282 L 488,283 L 488,285 L 489,286 L 489,288 L 490,289 L 490,290 L 491,291 L 491,293 L 492,294 L 492,297 L 493,298 L 493,300 L 494,301 L 494,303 L 495,304 L 495,308 L 496,309 L 496,312 L 497,313 L 497,315 L 498,316 L 498,320 L 499,321 L 499,326 L 500,327 L 500,332 L 501,333 L 501,339 L 502,340 L 502,351 L 503,352 L 503,385 L 502,386 L 502,404 L 501,405 L 501,419 L 500,420 L 500,462 L 501,463 L 501,470 L 502,471 L 502,477 L 503,478 L 503,481 L 504,482 L 504,485 L 505,486 L 505,488 L 506,489 L 506,492 L 507,493 L 507,494 L 508,495 L 508,497 L 509,498 L 509,500 L 510,501 L 510,502 L 511,503 L 511,504 L 512,505 L 512,506 L 513,507 L 513,509 L 514,510 L 514,511 L 516,513 L 516,514 L 517,515 L 517,516 L 519,518 L 519,519 L 521,521 L 521,522 L 527,528 L 527,529 L 538,540 L 539,540 L 545,546 L 546,546 L 548,548 L 549,548 L 551,550 L 552,550 L 554,552 L 555,552 L 557,554 L 558,554 L 559,555 L 560,555 L 562,557 L 563,557 L 564,558 L 565,558 L 567,560 L 568,560 L 569,561 L 570,561 L 572,563 L 573,563 L 574,564 L 575,564 L 576,565 L 577,565 L 578,566 L 579,566 L 580,567 L 581,567 L 582,568 L 583,568 L 584,569 L 585,569 L 586,570 L 587,570 L 588,571 L 589,571 L 590,572 L 593,572 L 594,573 L 595,573 L 596,574 L 599,574 L 600,573 L 602,573 L 604,571 L 604,566 L 601,563 L 600,563 L 599,562 L 598,562 L 597,561 L 595,561 L 594,560 L 593,560 L 592,559 L 590,559 L 589,558 L 588,558 L 587,557 L 586,557 L 585,556 L 584,556 L 583,555 L 581,555 L 579,553 L 577,553 L 576,552 L 575,552 L 574,551 L 573,551 L 571,549 L 570,549 L 569,548 L 568,548 L 566,546 L 565,546 L 564,545 L 563,545 L 560,542 L 559,542 L 557,540 L 556,540 L 553,537 L 552,537 L 532,517 L 532,516 L 529,513 L 529,512 L 527,510 L 527,509 L 526,508 L 526,507 L 524,505 L 524,504 L 522,502 L 522,500 L 521,499 L 521,498 L 519,496 L 519,494 L 518,493 L 518,491 L 517,490 L 517,489 L 516,488 L 516,487 L 515,486 L 515,482 L 514,481 L 514,478 L 513,477 L 513,474 L 512,473 L 512,466 L 511,465 L 511,413 L 512,412 L 512,400 L 513,399 L 513,388 L 514,387 L 514,353 L 513,352 L 513,340 L 512,339 L 512,333 L 511,332 L 511,325 L 510,324 L 510,320 L 509,319 L 509,316 L 508,315 L 508,310 L 507,309 L 507,306 L 506,305 L 506,303 L 505,302 L 505,300 L 504,299 L 504,295 L 503,294 L 503,293 L 502,292 L 502,290 L 501,289 L 501,287 L 500,286 L 500,284 L 499,283 L 499,281 L 498,280 L 498,279 L 497,278 L 497,276 L 496,275 L 496,274 L 495,273 L 495,272 L 494,271 L 494,270 L 493,269 L 493,267 L 492,266 L 492,265 L 490,263 L 490,261 L 488,259 L 488,258 L 487,257 L 487,256 L 486,255 L 486,254 L 484,252 L 484,251 L 482,249 L 482,248 L 479,245 L 479,244 L 476,241 L 476,240 L 472,236 L 472,235 L 471,234 L 470,234 L 469,233 L 469,232 L 468,231 L 467,231 L 465,229 L 465,228 L 464,227 L 463,227 L 461,225 L 461,224 L 460,224 L 454,218 L 453,218 L 450,215 L 449,215 L 447,213 L 446,213 L 443,210 L 442,210 L 441,209 L 440,209 L 438,207 L 437,207 L 436,206 L 435,206 L 433,204 L 432,204 L 431,203 L 430,203 L 429,202 L 428,202 L 427,201 L 426,201 L 425,200 L 424,200 L 423,199 L 421,199 L 420,198 L 419,198 L 418,197 L 417,197 L 416,196 L 415,196 L 414,195 L 411,195 L 410,194 L 409,194 L 408,193 L 406,193 L 405,192 L 402,192 L 401,191 L 397,191 L 396,190 L 393,190 L 392,189 L 387,189 L 386,188 Z" fill="black"/>
	<path d="M 358,156 L 357,157 L 348,157 L 347,158 L 340,158 L 339,159 L 332,159 L 331,160 L 326,160 L 325,161 L 322,161 L 321,162 L 318,162 L 317,163 L 313,163 L 312,164 L 310,164 L 309,165 L 307,165 L 306,166 L 303,166 L 302,167 L 300,167 L 299,168 L 298,168 L 297,169 L 295,169 L 294,170 L 292,170 L 291,171 L 290,171 L 289,172 L 288,172 L 287,173 L 286,173 L 285,174 L 283,174 L 282,175 L 281,175 L 279,177 L 277,177 L 275,179 L 274,179 L 273,180 L 272,180 L 271,181 L 270,181 L 268,183 L 267,183 L 266,184 L 265,184 L 264,185 L 263,185 L 260,188 L 259,188 L 258,189 L 257,189 L 255,191 L 254,191 L 250,195 L 249,195 L 246,198 L 245,198 L 241,202 L 240,202 L 222,220 L 222,221 L 216,227 L 216,228 L 211,233 L 211,234 L 206,239 L 206,240 L 203,243 L 203,244 L 200,247 L 200,248 L 196,252 L 196,253 L 193,256 L 193,257 L 191,259 L 191,260 L 188,263 L 188,264 L 185,267 L 185,268 L 183,270 L 183,271 L 181,273 L 181,274 L 177,278 L 177,279 L 175,281 L 175,282 L 173,284 L 173,285 L 171,287 L 171,288 L 169,290 L 169,291 L 167,293 L 167,294 L 165,296 L 165,297 L 163,299 L 163,300 L 161,302 L 161,303 L 159,305 L 159,306 L 157,308 L 157,309 L 155,311 L 155,312 L 152,315 L 152,316 L 150,318 L 150,319 L 147,322 L 147,323 L 144,326 L 144,327 L 141,330 L 141,331 L 138,334 L 138,335 L 134,339 L 134,340 L 131,343 L 131,344 L 129,346 L 129,347 L 126,350 L 126,351 L 121,356 L 121,357 L 118,360 L 118,361 L 114,365 L 114,366 L 111,369 L 111,370 L 109,372 L 109,378 L 111,380 L 116,380 L 118,378 L 119,378 L 119,377 L 120,376 L 121,376 L 121,375 L 124,372 L 124,371 L 127,368 L 127,367 L 130,364 L 130,363 L 133,360 L 133,359 L 136,356 L 136,355 L 139,352 L 139,351 L 141,349 L 141,348 L 142,347 L 143,347 L 143,346 L 144,345 L 144,344 L 147,341 L 147,340 L 149,338 L 149,337 L 153,333 L 153,332 L 156,329 L 156,328 L 159,325 L 159,324 L 162,321 L 162,320 L 165,317 L 165,316 L 168,313 L 168,312 L 170,310 L 170,309 L 172,307 L 172,306 L 174,304 L 174,303 L 176,301 L 176,300 L 178,298 L 178,297 L 181,294 L 181,293 L 183,291 L 183,290 L 185,288 L 185,287 L 187,285 L 187,284 L 190,281 L 190,280 L 192,278 L 192,277 L 194,275 L 194,274 L 197,271 L 197,270 L 200,267 L 200,266 L 202,264 L 202,263 L 205,260 L 205,259 L 209,255 L 209,254 L 212,251 L 212,250 L 215,247 L 215,246 L 222,239 L 222,238 L 227,233 L 227,232 L 251,208 L 252,208 L 256,204 L 257,204 L 261,200 L 262,200 L 264,198 L 265,198 L 266,197 L 267,197 L 269,195 L 270,195 L 272,193 L 273,193 L 274,192 L 275,192 L 276,191 L 277,191 L 278,190 L 279,190 L 280,189 L 281,189 L 283,187 L 284,187 L 285,186 L 286,186 L 287,185 L 288,185 L 289,184 L 290,184 L 291,183 L 293,183 L 294,182 L 295,182 L 296,181 L 297,181 L 298,180 L 300,180 L 301,179 L 304,179 L 305,178 L 306,178 L 307,177 L 309,177 L 310,176 L 313,176 L 314,175 L 316,175 L 317,174 L 319,174 L 320,173 L 323,173 L 324,172 L 328,172 L 329,171 L 333,171 L 334,170 L 338,170 L 339,169 L 349,169 L 350,168 L 370,168 L 371,167 L 376,167 L 377,168 L 388,168 L 389,169 L 396,169 L 397,170 L 400,170 L 401,171 L 404,171 L 405,172 L 409,172 L 410,173 L 412,173 L 413,174 L 415,174 L 416,175 L 418,175 L 419,176 L 421,176 L 422,177 L 424,177 L 425,178 L 426,178 L 427,179 L 429,179 L 430,180 L 431,180 L 432,181 L 433,181 L 434,182 L 435,182 L 436,183 L 437,183 L 438,184 L 439,184 L 440,185 L 441,185 L 442,186 L 443,186 L 445,188 L 446,188 L 447,189 L 448,189 L 449,190 L 450,190 L 452,192 L 453,192 L 455,194 L 456,194 L 457,195 L 458,195 L 460,197 L 461,197 L 464,200 L 465,200 L 470,205 L 471,205 L 481,215 L 482,215 L 488,221 L 488,222 L 495,229 L 495,230 L 498,233 L 498,234 L 502,238 L 502,239 L 505,242 L 505,243 L 506,244 L 506,245 L 508,247 L 508,248 L 510,250 L 510,251 L 511,252 L 511,253 L 513,255 L 513,256 L 514,257 L 514,258 L 515,259 L 515,260 L 516,261 L 516,262 L 517,263 L 517,264 L 518,265 L 518,266 L 519,267 L 519,268 L 520,269 L 520,271 L 521,272 L 521,273 L 522,274 L 522,275 L 523,276 L 523,278 L 524,279 L 524,281 L 525,282 L 525,284 L 526,285 L 526,287 L 527,288 L 527,291 L 528,292 L 528,295 L 529,296 L 529,298 L 530,299 L 530,302 L 531,303 L 531,307 L 532,308 L 532,311 L 533,312 L 533,315 L 534,316 L 534,324 L 535,325 L 535,343 L 536,344 L 536,349 L 535,350 L 535,369 L 534,370 L 534,385 L 533,386 L 533,395 L 532,396 L 532,405 L 531,406 L 531,451 L 532,452 L 532,458 L 533,459 L 533,463 L 534,464 L 534,468 L 535,469 L 535,472 L 536,473 L 536,475 L 537,476 L 537,478 L 538,479 L 538,481 L 539,482 L 539,484 L 540,485 L 540,486 L 541,487 L 541,488 L 542,489 L 542,490 L 543,491 L 543,492 L 544,493 L 544,494 L 545,495 L 545,496 L 548,499 L 548,500 L 550,502 L 550,503 L 553,506 L 553,507 L 563,517 L 564,517 L 567,520 L 568,520 L 570,522 L 571,522 L 574,525 L 575,525 L 576,526 L 577,526 L 579,528 L 580,528 L 581,529 L 582,529 L 583,530 L 584,530 L 585,531 L 586,531 L 587,532 L 588,532 L 589,533 L 590,533 L 591,534 L 592,534 L 593,535 L 594,535 L 595,536 L 596,536 L 597,537 L 598,537 L 599,538 L 600,538 L 601,539 L 602,539 L 603,540 L 611,540 L 613,538 L 613,533 L 609,529 L 608,529 L 607,528 L 605,528 L 604,527 L 602,527 L 601,526 L 600,526 L 599,525 L 598,525 L 597,524 L 595,524 L 594,523 L 592,523 L 590,521 L 589,521 L 588,520 L 587,520 L 586,519 L 585,519 L 583,517 L 582,517 L 579,514 L 578,514 L 575,511 L 574,511 L 569,506 L 568,506 L 565,503 L 565,502 L 559,496 L 559,495 L 557,493 L 557,492 L 554,489 L 554,488 L 553,487 L 553,486 L 551,484 L 551,482 L 550,481 L 550,480 L 549,479 L 549,478 L 548,477 L 548,476 L 547,475 L 547,472 L 546,471 L 546,469 L 545,468 L 545,466 L 544,465 L 544,460 L 543,459 L 543,451 L 542,450 L 542,413 L 543,412 L 543,397 L 544,396 L 544,382 L 545,381 L 545,370 L 546,369 L 546,328 L 545,327 L 545,320 L 544,319 L 544,313 L 543,312 L 543,307 L 542,306 L 542,302 L 541,301 L 541,298 L 540,297 L 540,292 L 539,291 L 539,289 L 538,288 L 538,285 L 537,284 L 537,282 L 536,281 L 536,278 L 535,277 L 535,276 L 534,275 L 534,273 L 533,272 L 533,270 L 532,269 L 532,268 L 531,267 L 531,266 L 530,265 L 530,264 L 529,263 L 529,261 L 527,259 L 527,258 L 526,257 L 526,256 L 525,255 L 525,254 L 524,253 L 524,252 L 522,250 L 522,249 L 521,248 L 521,247 L 520,246 L 520,245 L 518,243 L 518,242 L 515,239 L 515,238 L 514,237 L 514,236 L 512,234 L 512,233 L 508,229 L 508,228 L 505,225 L 505,224 L 501,220 L 501,219 L 497,215 L 497,214 L 485,202 L 484,202 L 477,195 L 476,195 L 473,192 L 472,192 L 468,188 L 467,188 L 465,186 L 464,186 L 462,184 L 461,184 L 459,182 L 458,182 L 456,180 L 455,180 L 454,179 L 453,179 L 452,178 L 451,178 L 450,177 L 449,177 L 447,175 L 446,175 L 445,174 L 443,174 L 442,173 L 441,173 L 439,171 L 437,171 L 436,170 L 435,170 L 434,169 L 432,169 L 431,168 L 430,168 L 429,167 L 427,167 L 426,166 L 424,166 L 423,165 L 421,165 L 420,164 L 418,164 L 417,163 L 414,163 L 413,162 L 410,162 L 409,161 L 407,161 L 406,160 L 402,160 L 401,159 L 396,159 L 395,158 L 391,158 L 390,157 L 384,157 L 383,156 Z" fill="black"/>
	<path d="M 357,123 L 356,124 L 342,124 L 341,125 L 334,125 L 333,126 L 329,126 L 328,127 L 322,127 L 321,128 L 318,128 L 317,129 L 315,129 L 314,130 L 312,130 L 311,131 L 307,131 L 306,132 L 304,132 L 303,133 L 301,133 L 300,134 L 297,134 L 296,135 L 294,135 L 293,136 L 292,136 L 291,137 L 289,137 L 288,138 L 285,138 L 284,139 L 283,139 L 282,140 L 281,140 L 280,141 L 278,141 L 277,142 L 275,142 L 274,143 L 273,143 L 272,144 L 271,144 L 270,145 L 268,145 L 267,146 L 266,146 L 265,147 L 264,147 L 263,148 L 262,148 L 261,149 L 260,149 L 259,150 L 258,150 L 257,151 L 256,151 L 255,152 L 254,152 L 252,154 L 251,154 L 250,155 L 249,155 L 248,156 L 247,156 L 245,158 L 244,158 L 242,160 L 241,160 L 239,162 L 238,162 L 236,164 L 235,164 L 233,166 L 232,166 L 228,170 L 227,170 L 225,172 L 224,172 L 221,175 L 220,175 L 216,179 L 215,179 L 211,183 L 210,183 L 205,188 L 204,188 L 196,196 L 196,197 L 181,212 L 181,213 L 174,220 L 174,221 L 169,226 L 169,227 L 166,230 L 166,231 L 162,235 L 162,236 L 157,241 L 157,242 L 154,245 L 154,246 L 151,249 L 151,250 L 148,253 L 148,254 L 145,257 L 145,258 L 142,261 L 142,262 L 141,263 L 141,264 L 138,267 L 138,268 L 136,270 L 136,271 L 135,272 L 135,273 L 133,275 L 133,276 L 131,278 L 131,279 L 130,280 L 130,281 L 128,283 L 128,284 L 127,285 L 127,286 L 125,288 L 125,289 L 124,290 L 124,291 L 122,293 L 122,294 L 120,296 L 120,297 L 119,298 L 119,299 L 118,300 L 118,301 L 117,302 L 117,303 L 116,304 L 116,310 L 119,313 L 121,313 L 122,312 L 124,312 L 126,310 L 126,309 L 128,307 L 128,306 L 129,305 L 129,304 L 130,303 L 130,302 L 132,300 L 132,299 L 133,298 L 133,297 L 134,296 L 134,295 L 136,293 L 136,292 L 137,291 L 137,290 L 139,288 L 139,287 L 140,286 L 140,285 L 143,282 L 143,281 L 144,280 L 144,279 L 147,276 L 147,275 L 148,274 L 148,273 L 151,270 L 151,269 L 153,267 L 153,266 L 155,264 L 155,263 L 158,260 L 158,259 L 161,256 L 161,255 L 163,253 L 163,252 L 166,249 L 166,248 L 171,243 L 171,242 L 175,238 L 175,237 L 180,232 L 180,231 L 193,218 L 193,217 L 218,192 L 219,192 L 226,185 L 227,185 L 231,181 L 232,181 L 234,179 L 235,179 L 238,176 L 239,176 L 241,174 L 242,174 L 244,172 L 245,172 L 247,170 L 248,170 L 250,168 L 251,168 L 252,167 L 253,167 L 255,165 L 257,165 L 259,163 L 260,163 L 261,162 L 262,162 L 263,161 L 264,161 L 265,160 L 266,160 L 268,158 L 269,158 L 270,157 L 271,157 L 272,156 L 273,156 L 274,155 L 276,155 L 277,154 L 278,154 L 279,153 L 280,153 L 281,152 L 283,152 L 284,151 L 286,151 L 287,150 L 289,150 L 290,149 L 291,149 L 292,148 L 294,148 L 295,147 L 297,147 L 298,146 L 300,146 L 301,145 L 303,145 L 304,144 L 307,144 L 308,143 L 311,143 L 312,142 L 314,142 L 315,141 L 318,141 L 319,140 L 323,140 L 324,139 L 326,139 L 327,138 L 330,138 L 331,137 L 335,137 L 336,136 L 348,136 L 349,135 L 361,135 L 362,134 L 370,134 L 371,135 L 386,135 L 387,136 L 395,136 L 396,137 L 400,137 L 401,138 L 405,138 L 406,139 L 409,139 L 410,140 L 415,140 L 416,141 L 418,141 L 419,142 L 421,142 L 422,143 L 425,143 L 426,144 L 428,144 L 429,145 L 431,145 L 432,146 L 434,146 L 435,147 L 437,147 L 438,148 L 439,148 L 440,149 L 441,149 L 442,150 L 444,150 L 445,151 L 446,151 L 447,152 L 448,152 L 449,153 L 450,153 L 451,154 L 452,154 L 453,155 L 454,155 L 455,156 L 456,156 L 457,157 L 458,157 L 459,158 L 460,158 L 462,160 L 463,160 L 464,161 L 465,161 L 467,163 L 468,163 L 470,165 L 471,165 L 472,166 L 473,166 L 475,168 L 476,168 L 478,170 L 479,170 L 481,172 L 482,172 L 486,176 L 487,176 L 490,179 L 491,179 L 497,185 L 498,185 L 507,194 L 508,194 L 509,195 L 509,196 L 511,198 L 512,198 L 513,199 L 513,200 L 514,201 L 515,201 L 516,202 L 516,203 L 523,210 L 523,211 L 526,214 L 526,215 L 529,218 L 529,219 L 532,222 L 532,223 L 535,226 L 535,227 L 537,229 L 537,230 L 539,232 L 539,233 L 542,236 L 542,237 L 544,239 L 544,240 L 545,241 L 545,242 L 547,244 L 547,245 L 548,246 L 548,247 L 549,248 L 549,249 L 551,251 L 551,252 L 552,253 L 552,255 L 553,256 L 553,257 L 555,259 L 555,260 L 556,261 L 556,262 L 557,263 L 557,264 L 558,265 L 558,266 L 559,267 L 559,268 L 560,269 L 560,270 L 561,271 L 561,272 L 562,273 L 562,274 L 563,275 L 563,277 L 564,278 L 564,279 L 565,280 L 565,281 L 566,282 L 566,284 L 567,285 L 567,286 L 568,287 L 568,288 L 569,289 L 569,291 L 570,292 L 570,294 L 571,295 L 571,296 L 572,297 L 572,298 L 573,299 L 573,301 L 574,302 L 574,304 L 575,305 L 575,307 L 576,308 L 576,311 L 577,312 L 577,317 L 578,318 L 578,344 L 577,345 L 577,352 L 576,353 L 576,356 L 575,357 L 575,361 L 574,362 L 574,366 L 573,367 L 573,371 L 572,372 L 572,376 L 571,377 L 571,380 L 570,381 L 570,387 L 569,388 L 569,392 L 568,393 L 568,398 L 567,399 L 567,406 L 566,407 L 566,417 L 565,418 L 565,447 L 566,448 L 566,454 L 567,455 L 567,458 L 568,459 L 568,461 L 569,462 L 569,464 L 570,465 L 570,467 L 571,468 L 571,469 L 572,470 L 572,471 L 573,472 L 573,473 L 574,474 L 574,475 L 575,476 L 575,477 L 577,479 L 577,480 L 578,481 L 578,482 L 581,485 L 581,486 L 592,497 L 593,497 L 596,500 L 597,500 L 598,501 L 599,501 L 601,503 L 602,503 L 603,504 L 604,504 L 605,505 L 606,505 L 607,506 L 608,506 L 609,507 L 610,507 L 611,508 L 613,508 L 614,509 L 619,509 L 620,508 L 621,508 L 621,507 L 622,506 L 622,503 L 621,502 L 621,501 L 619,499 L 618,499 L 617,498 L 616,498 L 615,497 L 614,497 L 613,496 L 612,496 L 611,495 L 610,495 L 608,493 L 607,493 L 606,492 L 605,492 L 604,491 L 603,491 L 600,488 L 599,488 L 593,482 L 593,481 L 592,481 L 591,480 L 591,479 L 588,476 L 588,475 L 586,473 L 586,472 L 585,471 L 585,470 L 583,468 L 583,467 L 582,466 L 582,465 L 581,464 L 581,463 L 580,462 L 580,460 L 579,459 L 579,457 L 578,456 L 578,454 L 577,453 L 577,450 L 576,449 L 576,415 L 577,414 L 577,406 L 578,405 L 578,399 L 579,398 L 579,390 L 580,389 L 580,385 L 581,384 L 581,381 L 582,380 L 582,376 L 583,375 L 583,370 L 584,369 L 584,366 L 585,365 L 585,362 L 586,361 L 586,357 L 587,356 L 587,353 L 588,352 L 588,348 L 589,347 L 589,340 L 590,339 L 590,319 L 589,318 L 589,314 L 588,313 L 588,310 L 587,309 L 587,307 L 586,306 L 586,303 L 585,302 L 585,300 L 584,299 L 584,298 L 583,297 L 583,294 L 582,293 L 582,291 L 581,290 L 581,289 L 580,288 L 580,287 L 579,286 L 579,284 L 578,283 L 578,282 L 577,281 L 577,280 L 576,279 L 576,277 L 575,276 L 575,275 L 574,274 L 574,273 L 573,272 L 573,271 L 572,270 L 572,268 L 571,267 L 571,266 L 570,265 L 570,264 L 569,263 L 569,262 L 568,261 L 568,260 L 567,259 L 567,258 L 566,257 L 566,256 L 565,255 L 565,253 L 563,251 L 563,250 L 562,249 L 562,248 L 561,247 L 561,246 L 560,245 L 560,244 L 558,242 L 558,240 L 556,238 L 556,237 L 554,235 L 554,234 L 553,233 L 553,232 L 551,230 L 551,229 L 549,227 L 549,226 L 547,224 L 547,223 L 544,220 L 544,219 L 541,216 L 541,215 L 537,211 L 537,210 L 534,207 L 534,206 L 529,201 L 529,200 L 522,193 L 522,192 L 521,192 L 519,190 L 519,189 L 518,188 L 517,188 L 515,186 L 515,185 L 514,184 L 513,184 L 511,182 L 511,181 L 510,181 L 508,179 L 508,178 L 507,177 L 506,177 L 500,171 L 499,171 L 497,169 L 496,169 L 493,166 L 492,166 L 489,163 L 488,163 L 486,161 L 485,161 L 483,159 L 482,159 L 480,157 L 479,157 L 478,156 L 477,156 L 475,154 L 474,154 L 472,152 L 471,152 L 470,151 L 469,151 L 467,149 L 465,149 L 463,147 L 462,147 L 461,146 L 460,146 L 459,145 L 458,145 L 457,144 L 456,144 L 455,143 L 454,143 L 453,142 L 452,142 L 451,141 L 449,141 L 448,140 L 447,140 L 446,139 L 445,139 L 444,138 L 442,138 L 441,137 L 440,137 L 439,136 L 438,136 L 437,135 L 435,135 L 434,134 L 431,134 L 430,133 L 429,133 L 428,132 L 426,132 L 425,131 L 422,131 L 421,130 L 418,130 L 417,129 L 415,129 L 414,128 L 411,128 L 410,127 L 405,127 L 404,126 L 400,126 L 399,125 L 395,125 L 394,124 L 378,124 L 377,123 Z" fill="black"/>
	<path d="M 350,90 L 349,91 L 340,91 L 339,92 L 332,92 L 331,93 L 327,93 L 326,94 L 322,94 L 321,95 L 316,95 L 315,96 L 312,96 L 311,97 L 309,97 L 308,98 L 305,98 L 304,99 L 300,99 L 299,100 L 298,100 L 297,101 L 295,101 L 294,102 L 290,102 L 289,103 L 287,103 L 286,104 L 285,104 L 284,105 L 282,105 L 281,106 L 278,106 L 277,107 L 276,107 L 275,108 L 274,108 L 273,109 L 271,109 L 270,110 L 268,110 L 267,111 L 266,111 L 265,112 L 264,112 L 263,113 L 261,113 L 260,114 L 259,114 L 257,116 L 255,116 L 254,117 L 253,117 L 252,118 L 251,118 L 250,119 L 249,119 L 248,120 L 247,120 L 246,121 L 245,121 L 243,123 L 242,123 L 241,124 L 239,124 L 237,126 L 236,126 L 235,127 L 234,127 L 232,129 L 231,129 L 230,130 L 229,130 L 227,132 L 226,132 L 225,133 L 224,133 L 222,135 L 221,135 L 219,137 L 218,137 L 217,138 L 216,138 L 214,140 L 213,140 L 211,142 L 210,142 L 208,144 L 207,144 L 205,146 L 204,146 L 201,149 L 200,149 L 197,152 L 196,152 L 193,155 L 192,155 L 188,159 L 187,159 L 183,163 L 182,163 L 155,190 L 155,191 L 150,196 L 150,197 L 146,201 L 146,202 L 144,204 L 144,205 L 141,208 L 141,209 L 139,211 L 139,212 L 138,213 L 138,214 L 137,215 L 137,216 L 136,217 L 136,218 L 135,219 L 135,222 L 138,225 L 142,225 L 143,224 L 144,224 L 145,223 L 145,222 L 148,219 L 148,218 L 151,215 L 151,214 L 154,211 L 154,210 L 157,207 L 157,206 L 160,203 L 160,202 L 165,197 L 165,196 L 176,185 L 176,184 L 177,183 L 178,183 L 189,172 L 190,172 L 193,169 L 194,169 L 198,165 L 199,165 L 203,161 L 204,161 L 207,158 L 208,158 L 210,156 L 211,156 L 213,154 L 214,154 L 217,151 L 218,151 L 220,149 L 221,149 L 223,147 L 224,147 L 226,145 L 227,145 L 229,143 L 230,143 L 231,142 L 232,142 L 233,141 L 234,141 L 235,140 L 236,140 L 238,138 L 239,138 L 240,137 L 241,137 L 242,136 L 243,136 L 244,135 L 245,135 L 246,134 L 247,134 L 248,133 L 249,133 L 250,132 L 251,132 L 253,130 L 255,130 L 256,129 L 257,129 L 258,128 L 259,128 L 260,127 L 261,127 L 262,126 L 263,126 L 264,125 L 266,125 L 267,124 L 268,124 L 269,123 L 270,123 L 271,122 L 273,122 L 274,121 L 275,121 L 276,120 L 277,120 L 278,119 L 280,119 L 281,118 L 282,118 L 283,117 L 284,117 L 285,116 L 287,116 L 288,115 L 290,115 L 291,114 L 293,114 L 294,113 L 295,113 L 296,112 L 299,112 L 300,111 L 303,111 L 304,110 L 306,110 L 307,109 L 309,109 L 310,108 L 314,108 L 315,107 L 318,107 L 319,106 L 322,106 L 323,105 L 326,105 L 327,104 L 333,104 L 334,103 L 339,103 L 340,102 L 350,102 L 351,101 L 379,101 L 380,102 L 388,102 L 389,103 L 394,103 L 395,104 L 401,104 L 402,105 L 406,105 L 407,106 L 410,106 L 411,107 L 414,107 L 415,108 L 419,108 L 420,109 L 422,109 L 423,110 L 426,110 L 427,111 L 430,111 L 431,112 L 433,112 L 434,113 L 436,113 L 437,114 L 438,114 L 439,115 L 442,115 L 443,116 L 444,116 L 445,117 L 447,117 L 448,118 L 450,118 L 451,119 L 452,119 L 453,120 L 455,120 L 456,121 L 457,121 L 458,122 L 459,122 L 460,123 L 461,123 L 462,124 L 463,124 L 464,125 L 465,125 L 466,126 L 467,126 L 468,127 L 469,127 L 471,129 L 473,129 L 475,131 L 476,131 L 478,133 L 479,133 L 480,134 L 481,134 L 482,135 L 483,135 L 485,137 L 486,137 L 488,139 L 489,139 L 491,141 L 492,141 L 494,143 L 495,143 L 497,145 L 498,145 L 501,148 L 502,148 L 505,151 L 506,151 L 510,155 L 511,155 L 518,162 L 519,162 L 526,169 L 527,169 L 549,191 L 549,192 L 559,202 L 559,203 L 566,210 L 566,211 L 568,213 L 568,214 L 570,216 L 570,217 L 573,220 L 573,221 L 574,222 L 574,223 L 576,225 L 576,226 L 577,227 L 577,228 L 580,231 L 580,232 L 581,233 L 581,234 L 583,236 L 583,237 L 584,238 L 584,239 L 586,241 L 586,242 L 587,243 L 587,244 L 588,245 L 588,246 L 590,248 L 590,249 L 591,250 L 591,251 L 592,252 L 592,253 L 594,255 L 594,256 L 595,257 L 595,258 L 596,259 L 596,260 L 597,261 L 597,262 L 598,263 L 598,264 L 599,265 L 599,266 L 600,267 L 600,268 L 601,269 L 601,270 L 602,271 L 602,273 L 603,274 L 603,275 L 604,276 L 604,277 L 605,278 L 605,280 L 606,281 L 606,283 L 607,284 L 607,286 L 608,287 L 608,288 L 609,289 L 609,292 L 610,293 L 610,295 L 611,296 L 611,299 L 612,300 L 612,302 L 613,303 L 613,308 L 614,309 L 614,313 L 615,314 L 615,321 L 616,322 L 616,344 L 615,345 L 615,352 L 614,353 L 614,357 L 613,358 L 613,364 L 612,365 L 612,368 L 611,369 L 611,371 L 610,372 L 610,375 L 609,376 L 609,380 L 608,381 L 608,383 L 607,384 L 607,387 L 606,388 L 606,392 L 605,393 L 605,396 L 604,397 L 604,400 L 603,401 L 603,405 L 602,406 L 602,413 L 601,414 L 601,420 L 600,421 L 600,443 L 601,444 L 601,448 L 602,449 L 602,452 L 603,453 L 603,455 L 605,457 L 605,458 L 606,459 L 606,460 L 608,462 L 608,463 L 611,466 L 612,466 L 614,468 L 615,468 L 616,469 L 617,469 L 618,470 L 624,470 L 626,468 L 626,467 L 627,466 L 627,464 L 626,463 L 626,462 L 625,461 L 624,461 L 623,460 L 622,460 L 618,456 L 617,456 L 616,455 L 616,454 L 614,452 L 614,451 L 613,450 L 613,449 L 612,448 L 612,446 L 611,445 L 611,439 L 610,438 L 610,428 L 611,427 L 611,418 L 612,417 L 612,413 L 613,412 L 613,409 L 614,408 L 614,404 L 615,403 L 615,398 L 616,397 L 616,393 L 617,392 L 617,389 L 618,388 L 618,385 L 619,384 L 619,380 L 620,379 L 620,377 L 621,376 L 621,373 L 622,372 L 622,368 L 623,367 L 623,364 L 624,363 L 624,360 L 625,359 L 625,355 L 626,354 L 626,346 L 627,345 L 627,320 L 626,319 L 626,311 L 625,310 L 625,306 L 624,305 L 624,302 L 623,301 L 623,298 L 622,297 L 622,294 L 621,293 L 621,291 L 620,290 L 620,288 L 619,287 L 619,285 L 618,284 L 618,282 L 617,281 L 617,279 L 616,278 L 616,277 L 615,276 L 615,274 L 614,273 L 614,271 L 613,270 L 613,269 L 612,268 L 612,267 L 611,266 L 611,264 L 610,263 L 610,262 L 609,261 L 609,260 L 608,259 L 608,258 L 607,257 L 607,256 L 606,255 L 606,254 L 605,253 L 605,252 L 604,251 L 604,249 L 602,247 L 602,246 L 601,245 L 601,244 L 600,243 L 600,242 L 599,241 L 599,240 L 597,238 L 597,237 L 596,236 L 596,235 L 595,234 L 595,233 L 593,231 L 593,230 L 592,229 L 592,228 L 590,226 L 590,225 L 589,224 L 589,223 L 587,221 L 587,220 L 585,218 L 585,217 L 583,215 L 583,214 L 579,210 L 579,209 L 575,205 L 575,204 L 572,201 L 572,200 L 565,193 L 565,192 L 561,188 L 561,187 L 537,163 L 536,163 L 529,156 L 528,156 L 521,149 L 520,149 L 516,145 L 515,145 L 512,142 L 511,142 L 508,139 L 507,139 L 504,136 L 503,136 L 500,133 L 499,133 L 496,130 L 495,130 L 492,127 L 491,127 L 489,125 L 488,125 L 487,124 L 486,124 L 484,122 L 483,122 L 481,120 L 480,120 L 479,119 L 478,119 L 477,118 L 476,118 L 474,116 L 472,116 L 470,114 L 469,114 L 468,113 L 467,113 L 466,112 L 465,112 L 464,111 L 462,111 L 461,110 L 460,110 L 459,109 L 457,109 L 456,108 L 455,108 L 454,107 L 452,107 L 451,106 L 449,106 L 448,105 L 445,105 L 444,104 L 443,104 L 442,103 L 440,103 L 439,102 L 436,102 L 435,101 L 433,101 L 432,100 L 431,100 L 430,99 L 427,99 L 426,98 L 423,98 L 422,97 L 420,97 L 419,96 L 416,96 L 415,95 L 410,95 L 409,94 L 406,94 L 405,93 L 401,93 L 400,92 L 394,92 L 393,91 L 382,91 L 381,90 Z" fill="black"/>
	<path d="M 345,59 L 344,60 L 334,60 L 333,61 L 327,61 L 326,62 L 320,62 L 319,63 L 313,63 L 312,64 L 308,64 L 307,65 L 304,65 L 303,66 L 299,66 L 298,67 L 295,67 L 294,68 L 291,68 L 290,69 L 288,69 L 287,70 L 283,70 L 282,71 L 280,71 L 279,72 L 278,72 L 277,73 L 275,73 L 274,74 L 271,74 L 270,75 L 268,75 L 267,76 L 266,76 L 265,77 L 263,77 L 262,78 L 260,78 L 259,79 L 258,79 L 257,80 L 256,80 L 255,81 L 253,81 L 252,82 L 251,82 L 250,83 L 249,83 L 248,84 L 246,84 L 245,85 L 244,85 L 243,86 L 242,86 L 241,87 L 240,87 L 239,88 L 238,88 L 237,89 L 236,89 L 235,90 L 234,90 L 233,91 L 232,91 L 231,92 L 230,92 L 229,93 L 228,93 L 227,94 L 226,94 L 225,95 L 224,95 L 222,97 L 221,97 L 220,98 L 219,98 L 218,99 L 217,99 L 215,101 L 214,101 L 213,102 L 212,102 L 210,104 L 209,104 L 207,106 L 206,106 L 204,108 L 203,108 L 201,110 L 200,110 L 197,113 L 196,113 L 193,116 L 192,116 L 190,118 L 189,118 L 184,123 L 184,129 L 185,130 L 186,130 L 187,131 L 190,131 L 191,130 L 192,130 L 193,129 L 194,129 L 195,128 L 196,128 L 198,126 L 199,126 L 203,122 L 204,122 L 205,121 L 206,121 L 208,119 L 209,119 L 212,116 L 213,116 L 214,115 L 215,115 L 217,113 L 218,113 L 219,112 L 220,112 L 222,110 L 223,110 L 224,109 L 225,109 L 226,108 L 227,108 L 229,106 L 230,106 L 232,104 L 234,104 L 235,103 L 236,103 L 238,101 L 240,101 L 241,100 L 242,100 L 244,98 L 245,98 L 246,97 L 248,97 L 249,96 L 250,96 L 251,95 L 252,95 L 253,94 L 254,94 L 255,93 L 257,93 L 258,92 L 259,92 L 260,91 L 261,91 L 262,90 L 264,90 L 265,89 L 266,89 L 267,88 L 269,88 L 270,87 L 271,87 L 272,86 L 275,86 L 276,85 L 277,85 L 278,84 L 280,84 L 281,83 L 283,83 L 284,82 L 286,82 L 287,81 L 289,81 L 290,80 L 292,80 L 293,79 L 297,79 L 298,78 L 301,78 L 302,77 L 305,77 L 306,76 L 311,76 L 312,75 L 317,75 L 318,74 L 323,74 L 324,73 L 331,73 L 332,72 L 345,72 L 346,71 L 355,71 L 356,70 L 380,70 L 381,71 L 394,71 L 395,72 L 407,72 L 408,73 L 412,73 L 413,74 L 416,74 L 417,75 L 420,75 L 421,76 L 425,76 L 426,77 L 429,77 L 430,78 L 431,78 L 432,79 L 436,79 L 437,80 L 439,80 L 440,81 L 441,81 L 442,82 L 444,82 L 445,83 L 447,83 L 448,84 L 450,84 L 451,85 L 452,85 L 453,86 L 455,86 L 456,87 L 458,87 L 459,88 L 460,88 L 461,89 L 462,89 L 463,90 L 465,90 L 466,91 L 468,91 L 469,92 L 470,92 L 471,93 L 472,93 L 473,94 L 475,94 L 476,95 L 477,95 L 479,97 L 481,97 L 482,98 L 483,98 L 484,99 L 485,99 L 486,100 L 487,100 L 488,101 L 489,101 L 491,103 L 492,103 L 493,104 L 494,104 L 495,105 L 496,105 L 498,107 L 499,107 L 501,109 L 502,109 L 504,111 L 505,111 L 507,113 L 508,113 L 510,115 L 511,115 L 515,119 L 516,119 L 520,123 L 521,123 L 527,129 L 528,129 L 556,157 L 556,158 L 562,164 L 562,165 L 566,169 L 566,170 L 570,174 L 570,175 L 573,178 L 573,179 L 576,182 L 576,183 L 580,187 L 582,187 L 583,188 L 584,187 L 586,187 L 588,185 L 588,181 L 587,180 L 587,179 L 585,177 L 585,176 L 583,174 L 583,173 L 582,172 L 582,171 L 579,168 L 579,167 L 577,165 L 577,164 L 573,160 L 573,159 L 569,155 L 569,154 L 562,147 L 562,146 L 543,127 L 542,127 L 540,125 L 540,124 L 539,124 L 534,119 L 533,119 L 529,115 L 528,115 L 526,113 L 525,113 L 521,109 L 520,109 L 517,106 L 516,106 L 513,103 L 512,103 L 511,102 L 510,102 L 507,99 L 506,99 L 504,97 L 503,97 L 502,96 L 501,96 L 499,94 L 498,94 L 496,92 L 495,92 L 494,91 L 493,91 L 492,90 L 491,90 L 489,88 L 487,88 L 486,87 L 485,87 L 483,85 L 482,85 L 481,84 L 479,84 L 478,83 L 477,83 L 475,81 L 473,81 L 472,80 L 471,80 L 470,79 L 469,79 L 468,78 L 466,78 L 465,77 L 463,77 L 462,76 L 461,76 L 460,75 L 459,75 L 458,74 L 456,74 L 455,73 L 453,73 L 452,72 L 450,72 L 449,71 L 447,71 L 446,70 L 442,70 L 441,69 L 439,69 L 438,68 L 436,68 L 435,67 L 432,67 L 431,66 L 428,66 L 427,65 L 424,65 L 423,64 L 420,64 L 419,63 L 413,63 L 412,62 L 407,62 L 406,61 L 399,61 L 398,60 L 388,60 L 387,59 Z" fill="black"/>
	<path d="M 361,26 L 360,27 L 342,27 L 341,28 L 335,28 L 334,29 L 330,29 L 329,30 L 324,30 L 323,31 L 318,31 L 317,32 L 315,32 L 314,33 L 312,33 L 311,34 L 307,34 L 306,35 L 304,35 L 303,36 L 302,36 L 301,37 L 299,37 L 298,38 L 295,38 L 294,39 L 292,39 L 291,40 L 290,40 L 289,41 L 287,41 L 286,42 L 284,42 L 283,43 L 282,43 L 281,44 L 280,44 L 279,45 L 277,45 L 276,46 L 275,46 L 272,49 L 272,50 L 271,51 L 271,53 L 272,54 L 272,55 L 273,56 L 274,56 L 275,57 L 277,57 L 278,56 L 281,56 L 282,55 L 284,55 L 285,54 L 287,54 L 288,53 L 290,53 L 291,52 L 292,52 L 293,51 L 296,51 L 297,50 L 298,50 L 299,49 L 301,49 L 302,48 L 303,48 L 304,47 L 307,47 L 308,46 L 310,46 L 311,45 L 313,45 L 314,44 L 319,44 L 320,43 L 325,43 L 326,42 L 329,42 L 330,41 L 334,41 L 335,40 L 342,40 L 343,39 L 349,39 L 350,38 L 357,38 L 358,37 L 371,37 L 372,38 L 391,38 L 392,39 L 399,39 L 400,40 L 407,40 L 408,41 L 412,41 L 413,42 L 416,42 L 417,43 L 421,43 L 422,44 L 425,44 L 426,45 L 429,45 L 430,46 L 433,46 L 434,47 L 438,47 L 439,48 L 441,48 L 442,49 L 444,49 L 445,50 L 447,50 L 448,51 L 451,51 L 452,52 L 453,52 L 454,53 L 456,53 L 457,54 L 459,54 L 460,55 L 462,55 L 463,56 L 464,56 L 465,57 L 467,57 L 468,58 L 470,58 L 471,59 L 473,59 L 474,60 L 476,60 L 477,61 L 482,61 L 484,59 L 484,55 L 483,54 L 483,53 L 481,51 L 480,51 L 479,50 L 478,50 L 477,49 L 475,49 L 474,48 L 472,48 L 471,47 L 470,47 L 469,46 L 468,46 L 467,45 L 464,45 L 463,44 L 462,44 L 461,43 L 460,43 L 459,42 L 457,42 L 456,41 L 454,41 L 453,40 L 452,40 L 451,39 L 449,39 L 448,38 L 445,38 L 444,37 L 442,37 L 441,36 L 439,36 L 438,35 L 435,35 L 434,34 L 430,34 L 429,33 L 426,33 L 425,32 L 421,32 L 420,31 L 414,31 L 413,30 L 407,30 L 406,29 L 401,29 L 400,28 L 394,28 L 393,27 L 373,27 L 372,26 Z" fill="black"/>
	<path d="M 757,0 L 762,5 L 762,6 L 763,7 L 763,0 Z" fill="black"/>
</svg>
